0
SECTION
2
HEADER
9
$INSUNITS
70
4
0
ENDSEC
0
SECTION
2
TABLES
0
TABLE
2
LTYPE
0
LTYPE
72
65
70
64
2
CONTINUOUS
3
______
73
0
40
0
0
ENDTAB
0
TABLE
2
LAYER
0
ENDTAB
0
ENDSEC
0
SECTION
2
ENTITIES
0
LINE
8
front_outsideCutPath
10
0
20
323
11
0
21
295
0
LINE
8
front_outsideCutPath
10
0
20
295
11
3
21
295
0
LINE
8
front_outsideCutPath
10
3
20
295
11
3
21
271
0
LINE
8
front_outsideCutPath
10
3
20
271
11
0
21
271
0
LINE
8
front_outsideCutPath
10
0
20
271
11
0
21
247
0
LINE
8
front_outsideCutPath
10
0
20
247
11
3
21
247
0
LINE
8
front_outsideCutPath
10
3
20
247
11
3
21
223
0
LINE
8
front_outsideCutPath
10
3
20
223
11
0
21
223
0
LINE
8
front_outsideCutPath
10
0
20
223
11
0
21
199
0
LINE
8
front_outsideCutPath
10
0
20
199
11
3
21
199
0
LINE
8
front_outsideCutPath
10
3
20
199
11
3
21
175
0
LINE
8
front_outsideCutPath
10
3
20
175
11
0
21
175
0
LINE
8
front_outsideCutPath
10
0
20
175
11
0
21
151
0
LINE
8
front_outsideCutPath
10
0
20
151
11
3
21
151
0
LINE
8
front_outsideCutPath
10
3
20
151
11
3
21
127
0
LINE
8
front_outsideCutPath
10
3
20
127
11
0
21
127
0
LINE
8
front_outsideCutPath
10
0
20
127
11
0
21
103
0
LINE
8
front_outsideCutPath
10
0
20
103
11
3
21
103
0
LINE
8
front_outsideCutPath
10
3
20
103
11
3
21
79
0
LINE
8
front_outsideCutPath
10
3
20
79
11
0
21
79
0
LINE
8
front_outsideCutPath
10
0
20
79
11
0
21
55
0
LINE
8
front_outsideCutPath
10
0
20
55
11
3
21
55
0
LINE
8
front_outsideCutPath
10
3
20
55
11
3
21
31
0
LINE
8
front_outsideCutPath
10
3
20
31
11
0
21
31
0
LINE
8
front_outsideCutPath
10
0
20
31
11
0
21
3
0
LINE
8
front_outsideCutPath
10
0
20
3
11
19.5
21
3
0
LINE
8
front_outsideCutPath
10
19.5
20
3
11
19.5
21
6
0
LINE
8
front_outsideCutPath
10
19.5
20
6
11
43.5
21
6
0
LINE
8
front_outsideCutPath
10
43.5
20
6
11
43.5
21
3
0
LINE
8
front_outsideCutPath
10
43.5
20
3
11
67.5
21
3
0
LINE
8
front_outsideCutPath
10
67.5
20
3
11
67.5
21
6
0
LINE
8
front_outsideCutPath
10
67.5
20
6
11
91.5
21
6
0
LINE
8
front_outsideCutPath
10
91.5
20
6
11
91.5
21
3
0
LINE
8
front_outsideCutPath
10
91.5
20
3
11
115.5
21
3
0
LINE
8
front_outsideCutPath
10
115.5
20
3
11
115.5
21
6
0
LINE
8
front_outsideCutPath
10
115.5
20
6
11
139.5
21
6
0
LINE
8
front_outsideCutPath
10
139.5
20
6
11
139.5
21
3
0
LINE
8
front_outsideCutPath
10
139.5
20
3
11
163.5
21
3
0
LINE
8
front_outsideCutPath
10
163.5
20
3
11
163.5
21
6
0
LINE
8
front_outsideCutPath
10
163.5
20
6
11
187.5
21
6
0
LINE
8
front_outsideCutPath
10
187.5
20
6
11
187.5
21
3
0
LINE
8
front_outsideCutPath
10
187.5
20
3
11
211.5
21
3
0
LINE
8
front_outsideCutPath
10
211.5
20
3
11
211.5
21
6
0
LINE
8
front_outsideCutPath
10
211.5
20
6
11
235.5
21
6
0
LINE
8
front_outsideCutPath
10
235.5
20
6
11
235.5
21
3
0
LINE
8
front_outsideCutPath
10
235.5
20
3
11
255
21
3
0
LINE
8
front_outsideCutPath
10
255
20
3
11
255
21
31
0
LINE
8
front_outsideCutPath
10
255
20
31
11
252
21
31
0
LINE
8
front_outsideCutPath
10
252
20
31
11
252
21
55
0
LINE
8
front_outsideCutPath
10
252
20
55
11
255
21
55
0
LINE
8
front_outsideCutPath
10
255
20
55
11
255
21
79
0
LINE
8
front_outsideCutPath
10
255
20
79
11
252
21
79
0
LINE
8
front_outsideCutPath
10
252
20
79
11
252
21
103
0
LINE
8
front_outsideCutPath
10
252
20
103
11
255
21
103
0
LINE
8
front_outsideCutPath
10
255
20
103
11
255
21
127
0
LINE
8
front_outsideCutPath
10
255
20
127
11
252
21
127
0
LINE
8
front_outsideCutPath
10
252
20
127
11
252
21
151
0
LINE
8
front_outsideCutPath
10
252
20
151
11
255
21
151
0
LINE
8
front_outsideCutPath
10
255
20
151
11
255
21
175
0
LINE
8
front_outsideCutPath
10
255
20
175
11
252
21
175
0
LINE
8
front_outsideCutPath
10
252
20
175
11
252
21
199
0
LINE
8
front_outsideCutPath
10
252
20
199
11
255
21
199
0
LINE
8
front_outsideCutPath
10
255
20
199
11
255
21
223
0
LINE
8
front_outsideCutPath
10
255
20
223
11
252
21
223
0
LINE
8
front_outsideCutPath
10
252
20
223
11
252
21
247
0
LINE
8
front_outsideCutPath
10
252
20
247
11
255
21
247
0
LINE
8
front_outsideCutPath
10
255
20
247
11
255
21
271
0
LINE
8
front_outsideCutPath
10
255
20
271
11
252
21
271
0
LINE
8
front_outsideCutPath
10
252
20
271
11
252
21
295
0
LINE
8
front_outsideCutPath
10
252
20
295
11
255
21
295
0
LINE
8
front_outsideCutPath
10
255
20
295
11
255
21
323
0
LINE
8
front_outsideCutPath
10
255
20
323
11
235.5
21
323
0
LINE
8
front_outsideCutPath
10
235.5
20
323
11
235.5
21
320
0
LINE
8
front_outsideCutPath
10
235.5
20
320
11
211.5
21
320
0
LINE
8
front_outsideCutPath
10
211.5
20
320
11
211.5
21
323
0
LINE
8
front_outsideCutPath
10
211.5
20
323
11
187.5
21
323
0
LINE
8
front_outsideCutPath
10
187.5
20
323
11
187.5
21
320
0
LINE
8
front_outsideCutPath
10
187.5
20
320
11
163.5
21
320
0
LINE
8
front_outsideCutPath
10
163.5
20
320
11
163.5
21
323
0
LINE
8
front_outsideCutPath
10
163.5
20
323
11
139.5
21
323
0
LINE
8
front_outsideCutPath
10
139.5
20
323
11
139.5
21
320
0
LINE
8
front_outsideCutPath
10
139.5
20
320
11
115.5
21
320
0
LINE
8
front_outsideCutPath
10
115.5
20
320
11
115.5
21
323
0
LINE
8
front_outsideCutPath
10
115.5
20
323
11
91.5
21
323
0
LINE
8
front_outsideCutPath
10
91.5
20
323
11
91.5
21
320
0
LINE
8
front_outsideCutPath
10
91.5
20
320
11
67.5
21
320
0
LINE
8
front_outsideCutPath
10
67.5
20
320
11
67.5
21
323
0
LINE
8
front_outsideCutPath
10
67.5
20
323
11
43.5
21
323
0
LINE
8
front_outsideCutPath
10
43.5
20
323
11
43.5
21
320
0
LINE
8
front_outsideCutPath
10
43.5
20
320
11
19.5
21
320
0
LINE
8
front_outsideCutPath
10
19.5
20
320
11
19.5
21
323
0
LINE
8
front_outsideCutPath
10
19.5
20
323
11
0
21
323
0
LINE
8
front_labelLayer
10
85.2531738
20
171.0315458
11
85.2531738
21
167.8191435
0
LINE
8
front_labelLayer
10
85.2531738
20
167.8191435
11
78.3054199
21
167.8191435
0
LINE
8
front_labelLayer
10
78.3054199
20
167.8191435
11
78.3054199
21
143.7385771
0
LINE
8
front_labelLayer
10
78.3054199
20
143.7385771
11
74.1716309
21
143.7385771
0
LINE
8
front_labelLayer
10
74.1716309
20
143.7385771
11
74.1716309
21
167.8191435
0
LINE
8
front_labelLayer
10
74.1716309
20
167.8191435
11
69.2907715
21
167.8191435
0
LINE
8
front_labelLayer
10
69.2907715
20
167.8191435
11
69.2907715
21
169.6868193
0
LINE
8
front_labelLayer
10
69.2907715
20
169.6868193
11
74.1716309
21
171.1809599
0
LINE
8
front_labelLayer
10
74.1716309
20
171.1809599
11
74.1716309
21
172.7000029
0
LINE
8
front_labelLayer
10
88.0422363
20
181.8889677
11
86.9714355
21
178.576956
0
LINE
8
front_labelLayer
10
78.3054199
20
172.7996122
11
78.3054199
21
171.0315458
0
LINE
8
front_labelLayer
10
78.3054199
20
171.0315458
11
85.2531738
21
171.0315458
0
ARC
8
front_labelLayer
10
90.9244423
20
172.8926018
40
16.7539185
50
167.577604
51
180.6586728
0
ARC
8
front_labelLayer
10
83.0461926
20
174.7293521
40
8.6655614
50
141.7433813
51
168.2322141
0
ARC
8
front_labelLayer
10
81.7634585
20
175.3988433
40
7.2487374
50
98.2551486
51
139.6203348
0
ARC
8
front_labelLayer
10
82.8897222
20
170.1959325
40
12.564826
50
89.6696889
51
99.9314292
0
ARC
8
front_labelLayer
10
82.8928654
20
169.4489897
40
13.3117404
50
81.5640881
51
89.7017519
0
ARC
8
front_labelLayer
10
81.9570163
20
162.9199906
40
19.9074172
50
75.9739979
51
81.6564765
0
ARC
8
front_labelLayer
10
80.3509915
20
156.2585996
40
26.7595033
50
73.2963784
51
76.0946018
0
ARC
8
front_labelLayer
10
80.755501
20
159.4901266
40
20.0734874
50
71.9613231
51
76.5918342
0
ARC
8
front_labelLayer
10
82.3128167
20
166.0964162
40
13.2861569
50
76.5183415
51
83.0216907
0
ARC
8
front_labelLayer
10
82.8552831
20
170.4588593
40
8.8901277
50
83.0760801
51
89.7926805
0
ARC
8
front_labelLayer
10
82.8374321
20
173.7742821
40
5.574871
50
89.4859221
51
103.4197302
0
ARC
8
front_labelLayer
10
82.3348184
20
175.7052784
40
3.5801823
50
102.7677422
51
144.3380272
0
ARC
8
front_labelLayer
10
83.3473825
20
175.0537874
40
4.7830706
50
145.0688746
51
162.1801669
0
ARC
8
front_labelLayer
10
86.8190986
20
173.8857283
40
8.4458267
50
161.843762
51
171.7846927
0
ARC
8
front_labelLayer
10
92.4815119
20
173.0352514
40
14.1716978
50
171.6527783
51
178.4383579
0
ARC
8
front_labelLayer
10
97.8225722
20
172.8075047
40
19.5171538
50
178.1973238
51
180.0231697
0
LINE
8
front_labelLayer
10
105.9470215
20
171.2307646
11
105.3742676
21
167.3958036
0
LINE
8
front_labelLayer
10
94.3674316
20
158.3811552
11
94.3674316
21
143.7385771
0
LINE
8
front_labelLayer
10
94.3674316
20
143.7385771
11
90.2336426
21
143.7385771
0
LINE
8
front_labelLayer
10
90.2336426
20
143.7385771
11
90.2336426
21
171.0315458
0
LINE
8
front_labelLayer
10
90.2336426
20
171.0315458
11
93.6452637
21
171.0315458
0
LINE
8
front_labelLayer
10
93.6452637
20
171.0315458
11
94.1184082
21
165.97637
0
LINE
8
front_labelLayer
10
94.1184082
20
165.97637
11
94.3176269
21
165.97637
0
ARC
8
front_labelLayer
10
102.7272467
20
152.5520899
40
18.9775502
50
84.9922905
51
90.1281087
0
ARC
8
front_labelLayer
10
103.1829895
20
157.6582065
40
13.8511446
50
78.4892021
51
85.0265882
0
ARC
8
front_labelLayer
10
101.4140386
20
149.6125841
40
18.218845
50
77.445397
51
81.6360217
0
ARC
8
front_labelLayer
10
102.2078228
20
155.0840187
40
12.6901444
50
81.588438
51
87.1916484
0
ARC
8
front_labelLayer
10
102.3802253
20
158.0734782
40
9.6958624
50
87.34367
51
89.9659563
0
ARC
8
front_labelLayer
10
102.3401746
20
160.6068526
40
7.1626327
50
89.6335372
51
137.0880792
0
ARC
8
front_labelLayer
10
104.09798
20
158.6301484
40
9.7991491
50
135.620915
51
138.8377486
0
ARC
8
front_labelLayer
10
103.8404356
20
158.8815344
40
9.4398172
50
138.9575715
51
174.5422277
0
ARC
8
front_labelLayer
10
106.9147624
20
158.400487
40
12.5473458
50
173.6907476
51
180.0882761
0
ARC
8
front_labelLayer
10
106.4801253
20
159.1240725
40
13.9599552
50
139.4139374
51
150.603283
0
ARC
8
front_labelLayer
10
103.9770924
20
161.2689055
40
10.663672
50
124.2321504
51
139.4161007
0
ARC
8
front_labelLayer
10
102.6387422
20
163.2891378
40
8.2405837
50
89.6796634
51
124.4405653
0
ARC
8
front_labelLayer
10
113.2573897
20
157.2660139
40
21.3527146
50
349.1761924
51
0.3862638
0
ARC
8
front_labelLayer
10
120.4463416
20
155.8328832
40
14.0226507
50
330.2507096
51
349.4116454
0
ARC
8
front_labelLayer
10
122.6587368
20
154.6829698
40
11.5316732
50
318.1439757
51
329.7566168
0
ARC
8
front_labelLayer
10
123.0580475
20
154.3629623
40
11.0207645
50
278.8959182
51
317.997911
0
ARC
8
front_labelLayer
10
122.0291877
20
159.2923254
40
16.0519476
50
269.7502871
51
279.8033214
0
ARC
8
front_labelLayer
10
121.8623268
20
156.5149341
40
13.2747576
50
253.5436952
51
270.4182457
0
ARC
8
front_labelLayer
10
121.4204365
20
154.8055914
40
11.5104145
50
238.8115555
51
253.2428353
0
ARC
8
front_labelLayer
10
121.2778248
20
154.5187979
40
11.1912508
50
207.7947067
51
238.6757941
0
ARC
8
front_labelLayer
10
123.3243008
20
155.772162
40
13.5869406
50
205.6560443
51
208.4461349
0
ARC
8
front_labelLayer
10
124.9004549
20
156.4288792
40
15.2923055
50
188.9102455
51
205.3171426
0
ARC
8
front_labelLayer
10
130.212494
20
157.3285649
40
20.6796951
50
179.7744732
51
189.0932802
0
ARC
8
front_labelLayer
10
130.9960765
20
157.5553405
40
21.4636099
50
169.2442982
51
180.3880771
0
ARC
8
front_labelLayer
10
123.7072056
20
158.9960844
40
14.0340251
50
150.7111519
51
169.4695393
0
ARC
8
front_labelLayer
10
121.3803627
20
160.1910033
40
11.4204707
50
138.1759401
51
150.2287413
0
ARC
8
front_labelLayer
10
120.9933155
20
160.4880165
40
10.9340447
50
99.1759387
51
137.9832731
0
ARC
8
front_labelLayer
10
122.058625
20
155.4745537
40
16.0552139
50
89.7326346
51
100.0759842
0
ARC
8
front_labelLayer
10
122.2715441
20
157.6396988
40
13.8905794
50
73.5222758
51
90.5692276
0
ARC
8
front_labelLayer
10
123.0861434
20
160.5993569
40
10.8215763
50
41.1445656
51
73.213382
0
ARC
8
front_labelLayer
10
121.5311389
20
159.2628515
40
12.871955
50
13.5014331
51
41.0703427
0
ARC
8
front_labelLayer
10
115.5233852
20
157.6907019
40
19.0811447
50
1.1277228
51
13.880002
0
ARC
8
front_labelLayer
10
110.3485869
20
157.4133863
40
24.2610327
50
359.9919173
51
1.5419946
0
ARC
8
front_labelLayer
10
134.7493123
20
157.302537
40
20.9334259
50
179.7059664
51
187.9160822
0
ARC
8
front_labelLayer
10
127.0715912
20
156.1996386
40
13.1770196
50
187.7639258
51
200.0976806
0
ARC
8
front_labelLayer
10
122.8419562
20
154.6498965
40
8.67241
50
200.0845916
51
216.913157
0
ARC
8
front_labelLayer
10
121.2974416
20
153.5470418
40
6.7752747
50
217.3009586
51
261.7099094
0
ARC
8
front_labelLayer
10
122.014458
20
156.9685684
40
10.2667085
50
260.5033148
51
270.247673
0
ARC
8
front_labelLayer
10
122.1513149
20
156.3032393
40
9.6017287
50
269.4481595
51
284.7255682
0
ARC
8
front_labelLayer
10
122.9114267
20
153.4842302
40
6.6821248
50
284.5662298
51
322.6333818
0
ARC
8
front_labelLayer
10
121.1342434
20
154.7681656
40
8.8740013
50
323.0089274
51
342.6390464
0
ARC
8
front_labelLayer
10
116.051135
20
156.4294722
40
14.2214278
50
342.3615668
51
353.7537641
0
ARC
8
front_labelLayer
10
108.5518287
20
157.3334184
40
21.7747221
50
353.5363038
51
0.2014142
0
ARC
8
front_labelLayer
10
109.7008311
20
157.5152383
40
20.6258536
50
359.7075606
51
7.897268
0
ARC
8
front_labelLayer
10
117.254592
20
158.5981385
40
12.9949912
50
7.7439934
51
20.0690203
0
ARC
8
front_labelLayer
10
121.463849
20
160.1427787
40
8.5112769
50
20.025701
51
37.4350507
0
ARC
8
front_labelLayer
10
122.8604452
20
161.1337821
40
6.8002094
50
37.9577659
51
80.4006205
0
ARC
8
front_labelLayer
10
122.0668046
20
157.5926399
40
10.4258824
50
79.3453422
51
90.3174863
0
ARC
8
front_labelLayer
10
121.9198506
20
158.1808271
40
9.8379393
50
89.480597
51
103.8805031
0
ARC
8
front_labelLayer
10
121.0932095
20
161.3286746
40
6.5838757
50
103.4685236
51
142.3118906
0
ARC
8
front_labelLayer
10
122.7002626
20
160.19848
40
8.5470311
50
142.9025715
51
162.374965
0
ARC
8
front_labelLayer
10
127.7641001
20
158.5109686
40
13.8843224
50
162.0653155
51
173.1674874
0
ARC
8
front_labelLayer
10
135.6599751
20
157.5038961
40
21.844015
50
173.0086187
51
180.2463807
0
LINE
8
front_labelLayer
10
164.666748
20
143.7385771
11
160.532959
21
143.7385771
0
LINE
8
front_labelLayer
10
160.532959
20
143.7385771
11
160.532959
21
161.3943388
0
LINE
8
front_labelLayer
10
145.9899902
20
158.0574247
11
145.9899902
21
143.7385771
0
LINE
8
front_labelLayer
10
145.9899902
20
143.7385771
11
141.8562012
21
143.7385771
0
LINE
8
front_labelLayer
10
141.8562012
20
143.7385771
11
141.8562012
21
171.0315458
0
LINE
8
front_labelLayer
10
141.8562012
20
171.0315458
11
145.2180176
21
171.0315458
0
LINE
8
front_labelLayer
10
145.2180176
20
171.0315458
11
145.8903809
21
167.2961943
0
LINE
8
front_labelLayer
10
145.8903809
20
167.2961943
11
146.0895996
21
167.2961943
0
LINE
8
front_labelLayer
10
164.666748
20
161.5437529
11
164.666748
21
143.7385771
0
ARC
8
front_labelLayer
10
148.8479713
20
161.4613514
40
11.6851799
50
359.6714165
51
8.6877304
0
ARC
8
front_labelLayer
10
153.1788289
20
162.1481982
40
7.3003079
50
8.4931378
51
22.6579867
0
ARC
8
front_labelLayer
10
155.3791977
20
163.0626013
40
4.9175082
50
22.7024564
51
42.3419431
0
ARC
8
front_labelLayer
10
155.6265374
20
163.173863
40
4.6605128
50
43.3790966
51
71.5386038
0
ARC
8
front_labelLayer
10
154.7016389
20
160.5894601
40
7.4050331
50
71.0827955
51
84.3691146
0
ARC
8
front_labelLayer
10
154.2864639
20
157.059523
40
10.9588773
50
84.0197788
51
90.1510732
0
ARC
8
front_labelLayer
10
154.1687645
20
155.5075927
40
12.5110847
50
89.5933102
51
100.3717833
0
ARC
8
front_labelLayer
10
153.2846151
20
160.1464374
40
7.7889365
50
100.1176356
51
118.160261
0
ARC
8
front_labelLayer
10
152.3936159
20
161.8936108
40
5.8282073
50
118.5439337
51
139.1926906
0
ARC
8
front_labelLayer
10
153.170523
20
161.3722961
40
6.7578925
50
140.1519162
51
160.3146346
0
ARC
8
front_labelLayer
10
157.8619614
20
159.6150835
40
11.7673064
50
159.9534367
51
171.3801096
0
ARC
8
front_labelLayer
10
165.5255086
20
158.3831955
40
19.5290461
50
171.1765818
51
178.3217656
0
ARC
8
front_labelLayer
10
172.4718993
20
158.0683646
40
26.4819114
50
178.0810446
51
180.0236694
0
ARC
8
front_labelLayer
10
153.1610753
20
162.8175946
40
8.3704016
50
116.9442891
51
147.6525662
0
ARC
8
front_labelLayer
10
154.0322499
20
161.3605278
40
10.0647232
50
115.8071745
51
117.6067933
0
ARC
8
front_labelLayer
10
154.4777387
20
160.3218237
40
11.1938889
50
94.3226694
51
115.5454359
0
ARC
8
front_labelLayer
10
154.7456677
20
157.9939931
40
13.5356033
50
89.9578923
51
94.7108805
0
ARC
8
front_labelLayer
10
154.8564027
20
155.2089935
40
16.3209104
50
80.558537
51
90.3538241
0
ARC
8
front_labelLayer
10
155.8763581
20
161.1169678
40
10.3257202
50
65.1094181
51
80.7638195
0
ARC
8
front_labelLayer
10
157.0686391
20
163.7578345
40
7.4284005
50
46.5584432
51
64.8782426
0
ARC
8
front_labelLayer
10
157.1640613
20
164.0329225
40
7.164055
50
19.3848787
51
45.5997118
0
ARC
8
front_labelLayer
10
153.0194263
20
162.4777836
40
11.5902612
50
6.963363
51
19.8363366
0
ARC
8
front_labelLayer
10
146.62708
20
161.6183246
40
18.0398223
50
359.763154
51
7.21156
0
LINE
8
front_labelLayer
10
185.7092285
20
147.1501982
11
185.7092285
21
143.9876005
0
LINE
8
front_labelLayer
10
173.4572754
20
151.5828154
11
173.4572754
21
167.8191435
0
LINE
8
front_labelLayer
10
173.4572754
20
167.8191435
11
169.5476074
21
167.8191435
0
LINE
8
front_labelLayer
10
169.5476074
20
167.8191435
11
169.5476074
21
169.811331
0
LINE
8
front_labelLayer
10
169.5476074
20
169.811331
11
173.4572754
21
171.5295927
0
LINE
8
front_labelLayer
10
173.4572754
20
171.5295927
11
175.2004394
21
177.3567411
0
LINE
8
front_labelLayer
10
175.2004394
20
177.3567411
11
177.5910644
21
177.3567411
0
LINE
8
front_labelLayer
10
177.5910644
20
177.3567411
11
177.5910644
21
171.0315458
0
LINE
8
front_labelLayer
10
177.5910644
20
171.0315458
11
185.5100098
21
171.0315458
0
LINE
8
front_labelLayer
10
185.5100098
20
171.0315458
11
185.5100098
21
167.8191435
0
LINE
8
front_labelLayer
10
185.5100098
20
167.8191435
11
177.5910644
21
167.8191435
0
LINE
8
front_labelLayer
10
177.5910644
20
167.8191435
11
177.5910644
21
151.7571318
0
ARC
8
front_labelLayer
10
182.0022273
20
160.2280598
40
13.5759381
50
269.8803505
51
278.3028224
0
ARC
8
front_labelLayer
10
182.1317913
20
159.1698816
40
12.5101654
50
278.4154896
51
279.0081791
0
ARC
8
front_labelLayer
10
180.6082073
20
168.9031959
40
22.3619932
50
278.9589694
51
280.5104236
0
ARC
8
front_labelLayer
10
182.0598908
20
161.1140008
40
14.4386805
50
280.4847676
51
282.6268217
0
ARC
8
front_labelLayer
10
183.3330383
20
155.4577718
40
8.640942
50
282.5876755
51
285.5794594
0
ARC
8
front_labelLayer
10
183.9718607
20
153.1084059
40
6.2063425
50
285.7237381
51
286.2562807
0
ARC
8
front_labelLayer
10
183.971283
20
147.6634482
40
4.0659944
50
287.9888052
51
295.3048443
0
ARC
8
front_labelLayer
10
182.9906138
20
150.6304039
40
7.190796
50
283.3068975
51
288.1198195
0
ARC
8
front_labelLayer
10
181.9545842
20
154.9519804
40
11.6348108
50
280.0070092
51
283.3735238
0
ARC
8
front_labelLayer
10
181.2616103
20
158.7125449
40
15.4586081
50
279.1862629
51
280.1143584
0
ARC
8
front_labelLayer
10
180.835903
20
161.1340398
40
17.9170397
50
275.5260478
51
279.2939312
0
ARC
8
front_labelLayer
10
181.3153949
20
156.1257747
40
12.8858772
50
270.8932614
51
275.5483853
0
ARC
8
front_labelLayer
10
181.3756229
20
153.8391641
40
10.5986339
50
270.0032316
51
270.7604203
0
ARC
8
front_labelLayer
10
181.2094101
20
154.0360981
40
10.7968566
50
253.7847991
51
270.8852504
0
ARC
8
front_labelLayer
10
179.9302697
20
149.6737401
40
6.2508482
50
190.3817654
51
253.8772415
0
ARC
8
front_labelLayer
10
186.4500251
20
151.4365673
40
12.9935729
50
179.3550988
51
192.8477639
0
ARC
8
front_labelLayer
10
185.9149707
20
151.7050698
40
8.324069
50
179.6416476
51
189.750595
0
ARC
8
front_labelLayer
10
182.9764159
20
151.1809411
40
5.3392309
50
189.5479445
51
205.7873704
0
ARC
8
front_labelLayer
10
181.7688025
20
150.6240736
40
4.0096939
50
206.129452
51
221.4083809
0
ARC
8
front_labelLayer
10
181.6333888
20
150.5213249
40
3.8401918
50
221.5949202
51
262.350522
0
ARC
8
front_labelLayer
10
181.9554292
20
152.1773709
40
5.5252505
50
261.3266096
51
270.1912996
0
LINE
8
left_outsideCutPath
10
261
20
323
11
261
21
295
0
LINE
8
left_outsideCutPath
10
261
20
295
11
258
21
295
0
LINE
8
left_outsideCutPath
10
258
20
295
11
258
21
271
0
LINE
8
left_outsideCutPath
10
258
20
271
11
261
21
271
0
LINE
8
left_outsideCutPath
10
261
20
271
11
261
21
247
0
LINE
8
left_outsideCutPath
10
261
20
247
11
258
21
247
0
LINE
8
left_outsideCutPath
10
258
20
247
11
258
21
223
0
LINE
8
left_outsideCutPath
10
258
20
223
11
261
21
223
0
LINE
8
left_outsideCutPath
10
261
20
223
11
261
21
199
0
LINE
8
left_outsideCutPath
10
261
20
199
11
258
21
199
0
LINE
8
left_outsideCutPath
10
258
20
199
11
258
21
175
0
LINE
8
left_outsideCutPath
10
258
20
175
11
261
21
175
0
LINE
8
left_outsideCutPath
10
261
20
175
11
261
21
151
0
LINE
8
left_outsideCutPath
10
261
20
151
11
258
21
151
0
LINE
8
left_outsideCutPath
10
258
20
151
11
258
21
127
0
LINE
8
left_outsideCutPath
10
258
20
127
11
261
21
127
0
LINE
8
left_outsideCutPath
10
261
20
127
11
261
21
103
0
LINE
8
left_outsideCutPath
10
261
20
103
11
258
21
103
0
LINE
8
left_outsideCutPath
10
258
20
103
11
258
21
79
0
LINE
8
left_outsideCutPath
10
258
20
79
11
261
21
79
0
LINE
8
left_outsideCutPath
10
261
20
79
11
261
21
55
0
LINE
8
left_outsideCutPath
10
261
20
55
11
258
21
55
0
LINE
8
left_outsideCutPath
10
258
20
55
11
258
21
31
0
LINE
8
left_outsideCutPath
10
258
20
31
11
261
21
31
0
LINE
8
left_outsideCutPath
10
261
20
31
11
261
21
3
0
LINE
8
left_outsideCutPath
10
261
20
3
11
286.5
21
3
0
LINE
8
left_outsideCutPath
10
286.5
20
3
11
286.5
21
6
0
LINE
8
left_outsideCutPath
10
286.5
20
6
11
310.5
21
6
0
LINE
8
left_outsideCutPath
10
310.5
20
6
11
310.5
21
3
0
LINE
8
left_outsideCutPath
10
310.5
20
3
11
334.5
21
3
0
LINE
8
left_outsideCutPath
10
334.5
20
3
11
334.5
21
6
0
LINE
8
left_outsideCutPath
10
334.5
20
6
11
358.5
21
6
0
LINE
8
left_outsideCutPath
10
358.5
20
6
11
358.5
21
3
0
LINE
8
left_outsideCutPath
10
358.5
20
3
11
382.5
21
3
0
LINE
8
left_outsideCutPath
10
382.5
20
3
11
384
21
3
0
LINE
8
left_outsideCutPath
10
384
20
3
11
384
21
31
0
LINE
8
left_outsideCutPath
10
384
20
31
11
387
21
31
0
LINE
8
left_outsideCutPath
10
387
20
31
11
387
21
55
0
LINE
8
left_outsideCutPath
10
387
20
55
11
384
21
55
0
LINE
8
left_outsideCutPath
10
384
20
55
11
384
21
79
0
LINE
8
left_outsideCutPath
10
384
20
79
11
387
21
79
0
LINE
8
left_outsideCutPath
10
387
20
79
11
387
21
103
0
LINE
8
left_outsideCutPath
10
387
20
103
11
384
21
103
0
LINE
8
left_outsideCutPath
10
384
20
103
11
384
21
127
0
LINE
8
left_outsideCutPath
10
384
20
127
11
387
21
127
0
LINE
8
left_outsideCutPath
10
387
20
127
11
387
21
151
0
LINE
8
left_outsideCutPath
10
387
20
151
11
384
21
151
0
LINE
8
left_outsideCutPath
10
384
20
151
11
384
21
175
0
LINE
8
left_outsideCutPath
10
384
20
175
11
387
21
175
0
LINE
8
left_outsideCutPath
10
387
20
175
11
387
21
199
0
LINE
8
left_outsideCutPath
10
387
20
199
11
384
21
199
0
LINE
8
left_outsideCutPath
10
384
20
199
11
384
21
223
0
LINE
8
left_outsideCutPath
10
384
20
223
11
387
21
223
0
LINE
8
left_outsideCutPath
10
387
20
223
11
387
21
247
0
LINE
8
left_outsideCutPath
10
387
20
247
11
384
21
247
0
LINE
8
left_outsideCutPath
10
384
20
247
11
384
21
271
0
LINE
8
left_outsideCutPath
10
384
20
271
11
387
21
271
0
LINE
8
left_outsideCutPath
10
387
20
271
11
387
21
295
0
LINE
8
left_outsideCutPath
10
387
20
295
11
384
21
295
0
LINE
8
left_outsideCutPath
10
384
20
295
11
384
21
323
0
LINE
8
left_outsideCutPath
10
384
20
323
11
358.5
21
323
0
LINE
8
left_outsideCutPath
10
358.5
20
323
11
358.5
21
320
0
LINE
8
left_outsideCutPath
10
358.5
20
320
11
334.5
21
320
0
LINE
8
left_outsideCutPath
10
334.5
20
320
11
334.5
21
323
0
LINE
8
left_outsideCutPath
10
334.5
20
323
11
310.5
21
323
0
LINE
8
left_outsideCutPath
10
310.5
20
323
11
310.5
21
320
0
LINE
8
left_outsideCutPath
10
310.5
20
320
11
286.5
21
320
0
LINE
8
left_outsideCutPath
10
286.5
20
320
11
286.5
21
323
0
LINE
8
left_outsideCutPath
10
286.5
20
323
11
262.5
21
323
0
LINE
8
left_outsideCutPath
10
262.5
20
323
11
261
21
323
0
LINE
8
left_labelLayer
10
306.5450684
20
172.8579391
11
306.5450684
21
153.255986
0
LINE
8
left_labelLayer
10
306.5450684
20
153.255986
11
304.4538574
21
153.255986
0
LINE
8
left_labelLayer
10
304.4538574
20
153.255986
11
304.4538574
21
172.8579391
0
LINE
8
left_labelLayer
10
304.4538574
20
172.8579391
11
306.5450684
21
172.8579391
0
LINE
8
left_labelLayer
10
321.8890137
20
161.1043259
11
321.8890137
21
159.7815719
0
LINE
8
left_labelLayer
10
321.8890137
20
159.7815719
11
312.3777832
21
159.7815719
0
LINE
8
left_labelLayer
10
321.2969238
20
155.7629196
11
321.2969238
21
153.8984665
0
LINE
8
left_labelLayer
10
312.4281738
20
161.4822555
11
319.6466309
21
161.4822555
0
ARC
8
left_labelLayer
10
316.7433977
20
161.1300872
40
8.1263452
50
256.0087828
51
270.4848101
0
ARC
8
left_labelLayer
10
316.1516387
20
158.8327636
40
5.7541361
50
223.5465759
51
256.1957019
0
ARC
8
left_labelLayer
10
316.4780848
20
159.0700294
40
6.1544394
50
194.0877283
51
223.0538151
0
ARC
8
left_labelLayer
10
319.4692054
20
159.8879922
40
9.2549281
50
181.3574497
51
194.4920018
0
ARC
8
left_labelLayer
10
322.1558723
20
160.0437635
40
11.9448861
50
179.9886835
51
181.7991376
0
ARC
8
left_labelLayer
10
321.1916286
20
160.119784
40
10.9808894
50
168.9539194
51
180.3843505
0
ARC
8
left_labelLayer
10
317.6053326
20
160.8500158
40
7.3211836
50
149.4071006
51
169.185371
0
ARC
8
left_labelLayer
10
316.6061189
20
161.377957
40
6.1926041
50
140.105603
51
148.9067295
0
ARC
8
left_labelLayer
10
315.9922447
20
161.9439212
40
5.3587806
50
92.4762704
51
140.5386326
0
ARC
8
left_labelLayer
10
316.2657932
20
159.9223304
40
7.3926415
50
89.9638383
51
93.9175977
0
ARC
8
left_labelLayer
10
316.3310609
20
160.9441426
40
6.371116
50
74.2125796
51
90.5450042
0
ARC
8
left_labelLayer
10
316.7301041
20
162.414387
40
4.8477919
50
41.2064632
51
74.0232698
0
ARC
8
left_labelLayer
10
315.9743957
20
161.7603761
40
5.8471907
50
11.5994176
51
41.1496065
0
ARC
8
left_labelLayer
10
313.3778062
20
161.1615513
40
8.5113998
50
359.6147756
51
12.0336419
0
ARC
8
left_labelLayer
10
320.7694613
20
159.9492519
40
8.3933532
50
181.1447145
51
190.8007112
0
ARC
8
left_labelLayer
10
317.8083765
20
159.3652418
40
5.3753175
50
190.6005736
51
206.0275238
0
ARC
8
left_labelLayer
10
316.4982922
20
158.7458923
40
3.9263679
50
206.2950307
51
222.5557981
0
ARC
8
left_labelLayer
10
316.3822065
20
158.6851118
40
3.7999005
50
223.0645074
51
258.1401394
0
ARC
8
left_labelLayer
10
316.8443399
20
160.5879955
40
5.757466
50
257.5311889
51
270.4319439
0
ARC
8
left_labelLayer
10
316.8494983
20
165.875468
40
11.0448411
50
270.1984032
51
292.2090374
0
ARC
8
left_labelLayer
10
316.3191058
20
167.3986987
40
12.6558298
50
291.8254974
51
293.1613713
0
ARC
8
left_labelLayer
10
316.293717
20
165.4126554
40
12.5542274
50
287.9022891
51
293.4861672
0
ARC
8
left_labelLayer
10
317.2043982
20
162.6028753
40
9.6005528
50
281.993586
51
287.885122
0
ARC
8
left_labelLayer
10
317.4251167
20
161.8095777
40
8.7788549
50
275.905455
51
281.6603931
0
ARC
8
left_labelLayer
10
316.9832798
20
165.933672
40
12.9265309
50
271.9119639
51
275.972719
0
ARC
8
left_labelLayer
10
316.8219949
20
170.0417984
40
17.0377682
50
269.9669204
51
271.9931168
0
ARC
8
left_labelLayer
10
316.2051351
20
161.4418261
40
4.1222654
50
89.4422405
51
106.2089618
0
ARC
8
left_labelLayer
10
315.9571373
20
162.3460694
40
3.1847714
50
106.4657193
51
137.9176291
0
ARC
8
left_labelLayer
10
316.6681558
20
161.7216765
40
4.1309644
50
138.099465
51
160.5866384
0
ARC
8
left_labelLayer
10
318.4958421
20
161.049301
40
6.0782813
50
160.335338
51
172.5315168
0
ARC
8
left_labelLayer
10
320.2955729
20
160.7609417
40
7.9003962
50
172.1545228
51
174.7615444
0
ARC
8
left_labelLayer
10
312.520636
20
161.5227366
40
7.1261099
50
359.6745196
51
8.9224465
0
ARC
8
left_labelLayer
10
315.0669577
20
161.9376187
40
4.5462781
50
8.7342399
51
23.2771929
0
ARC
8
left_labelLayer
10
316.2757991
20
162.4450583
40
3.2353228
50
23.4821594
51
39.707213
0
ARC
8
left_labelLayer
10
316.572733
20
162.6672617
40
2.8649895
50
40.0822953
51
80.6243199
0
ARC
8
left_labelLayer
10
316.2670909
20
161.2662056
40
4.2977462
50
79.6468394
51
90.2909927
0
LINE
8
left_labelLayer
10
331.6773926
20
167.0630173
11
331.6773926
21
165.4379196
0
LINE
8
left_labelLayer
10
331.6773926
20
165.4379196
11
328.1626465
21
165.4379196
0
LINE
8
left_labelLayer
10
328.1626465
20
165.4379196
11
328.1626465
21
153.255986
0
LINE
8
left_labelLayer
10
328.1626465
20
153.255986
11
326.0714355
21
153.255986
0
LINE
8
left_labelLayer
10
326.0714355
20
153.255986
11
326.0714355
21
165.4379196
0
LINE
8
left_labelLayer
10
326.0714355
20
165.4379196
11
323.6022949
21
165.4379196
0
LINE
8
left_labelLayer
10
323.6022949
20
165.4379196
11
323.6022949
21
166.3827438
0
LINE
8
left_labelLayer
10
323.6022949
20
166.3827438
11
326.0714355
21
167.1386032
0
LINE
8
left_labelLayer
10
326.0714355
20
167.1386032
11
326.0714355
21
167.9070602
0
LINE
8
left_labelLayer
10
333.0883301
20
172.5555954
11
332.5466309
21
170.8801071
0
LINE
8
left_labelLayer
10
328.1626465
20
167.9574509
11
328.1626465
21
167.0630173
0
LINE
8
left_labelLayer
10
328.1626465
20
167.0630173
11
331.6773926
21
167.0630173
0
ARC
8
left_labelLayer
10
334.546387
20
168.0044926
40
8.4755115
50
167.5776033
51
180.6586724
0
ARC
8
left_labelLayer
10
330.5609191
20
168.9336724
40
4.3837539
50
141.7433785
51
168.2322152
0
ARC
8
left_labelLayer
10
329.9120079
20
169.2723549
40
3.6670096
50
98.2551573
51
139.6203292
0
ARC
8
left_labelLayer
10
330.4817641
20
166.6403005
40
6.3563186
50
89.6696883
51
99.931437
0
ARC
8
left_labelLayer
10
330.4833536
20
166.2624359
40
6.7341687
50
81.5640753
51
89.7017461
0
ARC
8
left_labelLayer
10
330.0099166
20
162.9594852
40
10.0708512
50
75.9740077
51
81.6564636
0
ARC
8
left_labelLayer
10
329.1974638
20
159.5896381
40
13.537167
50
73.2963811
51
76.0946031
0
ARC
8
left_labelLayer
10
329.4020939
20
161.2243949
40
10.1548457
50
71.9613326
51
76.5918333
0
ARC
8
left_labelLayer
10
330.1899118
20
164.5663898
40
6.7212653
50
76.5183567
51
83.0216739
0
ARC
8
left_labelLayer
10
330.4643411
20
166.7732996
40
4.4973644
50
83.0760772
51
89.7926692
0
ARC
8
left_labelLayer
10
330.4553103
20
168.4505241
40
2.8202239
50
89.4858963
51
103.4197295
0
ARC
8
left_labelLayer
10
330.2010477
20
169.4273761
40
1.811151
50
102.7677325
51
144.3380215
0
ARC
8
left_labelLayer
10
330.7132841
20
169.0977993
40
2.4196686
50
145.0688646
51
162.1801742
0
ARC
8
left_labelLayer
10
332.4695726
20
168.5068968
40
4.272601
50
161.843776
51
171.7846918
0
ARC
8
left_labelLayer
10
335.3340603
20
168.076657
40
7.1691911
50
171.6527573
51
178.4383566
0
ARC
8
left_labelLayer
10
338.036041
20
167.9614436
40
9.8733952
50
178.1973265
51
180.0231703
0
LINE
8
left_labelLayer
10
340.5461426
20
154.9818649
11
340.5461426
21
153.3819626
0
LINE
8
left_labelLayer
10
334.3480957
20
157.2242477
11
334.3480957
21
165.4379196
0
LINE
8
left_labelLayer
10
334.3480957
20
165.4379196
11
332.3702637
21
165.4379196
0
LINE
8
left_labelLayer
10
332.3702637
20
165.4379196
11
332.3702637
21
166.4457321
0
LINE
8
left_labelLayer
10
332.3702637
20
166.4457321
11
334.3480957
21
167.3149704
0
LINE
8
left_labelLayer
10
334.3480957
20
167.3149704
11
335.2299316
21
170.2628219
0
LINE
8
left_labelLayer
10
335.2299316
20
170.2628219
11
336.4393066
21
170.2628219
0
LINE
8
left_labelLayer
10
336.4393066
20
170.2628219
11
336.4393066
21
167.0630173
0
LINE
8
left_labelLayer
10
336.4393066
20
167.0630173
11
340.4453613
21
167.0630173
0
LINE
8
left_labelLayer
10
340.4453613
20
167.0630173
11
340.4453613
21
165.4379196
0
LINE
8
left_labelLayer
10
340.4453613
20
165.4379196
11
336.4393066
21
165.4379196
0
LINE
8
left_labelLayer
10
336.4393066
20
165.4379196
11
336.4393066
21
157.3124313
0
ARC
8
left_labelLayer
10
338.6708367
20
161.5977104
40
6.8678136
50
269.8803449
51
278.3028339
0
ARC
8
left_labelLayer
10
338.7354334
20
161.0685847
40
6.334918
50
278.4157883
51
279.0078934
0
ARC
8
left_labelLayer
10
337.9656468
20
165.9861722
40
11.3123859
50
278.9589836
51
280.5104587
0
ARC
8
left_labelLayer
10
338.6999475
20
162.0461887
40
7.3045622
50
280.4848235
51
282.6267929
0
ARC
8
left_labelLayer
10
339.3440588
20
159.184553
40
4.3713348
50
282.5877218
51
285.5794818
0
ARC
8
left_labelLayer
10
339.6650908
20
158.0034819
40
3.1474468
50
285.7245512
51
286.2557796
0
ARC
8
left_labelLayer
10
339.6669324
20
155.241544
40
2.0569525
50
287.988881
51
295.3047861
0
ARC
8
left_labelLayer
10
339.1708378
20
156.7424585
40
3.6377165
50
283.3069135
51
288.1198095
0
ARC
8
left_labelLayer
10
338.6467293
20
158.9286876
40
5.8858843
50
280.0069914
51
283.3734838
0
ARC
8
left_labelLayer
10
338.2956473
20
160.834138
40
7.8233669
50
279.1864412
51
280.1141654
0
ARC
8
left_labelLayer
10
338.0808223
20
162.0559544
40
9.0638247
50
275.5260448
51
279.2939655
0
ARC
8
left_labelLayer
10
338.3233838
20
159.5224019
40
6.518689
50
270.8932318
51
275.5483907
0
ARC
8
left_labelLayer
10
338.3538709
20
158.3621585
40
5.3581256
50
270.002989
51
270.7606774
0
ARC
8
left_labelLayer
10
338.2697641
20
158.465318
40
5.461937
50
253.78479
51
270.8852479
0
ARC
8
left_labelLayer
10
337.6226694
20
156.2584802
40
3.1621938
50
190.3817654
51
253.8772399
0
ARC
8
left_labelLayer
10
340.9209033
20
157.1502639
40
6.573224
50
179.3551029
51
192.8477582
0
ARC
8
left_labelLayer
10
340.6502353
20
157.2860957
40
4.211011
50
179.64167
51
189.7505899
0
ARC
8
left_labelLayer
10
339.1636667
20
157.0209488
40
2.7010287
50
189.5479693
51
205.7873584
0
ARC
8
left_labelLayer
10
338.5527438
20
156.7392334
40
2.0284256
50
206.1294397
51
221.4084273
0
ARC
8
left_labelLayer
10
338.4842477
20
156.6872594
40
1.9426863
50
221.5949306
51
262.3505107
0
ARC
8
left_labelLayer
10
338.6471623
20
157.5250304
40
2.7951343
50
261.3266211
51
270.1912871
0
LINE
8
top_outsideCutPath
10
393
20
129
11
393
21
103.5
0
LINE
8
top_outsideCutPath
10
393
20
103.5
11
390
21
103.5
0
LINE
8
top_outsideCutPath
10
390
20
103.5
11
390
21
79.5
0
LINE
8
top_outsideCutPath
10
390
20
79.5
11
393
21
79.5
0
LINE
8
top_outsideCutPath
10
393
20
79.5
11
393
21
55.5
0
LINE
8
top_outsideCutPath
10
393
20
55.5
11
390
21
55.5
0
LINE
8
top_outsideCutPath
10
390
20
55.5
11
390
21
31.5
0
LINE
8
top_outsideCutPath
10
390
20
31.5
11
393
21
31.5
0
LINE
8
top_outsideCutPath
10
393
20
31.5
11
393
21
7.5
0
LINE
8
top_outsideCutPath
10
393
20
7.5
11
393
21
6
0
LINE
8
top_outsideCutPath
10
393
20
6
11
409.5
21
6
0
LINE
8
top_outsideCutPath
10
409.5
20
6
11
409.5
21
3
0
LINE
8
top_outsideCutPath
10
409.5
20
3
11
433.5
21
3
0
LINE
8
top_outsideCutPath
10
433.5
20
3
11
433.5
21
6
0
LINE
8
top_outsideCutPath
10
433.5
20
6
11
457.5
21
6
0
LINE
8
top_outsideCutPath
10
457.5
20
6
11
457.5
21
3
0
LINE
8
top_outsideCutPath
10
457.5
20
3
11
481.5
21
3
0
LINE
8
top_outsideCutPath
10
481.5
20
3
11
481.5
21
6
0
LINE
8
top_outsideCutPath
10
481.5
20
6
11
505.5
21
6
0
LINE
8
top_outsideCutPath
10
505.5
20
6
11
505.5
21
3
0
LINE
8
top_outsideCutPath
10
505.5
20
3
11
529.5
21
3
0
LINE
8
top_outsideCutPath
10
529.5
20
3
11
529.5
21
6
0
LINE
8
top_outsideCutPath
10
529.5
20
6
11
553.5
21
6
0
LINE
8
top_outsideCutPath
10
553.5
20
6
11
553.5
21
3
0
LINE
8
top_outsideCutPath
10
553.5
20
3
11
577.5
21
3
0
LINE
8
top_outsideCutPath
10
577.5
20
3
11
577.5
21
6
0
LINE
8
top_outsideCutPath
10
577.5
20
6
11
601.5
21
6
0
LINE
8
top_outsideCutPath
10
601.5
20
6
11
601.5
21
3
0
LINE
8
top_outsideCutPath
10
601.5
20
3
11
625.5
21
3
0
LINE
8
top_outsideCutPath
10
625.5
20
3
11
625.5
21
6
0
LINE
8
top_outsideCutPath
10
625.5
20
6
11
642
21
6
0
LINE
8
top_outsideCutPath
10
642
20
6
11
642
21
31.5
0
LINE
8
top_outsideCutPath
10
642
20
31.5
11
645
21
31.5
0
LINE
8
top_outsideCutPath
10
645
20
31.5
11
645
21
55.5
0
LINE
8
top_outsideCutPath
10
645
20
55.5
11
642
21
55.5
0
LINE
8
top_outsideCutPath
10
642
20
55.5
11
642
21
79.5
0
LINE
8
top_outsideCutPath
10
642
20
79.5
11
645
21
79.5
0
LINE
8
top_outsideCutPath
10
645
20
79.5
11
645
21
103.5
0
LINE
8
top_outsideCutPath
10
645
20
103.5
11
642
21
103.5
0
LINE
8
top_outsideCutPath
10
642
20
103.5
11
642
21
127.5
0
LINE
8
top_outsideCutPath
10
642
20
127.5
11
642
21
129
0
LINE
8
top_outsideCutPath
10
642
20
129
11
625.5
21
129
0
LINE
8
top_outsideCutPath
10
625.5
20
129
11
625.5
21
132
0
LINE
8
top_outsideCutPath
10
625.5
20
132
11
601.5
21
132
0
LINE
8
top_outsideCutPath
10
601.5
20
132
11
601.5
21
129
0
LINE
8
top_outsideCutPath
10
601.5
20
129
11
577.5
21
129
0
LINE
8
top_outsideCutPath
10
577.5
20
129
11
577.5
21
132
0
LINE
8
top_outsideCutPath
10
577.5
20
132
11
553.5
21
132
0
LINE
8
top_outsideCutPath
10
553.5
20
132
11
553.5
21
129
0
LINE
8
top_outsideCutPath
10
553.5
20
129
11
529.5
21
129
0
LINE
8
top_outsideCutPath
10
529.5
20
129
11
529.5
21
132
0
LINE
8
top_outsideCutPath
10
529.5
20
132
11
505.5
21
132
0
LINE
8
top_outsideCutPath
10
505.5
20
132
11
505.5
21
129
0
LINE
8
top_outsideCutPath
10
505.5
20
129
11
481.5
21
129
0
LINE
8
top_outsideCutPath
10
481.5
20
129
11
481.5
21
132
0
LINE
8
top_outsideCutPath
10
481.5
20
132
11
457.5
21
132
0
LINE
8
top_outsideCutPath
10
457.5
20
132
11
457.5
21
129
0
LINE
8
top_outsideCutPath
10
457.5
20
129
11
433.5
21
129
0
LINE
8
top_outsideCutPath
10
433.5
20
129
11
433.5
21
132
0
LINE
8
top_outsideCutPath
10
433.5
20
132
11
409.5
21
132
0
LINE
8
top_outsideCutPath
10
409.5
20
132
11
409.5
21
129
0
LINE
8
top_outsideCutPath
10
409.5
20
129
11
393
21
129
0
LINE
8
top_labelLayer
10
506.3383699
20
63.8214844
11
506.3383699
21
62.221582
0
LINE
8
top_labelLayer
10
500.140323
20
66.0638672
11
500.140323
21
74.2775391
0
LINE
8
top_labelLayer
10
500.140323
20
74.2775391
11
498.162491
21
74.2775391
0
LINE
8
top_labelLayer
10
498.162491
20
74.2775391
11
498.162491
21
75.2853516
0
LINE
8
top_labelLayer
10
498.162491
20
75.2853516
11
500.140323
21
76.1545898
0
LINE
8
top_labelLayer
10
500.140323
20
76.1545898
11
501.0221589
21
79.1024414
0
LINE
8
top_labelLayer
10
501.0221589
20
79.1024414
11
502.2315339
21
79.1024414
0
LINE
8
top_labelLayer
10
502.2315339
20
79.1024414
11
502.2315339
21
75.9026367
0
LINE
8
top_labelLayer
10
502.2315339
20
75.9026367
11
506.2375886
21
75.9026367
0
LINE
8
top_labelLayer
10
506.2375886
20
75.9026367
11
506.2375886
21
74.2775391
0
LINE
8
top_labelLayer
10
506.2375886
20
74.2775391
11
502.2315339
21
74.2775391
0
LINE
8
top_labelLayer
10
502.2315339
20
74.2775391
11
502.2315339
21
66.1520508
0
ARC
8
top_labelLayer
10
504.463064
20
70.4373299
40
6.8678136
50
269.8803449
51
278.3028339
0
ARC
8
top_labelLayer
10
504.5276607
20
69.9082042
40
6.334918
50
278.4157883
51
279.0078934
0
ARC
8
top_labelLayer
10
503.7578741
20
74.8257916
40
11.3123859
50
278.9589836
51
280.5104587
0
ARC
8
top_labelLayer
10
504.4921748
20
70.8858081
40
7.3045622
50
280.4848235
51
282.6267929
0
ARC
8
top_labelLayer
10
505.1362861
20
68.0241724
40
4.3713348
50
282.5877218
51
285.5794818
0
ARC
8
top_labelLayer
10
505.4573181
20
66.8431014
40
3.1474468
50
285.7245512
51
286.2557796
0
ARC
8
top_labelLayer
10
505.4591597
20
64.0811634
40
2.0569525
50
287.988881
51
295.3047861
0
ARC
8
top_labelLayer
10
504.9630651
20
65.5820779
40
3.6377165
50
283.3069135
51
288.1198095
0
ARC
8
top_labelLayer
10
504.4389566
20
67.7683071
40
5.8858843
50
280.0069914
51
283.3734838
0
ARC
8
top_labelLayer
10
504.0878746
20
69.6737574
40
7.8233669
50
279.1864412
51
280.1141654
0
ARC
8
top_labelLayer
10
503.8730496
20
70.8955738
40
9.0638247
50
275.5260448
51
279.2939655
0
ARC
8
top_labelLayer
10
504.1156111
20
68.3620214
40
6.518689
50
270.8932318
51
275.5483907
0
ARC
8
top_labelLayer
10
504.1460982
20
67.201778
40
5.3581256
50
270.002989
51
270.7606774
0
ARC
8
top_labelLayer
10
504.0619914
20
67.3049375
40
5.461937
50
253.78479
51
270.8852479
0
ARC
8
top_labelLayer
10
503.4148967
20
65.0980997
40
3.1621938
50
190.3817654
51
253.8772399
0
ARC
8
top_labelLayer
10
506.7131306
20
65.9898833
40
6.573224
50
179.3551029
51
192.8477582
0
ARC
8
top_labelLayer
10
506.4424626
20
66.1257151
40
4.211011
50
179.64167
51
189.7505899
0
ARC
8
top_labelLayer
10
504.955894
20
65.8605683
40
2.7010287
50
189.5479693
51
205.7873584
0
ARC
8
top_labelLayer
10
504.344971
20
65.5788528
40
2.0284256
50
206.1294397
51
221.4084273
0
ARC
8
top_labelLayer
10
504.276475
20
65.5268788
40
1.9426863
50
221.5949306
51
262.3505107
0
ARC
8
top_labelLayer
10
504.4393896
20
66.3646499
40
2.7951343
50
261.3266211
51
270.1912871
0
ARC
8
top_labelLayer
10
510.2129364
20
68.9388962
40
10.8019485
50
349.1761839
51
0.3862689
0
ARC
8
top_labelLayer
10
513.8496865
20
68.2139016
40
7.0938123
50
330.2507121
51
349.411646
0
ARC
8
top_labelLayer
10
514.9688886
20
67.6321883
40
5.8336828
50
318.1439873
51
329.7566028
0
ARC
8
top_labelLayer
10
515.1709037
20
67.4702936
40
5.5752092
50
278.8959138
51
317.9979137
0
ARC
8
top_labelLayer
10
514.6504212
20
69.9639619
40
8.1203868
50
269.7502863
51
279.8033333
0
ARC
8
top_labelLayer
10
514.5660085
20
68.5589363
40
6.7154629
50
253.5436937
51
270.4182512
0
ARC
8
top_labelLayer
10
514.3424659
20
67.6942144
40
5.8229176
50
238.8115539
51
253.2428285
0
ARC
8
top_labelLayer
10
514.2703202
20
67.5491291
40
5.6614566
50
207.7947066
51
238.6757922
0
ARC
8
top_labelLayer
10
515.3055773
20
68.183172
40
6.8733714
50
205.6560234
51
208.4461228
0
ARC
8
top_labelLayer
10
516.1029415
20
68.5154049
40
7.7361045
50
188.9102454
51
205.3171489
0
ARC
8
top_labelLayer
10
518.7901836
20
68.9705387
40
10.4614651
50
179.7744627
51
189.0932945
0
ARC
8
top_labelLayer
10
519.1866129
20
69.0852622
40
10.8580624
50
169.2442989
51
180.3880768
0
ARC
8
top_labelLayer
10
515.4992968
20
69.8141105
40
7.0995616
50
150.7111455
51
169.4695438
0
ARC
8
top_labelLayer
10
514.3221995
20
70.4185917
40
5.777424
50
138.1759463
51
150.2287277
0
ARC
8
top_labelLayer
10
514.1263908
20
70.5688527
40
5.5313387
50
99.1759316
51
137.9832774
0
ARC
8
top_labelLayer
10
514.6653119
20
68.0326292
40
8.1220489
50
89.7326271
51
100.0759772
0
ARC
8
top_labelLayer
10
514.7730252
20
69.1279377
40
7.0269989
50
73.5222776
51
90.5692296
0
ARC
8
top_labelLayer
10
515.1851168
20
70.6251772
40
5.4744437
50
41.1445628
51
73.2133841
0
ARC
8
top_labelLayer
10
514.3984683
20
69.9490621
40
6.5116938
50
13.5014342
51
41.0703487
0
ARC
8
top_labelLayer
10
511.35926
20
69.1537408
40
9.6528047
50
1.1277144
51
13.8800064
0
ARC
8
top_labelLayer
10
508.7417355
20
69.0134612
40
12.2729039
50
359.9918656
51
1.5419839
0
ARC
8
top_labelLayer
10
521.0853052
20
68.9573728
40
10.5898483
50
179.7059627
51
187.9160805
0
ARC
8
top_labelLayer
10
517.2012723
20
68.3994343
40
6.6660097
50
187.7639201
51
200.097697
0
ARC
8
top_labelLayer
10
515.061586
20
67.6154492
40
4.3872187
50
200.0845911
51
216.9131583
0
ARC
8
top_labelLayer
10
514.2802439
20
67.0575346
40
3.427492
50
217.3009554
51
261.7099058
0
ARC
8
top_labelLayer
10
514.6429703
20
68.7884321
40
5.1937542
50
260.5033218
51
270.2476658
0
ARC
8
top_labelLayer
10
514.7122034
20
68.4518446
40
4.8573433
50
269.4481555
51
284.7255699
0
ARC
8
top_labelLayer
10
515.0967298
20
67.0257601
40
3.3803698
50
284.566235
51
322.6333781
0
ARC
8
top_labelLayer
10
514.1976877
20
67.6752778
40
4.489197
50
323.0089226
51
342.6390574
0
ARC
8
top_labelLayer
10
511.6262312
20
68.5157056
40
7.1943681
50
342.3615615
51
353.7537609
0
ARC
8
top_labelLayer
10
507.832463
20
68.9729949
40
11.0154476
50
353.5363083
51
0.2014187
0
ARC
8
top_labelLayer
10
508.4137128
20
69.0649746
40
10.4342656
50
359.7075646
51
7.8972639
0
ARC
8
top_labelLayer
10
512.2350378
20
69.6127954
40
6.5739364
50
7.7439934
51
20.069021
0
ARC
8
top_labelLayer
10
514.3644224
20
70.3941988
40
4.3057094
50
20.0257181
51
37.4350489
0
ARC
8
top_labelLayer
10
515.07094
20
70.8955332
40
3.4401053
50
37.9577632
51
80.4006252
0
ARC
8
top_labelLayer
10
514.6694504
20
69.1041198
40
5.2742813
50
79.3453601
51
90.3174803
0
ARC
8
top_labelLayer
10
514.5951087
20
69.401687
40
4.9768378
50
89.4805879
51
103.8805004
0
ARC
8
top_labelLayer
10
514.1769261
20
70.9941259
40
3.330666
50
103.4685228
51
142.3118958
0
ARC
8
top_labelLayer
10
514.9899067
20
70.42238
40
4.3237926
50
142.9025771
51
162.3749686
0
ARC
8
top_labelLayer
10
517.5516139
20
69.5686962
40
7.0238358
50
162.0653088
51
173.1674776
0
ARC
8
top_labelLayer
10
521.5459998
20
69.0592383
40
11.0505054
50
173.0086254
51
180.2463849
0
LINE
8
top_labelLayer
10
526.7717683
20
63.871875
11
526.6205964
21
63.871875
0
LINE
8
top_labelLayer
10
526.7717683
20
61.5791016
11
526.7717683
21
55.8975586
0
LINE
8
top_labelLayer
10
526.7717683
20
55.8975586
11
524.6805574
21
55.8975586
0
LINE
8
top_labelLayer
10
524.6805574
20
55.8975586
11
524.6805574
21
75.9026367
0
LINE
8
top_labelLayer
10
524.6805574
20
75.9026367
11
526.381241
21
75.9026367
0
LINE
8
top_labelLayer
10
526.381241
20
75.9026367
11
526.6709871
21
74.0129883
0
LINE
8
top_labelLayer
10
526.6709871
20
74.0129883
11
526.7717683
21
74.0129883
0
LINE
8
top_labelLayer
10
526.7717683
20
69.477832
11
526.7717683
21
69.0117188
0
ARC
8
top_labelLayer
10
531.070096
20
68.1866479
40
6.3430936
50
255.7755402
51
270.3185524
0
ARC
8
top_labelLayer
10
530.8890836
20
67.3824259
40
5.5190943
50
245.9801638
51
255.5455737
0
ARC
8
top_labelLayer
10
530.5384754
20
66.5670826
40
4.6316546
50
215.5850143
51
245.8361619
0
ARC
8
top_labelLayer
10
506.9862166
20
61.3907458
40
19.7905248
50
2.9503225
51
7.2020974
0
ARC
8
top_labelLayer
10
510.1883776
20
61.5698944
40
16.5833934
50
0.0318107
51
2.9016217
0
ARC
8
top_labelLayer
10
531.3782823
20
70.77783
40
5.6290514
50
132.3565001
51
144.9196026
0
ARC
8
top_labelLayer
10
530.5159634
20
71.7185945
40
4.3528786
50
115.4006078
51
132.3118373
0
ARC
8
top_labelLayer
10
530.8523274
20
70.8997579
40
5.2370549
50
97.706621
51
114.8821579
0
ARC
8
top_labelLayer
10
531.0872436
20
69.3762377
40
6.7783765
50
89.8468491
51
97.9474332
0
ARC
8
top_labelLayer
10
531.1700835
20
69.7448131
40
6.4101035
50
74.1923603
51
90.5785135
0
ARC
8
top_labelLayer
10
531.6136277
20
71.3571908
40
4.7378944
50
38.0523378
51
74.0417364
0
ARC
8
top_labelLayer
10
530.3902548
20
70.4195279
40
6.2792143
50
16.3356047
51
37.9090518
0
ARC
8
top_labelLayer
10
527.1764295
20
69.4296503
40
9.6418254
50
4.5766615
51
16.6088766
0
ARC
8
top_labelLayer
10
523.2198774
20
69.0354071
40
13.6174389
50
359.9003303
51
4.901827
0
ARC
8
top_labelLayer
10
524.5762585
20
68.9393794
40
12.2612506
50
350.6562816
51
0.3380376
0
ARC
8
top_labelLayer
10
528.8507268
20
68.2123394
40
7.92549
50
335.8305939
51
350.8254827
0
ARC
8
top_labelLayer
10
530.7309918
20
67.4007898
40
5.8778473
50
321.3161476
51
335.5436206
0
ARC
8
top_labelLayer
10
531.4498288
20
66.8150469
40
4.9506221
50
274.0640034
51
321.4081023
0
ARC
8
top_labelLayer
10
531.1149465
20
68.9362976
40
7.0926518
50
269.9225753
51
275.5481777
0
ARC
8
top_labelLayer
10
530.7599465
20
68.3528815
40
6.0255927
50
89.5904384
51
100.3501841
0
ARC
8
top_labelLayer
10
530.330276
20
70.6101119
40
3.7279352
50
100.0868122
51
118.191801
0
ARC
8
top_labelLayer
10
529.8901155
20
71.4685675
40
2.7634307
50
118.55694
51
141.0243417
0
ARC
8
top_labelLayer
10
530.5608347
20
70.9954526
40
3.5828494
50
141.8890442
51
160.5973101
0
ARC
8
top_labelLayer
10
532.918018
20
70.1305344
40
6.0935797
50
160.2895802
51
171.2452862
0
ARC
8
top_labelLayer
10
536.7936611
20
69.5056594
40
10.0192149
50
171.0868611
51
178.3247457
0
ARC
8
top_labelLayer
10
540.0802393
20
69.3494619
40
13.3090902
50
178.0662326
51
179.4473567
0
ARC
8
top_labelLayer
10
540.5986038
20
68.9577289
40
13.826941
50
179.7762773
51
185.7075245
0
ARC
8
top_labelLayer
10
535.147139
20
68.3960367
40
8.346658
50
185.5924949
51
194.2050589
0
ARC
8
top_labelLayer
10
531.6549717
20
67.4896999
40
4.7389092
50
193.9430455
51
208.0218349
0
ARC
8
top_labelLayer
10
530.2420428
20
66.7709056
40
3.1540605
50
208.5536654
51
217.5605163
0
ARC
8
top_labelLayer
10
530.1269187
20
66.7230215
40
3.0337814
50
218.1690587
51
253.8047126
0
ARC
8
top_labelLayer
10
530.6896251
20
68.4579006
40
4.857089
50
253.1382348
51
266.8483151
0
ARC
8
top_labelLayer
10
530.8474146
20
70.3187107
40
6.7239867
50
266.3775666
51
270.0510781
0
ARC
8
top_labelLayer
10
530.9010264
20
67.1180157
40
3.5236109
50
269.2256917
51
292.0430355
0
ARC
8
top_labelLayer
10
530.9485695
20
66.834684
40
3.2437447
50
293.1429605
51
324.1353913
0
ARC
8
top_labelLayer
10
530.2418564
20
67.4329911
40
4.1676007
50
323.1616222
51
325.0151616
0
ARC
8
top_labelLayer
10
529.4858137
20
67.9017401
40
5.0560327
50
325.5753937
51
344.1504656
0
ARC
8
top_labelLayer
10
526.8694426
20
68.6751664
40
7.7842233
50
343.9336246
51
355.1137514
0
ARC
8
top_labelLayer
10
523.5295013
20
69.014073
40
11.1410207
50
354.8402264
51
0.1174667
0
ARC
8
top_labelLayer
10
524.11776
20
69.0901724
40
10.5528731
50
359.7108378
51
7.8610485
0
ARC
8
top_labelLayer
10
527.9547814
20
69.6371307
40
6.6771232
50
7.7149618
51
19.8859683
0
ARC
8
top_labelLayer
10
530.0650366
20
70.3993635
40
4.4334266
50
19.8991481
51
35.8980007
0
ARC
8
top_labelLayer
10
531.0063155
20
71.1122139
40
3.2530569
50
35.4481657
51
85.2266528
0
ARC
8
top_labelLayer
10
530.8096806
20
69.8791333
40
4.4991919
50
84.0378753
51
90.0848428
0
LINE
8
back_outsideCutPath
10
0
20
646
11
0
21
618
0
LINE
8
back_outsideCutPath
10
0
20
618
11
3
21
618
0
LINE
8
back_outsideCutPath
10
3
20
618
11
3
21
594
0
LINE
8
back_outsideCutPath
10
3
20
594
11
0
21
594
0
LINE
8
back_outsideCutPath
10
0
20
594
11
0
21
570
0
LINE
8
back_outsideCutPath
10
0
20
570
11
3
21
570
0
LINE
8
back_outsideCutPath
10
3
20
570
11
3
21
546
0
LINE
8
back_outsideCutPath
10
3
20
546
11
0
21
546
0
LINE
8
back_outsideCutPath
10
0
20
546
11
0
21
522
0
LINE
8
back_outsideCutPath
10
0
20
522
11
3
21
522
0
LINE
8
back_outsideCutPath
10
3
20
522
11
3
21
498
0
LINE
8
back_outsideCutPath
10
3
20
498
11
0
21
498
0
LINE
8
back_outsideCutPath
10
0
20
498
11
0
21
474
0
LINE
8
back_outsideCutPath
10
0
20
474
11
3
21
474
0
LINE
8
back_outsideCutPath
10
3
20
474
11
3
21
450
0
LINE
8
back_outsideCutPath
10
3
20
450
11
0
21
450
0
LINE
8
back_outsideCutPath
10
0
20
450
11
0
21
426
0
LINE
8
back_outsideCutPath
10
0
20
426
11
3
21
426
0
LINE
8
back_outsideCutPath
10
3
20
426
11
3
21
402
0
LINE
8
back_outsideCutPath
10
3
20
402
11
0
21
402
0
LINE
8
back_outsideCutPath
10
0
20
402
11
0
21
378
0
LINE
8
back_outsideCutPath
10
0
20
378
11
3
21
378
0
LINE
8
back_outsideCutPath
10
3
20
378
11
3
21
354
0
LINE
8
back_outsideCutPath
10
3
20
354
11
0
21
354
0
LINE
8
back_outsideCutPath
10
0
20
354
11
0
21
326
0
LINE
8
back_outsideCutPath
10
0
20
326
11
19.5
21
326
0
LINE
8
back_outsideCutPath
10
19.5
20
326
11
19.5
21
329
0
LINE
8
back_outsideCutPath
10
19.5
20
329
11
43.5
21
329
0
LINE
8
back_outsideCutPath
10
43.5
20
329
11
43.5
21
326
0
LINE
8
back_outsideCutPath
10
43.5
20
326
11
67.5
21
326
0
LINE
8
back_outsideCutPath
10
67.5
20
326
11
67.5
21
329
0
LINE
8
back_outsideCutPath
10
67.5
20
329
11
91.5
21
329
0
LINE
8
back_outsideCutPath
10
91.5
20
329
11
91.5
21
326
0
LINE
8
back_outsideCutPath
10
91.5
20
326
11
115.5
21
326
0
LINE
8
back_outsideCutPath
10
115.5
20
326
11
115.5
21
329
0
LINE
8
back_outsideCutPath
10
115.5
20
329
11
139.5
21
329
0
LINE
8
back_outsideCutPath
10
139.5
20
329
11
139.5
21
326
0
LINE
8
back_outsideCutPath
10
139.5
20
326
11
163.5
21
326
0
LINE
8
back_outsideCutPath
10
163.5
20
326
11
163.5
21
329
0
LINE
8
back_outsideCutPath
10
163.5
20
329
11
187.5
21
329
0
LINE
8
back_outsideCutPath
10
187.5
20
329
11
187.5
21
326
0
LINE
8
back_outsideCutPath
10
187.5
20
326
11
211.5
21
326
0
LINE
8
back_outsideCutPath
10
211.5
20
326
11
211.5
21
329
0
LINE
8
back_outsideCutPath
10
211.5
20
329
11
235.5
21
329
0
LINE
8
back_outsideCutPath
10
235.5
20
329
11
235.5
21
326
0
LINE
8
back_outsideCutPath
10
235.5
20
326
11
255
21
326
0
LINE
8
back_outsideCutPath
10
255
20
326
11
255
21
354
0
LINE
8
back_outsideCutPath
10
255
20
354
11
252
21
354
0
LINE
8
back_outsideCutPath
10
252
20
354
11
252
21
378
0
LINE
8
back_outsideCutPath
10
252
20
378
11
255
21
378
0
LINE
8
back_outsideCutPath
10
255
20
378
11
255
21
402
0
LINE
8
back_outsideCutPath
10
255
20
402
11
252
21
402
0
LINE
8
back_outsideCutPath
10
252
20
402
11
252
21
426
0
LINE
8
back_outsideCutPath
10
252
20
426
11
255
21
426
0
LINE
8
back_outsideCutPath
10
255
20
426
11
255
21
450
0
LINE
8
back_outsideCutPath
10
255
20
450
11
252
21
450
0
LINE
8
back_outsideCutPath
10
252
20
450
11
252
21
474
0
LINE
8
back_outsideCutPath
10
252
20
474
11
255
21
474
0
LINE
8
back_outsideCutPath
10
255
20
474
11
255
21
498
0
LINE
8
back_outsideCutPath
10
255
20
498
11
252
21
498
0
LINE
8
back_outsideCutPath
10
252
20
498
11
252
21
522
0
LINE
8
back_outsideCutPath
10
252
20
522
11
255
21
522
0
LINE
8
back_outsideCutPath
10
255
20
522
11
255
21
546
0
LINE
8
back_outsideCutPath
10
255
20
546
11
252
21
546
0
LINE
8
back_outsideCutPath
10
252
20
546
11
252
21
570
0
LINE
8
back_outsideCutPath
10
252
20
570
11
255
21
570
0
LINE
8
back_outsideCutPath
10
255
20
570
11
255
21
594
0
LINE
8
back_outsideCutPath
10
255
20
594
11
252
21
594
0
LINE
8
back_outsideCutPath
10
252
20
594
11
252
21
618
0
LINE
8
back_outsideCutPath
10
252
20
618
11
255
21
618
0
LINE
8
back_outsideCutPath
10
255
20
618
11
255
21
646
0
LINE
8
back_outsideCutPath
10
255
20
646
11
235.5
21
646
0
LINE
8
back_outsideCutPath
10
235.5
20
646
11
235.5
21
643
0
LINE
8
back_outsideCutPath
10
235.5
20
643
11
211.5
21
643
0
LINE
8
back_outsideCutPath
10
211.5
20
643
11
211.5
21
646
0
LINE
8
back_outsideCutPath
10
211.5
20
646
11
187.5
21
646
0
LINE
8
back_outsideCutPath
10
187.5
20
646
11
187.5
21
643
0
LINE
8
back_outsideCutPath
10
187.5
20
643
11
163.5
21
643
0
LINE
8
back_outsideCutPath
10
163.5
20
643
11
163.5
21
646
0
LINE
8
back_outsideCutPath
10
163.5
20
646
11
139.5
21
646
0
LINE
8
back_outsideCutPath
10
139.5
20
646
11
139.5
21
643
0
LINE
8
back_outsideCutPath
10
139.5
20
643
11
115.5
21
643
0
LINE
8
back_outsideCutPath
10
115.5
20
643
11
115.5
21
646
0
LINE
8
back_outsideCutPath
10
115.5
20
646
11
91.5
21
646
0
LINE
8
back_outsideCutPath
10
91.5
20
646
11
91.5
21
643
0
LINE
8
back_outsideCutPath
10
91.5
20
643
11
67.5
21
643
0
LINE
8
back_outsideCutPath
10
67.5
20
643
11
67.5
21
646
0
LINE
8
back_outsideCutPath
10
67.5
20
646
11
43.5
21
646
0
LINE
8
back_outsideCutPath
10
43.5
20
646
11
43.5
21
643
0
LINE
8
back_outsideCutPath
10
43.5
20
643
11
19.5
21
643
0
LINE
8
back_outsideCutPath
10
19.5
20
643
11
19.5
21
646
0
LINE
8
back_outsideCutPath
10
19.5
20
646
11
0
21
646
0
LINE
8
back_labelLayer
10
78.7661133
20
470.3865118
11
78.4672852
21
470.3865118
0
LINE
8
back_labelLayer
10
78.4672852
20
470.3865118
11
77.5957031
21
466.8752813
0
LINE
8
back_labelLayer
10
77.5957031
20
466.8752813
11
74.6323242
21
466.8752813
0
LINE
8
back_labelLayer
10
74.6323242
20
466.8752813
11
74.6323242
21
505.6233282
0
LINE
8
back_labelLayer
10
74.6323242
20
505.6233282
11
78.7661133
21
505.6233282
0
LINE
8
back_labelLayer
10
78.7661133
20
505.6233282
11
78.7661133
21
496.2102423
0
LINE
8
back_labelLayer
10
78.5668945
20
490.5325079
11
78.7661133
21
490.5325079
0
ARC
8
back_labelLayer
10
87.4565282
20
481.9828119
40
12.6342889
50
74.2393277
51
90.5623811
0
ARC
8
back_labelLayer
10
88.2919502
20
485.0475895
40
9.4578584
50
38.5631282
51
74.0670377
0
ARC
8
back_labelLayer
10
86.1420356
20
483.3759053
40
12.1810571
50
16.4709255
51
38.4075307
0
ARC
8
back_labelLayer
10
79.948437
20
481.4337741
40
18.6714467
50
5.1338474
51
16.7973375
0
ARC
8
back_labelLayer
10
72.1295832
20
480.6032006
40
26.5335629
50
359.8779251
51
5.4093613
0
ARC
8
back_labelLayer
10
74.4261518
20
480.4036736
40
24.2373559
50
350.6562771
51
0.338033
0
ARC
8
back_labelLayer
10
82.8756821
20
478.9664997
40
15.6666665
50
335.8305937
51
350.8254822
0
ARC
8
back_labelLayer
10
86.5924873
20
477.3622726
40
11.6189983
50
321.3161454
51
335.543621
0
ARC
8
back_labelLayer
10
88.0134416
20
476.2044103
40
9.7861143
50
274.0640067
51
321.4081021
0
ARC
8
back_labelLayer
10
87.3514655
20
480.3976259
40
14.0204042
50
269.9225755
51
275.5481595
0
ARC
8
back_labelLayer
10
87.2628081
20
478.9157111
40
12.5386704
50
255.7755341
51
270.3185497
0
ARC
8
back_labelLayer
10
86.9049898
20
477.3259658
40
10.9098302
50
245.9801607
51
255.5455772
0
ARC
8
back_labelLayer
10
86.2119292
20
475.7142482
40
9.1555966
50
215.5850188
51
245.8361662
0
ARC
8
back_labelLayer
10
-7.4204079
20
496.1373863
40
86.186552
50
358.1123231
51
0.0484338
0
ARC
8
back_labelLayer
10
16.5664496
20
495.3320918
40
62.1861868
50
355.7238729
51
358.1258902
0
ARC
8
back_labelLayer
10
27.1085994
20
494.6080563
40
51.6194366
50
355.4715699
51
355.6527944
0
ARC
8
back_labelLayer
10
86.4754495
20
485.1565808
40
9.3986413
50
95.1835125
51
145.1109012
0
ARC
8
back_labelLayer
10
87.3015528
20
480.4981282
40
14.1183979
50
89.8743298
51
96.8145442
0
ARC
8
back_labelLayer
10
86.6483212
20
479.5390898
40
11.616299
50
89.5731393
51
100.7324259
0
ARC
8
back_labelLayer
10
85.7883899
20
483.8837577
40
7.1875805
50
100.4469388
51
119.6700724
0
ARC
8
back_labelLayer
10
84.9909764
20
485.3746172
40
5.4976488
50
120.1402918
51
142.4248974
0
ARC
8
back_labelLayer
10
86.3102347
20
484.5018857
40
7.0763245
50
143.3382359
51
161.2559876
0
ARC
8
back_labelLayer
10
91.8271115
20
482.5432091
40
12.9302688
50
160.8926338
51
171.2334285
0
ARC
8
back_labelLayer
10
101.0369007
20
481.0574536
40
22.2590014
50
171.0667814
51
177.8456906
0
ARC
8
back_labelLayer
10
110.6148469
20
480.5703118
40
31.8487425
50
177.6176607
51
180.042535
0
ARC
8
back_labelLayer
10
106.0982248
20
480.4399421
40
27.3323199
50
179.7762737
51
185.7075221
0
ARC
8
back_labelLayer
10
95.3220437
20
479.329616
40
16.4991724
50
185.5924859
51
194.2050684
0
ARC
8
back_labelLayer
10
88.4189482
20
477.538023
40
9.3676018
50
193.9430397
51
208.0218433
0
ARC
8
back_labelLayer
10
85.6259476
20
476.1171471
40
6.2347582
50
208.5536597
51
217.5605288
0
ARC
8
back_labelLayer
10
85.3983867
20
476.0224977
40
5.9970085
50
218.1690517
51
253.8047141
0
ARC
8
back_labelLayer
10
86.5107164
20
479.4519258
40
9.6012372
50
253.1382456
51
266.8483047
0
ARC
8
back_labelLayer
10
86.8226267
20
483.130285
40
13.29163
50
266.3775603
51
270.0510639
0
ARC
8
back_labelLayer
10
86.9226519
20
478.0788589
40
8.2406705
50
269.3868951
51
285.8630649
0
ARC
8
back_labelLayer
10
87.5348816
20
475.8661753
40
5.9449259
50
286.0162911
51
326.8497314
0
ARC
8
back_labelLayer
10
84.5799382
20
477.8237163
40
9.4894038
50
326.7105067
51
343.6661701
0
ARC
8
back_labelLayer
10
79.0484784
20
479.5139504
40
15.2731052
50
343.4171346
51
353.636915
0
ARC
8
back_labelLayer
10
70.6937279
20
480.5052985
40
23.6863303
50
353.4934831
51
0.2205454
0
ARC
8
back_labelLayer
10
69.9572971
20
480.6953302
40
24.4227858
50
359.7680801
51
6.3095234
0
ARC
8
back_labelLayer
10
79.1568787
20
481.7510388
40
15.1629552
50
6.1648594
51
16.0396473
0
ARC
8
back_labelLayer
10
85.0830765
20
483.4974904
40
8.9850049
50
15.7779388
51
32.0151251
0
ARC
8
back_labelLayer
10
86.9308528
20
484.5556264
40
6.8577913
50
32.703445
51
35.524165
0
ARC
8
back_labelLayer
10
87.6069688
20
485.0361699
40
6.0283027
50
35.5408405
51
79.8011221
0
ARC
8
back_labelLayer
10
86.7974304
20
481.5946602
40
9.5606108
50
78.6781343
51
90.3749614
0
LINE
8
back_labelLayer
10
125.7319336
20
466.8752813
11
122.6689453
21
466.8752813
0
LINE
8
back_labelLayer
10
122.6689453
20
466.8752813
11
121.847168
21
470.7600469
0
LINE
8
back_labelLayer
10
121.847168
20
470.7600469
11
121.6479492
21
470.7600469
0
LINE
8
back_labelLayer
10
117.065918
20
483.0867071
11
121.6977539
21
483.2361212
0
LINE
8
back_labelLayer
10
121.6977539
20
483.2361212
11
121.6977539
21
484.9294805
0
LINE
8
back_labelLayer
10
108.1757813
20
489.1130743
11
106.9057617
21
492.2756719
0
LINE
8
back_labelLayer
10
125.7319336
20
485.5022344
11
125.7319336
21
466.8752813
0
LINE
8
back_labelLayer
10
121.5981445
20
477.8323126
11
121.5981445
21
480.2976446
0
LINE
8
back_labelLayer
10
121.5981445
20
480.2976446
11
117.4643555
21
480.1233282
0
ARC
8
back_labelLayer
10
108.1982232
20
481.3792621
40
17.1365942
50
314.7445055
51
321.7071851
0
ARC
8
back_labelLayer
10
112.4084105
20
477.1013859
40
11.1344931
50
304.8485632
51
314.8530755
0
ARC
8
back_labelLayer
10
114.430914
20
474.2225583
40
7.6162764
50
294.3932639
51
304.7371572
0
ARC
8
back_labelLayer
10
113.7399397
20
476.0129193
40
9.5328224
50
281.2979549
51
293.7313763
0
ARC
8
back_labelLayer
10
112.8265203
20
480.4398065
40
14.0529016
50
272.9334969
51
281.4139185
0
ARC
8
back_labelLayer
10
112.5237493
20
484.9803972
40
18.603169
50
269.9539242
51
273.1490942
0
ARC
8
back_labelLayer
10
112.4191734
20
479.0629502
40
12.6860323
50
258.6719677
51
270.4047477
0
ARC
8
back_labelLayer
10
111.5379865
20
474.847709
40
8.3798992
50
238.3273207
51
258.9183688
0
ARC
8
back_labelLayer
10
110.9307259
20
473.7398363
40
7.1184751
50
227.7689255
51
237.8050211
0
ARC
8
back_labelLayer
10
110.7407978
20
473.4746984
40
6.7946054
50
192.0827694
51
227.4520741
0
ARC
8
back_labelLayer
10
114.2438095
20
474.338224
40
10.4013628
50
179.545724
51
192.6949338
0
ARC
8
back_labelLayer
10
110.9895392
20
474.7148335
40
7.1528163
50
115.4904634
51
182.3568134
0
ARC
8
back_labelLayer
10
114.5717475
20
468.1443257
40
14.6310021
50
101.3568171
51
117.0798629
0
ARC
8
back_labelLayer
10
117.4485915
20
454.700579
40
28.3785507
50
92.4696252
51
101.7064929
0
ARC
8
back_labelLayer
10
118.2754258
20
442.7250803
40
40.3797451
50
91.7164561
51
92.9095599
0
ARC
8
back_labelLayer
10
109.8247127
20
484.9930316
40
11.8732112
50
359.6933244
51
8.0035845
0
ARC
8
back_labelLayer
10
114.3161019
20
485.6473346
40
7.3345038
50
7.8272647
51
20.6041716
0
ARC
8
back_labelLayer
10
116.8577148
20
486.6196287
40
4.6133348
50
20.4094103
51
41.4479536
0
ARC
8
back_labelLayer
10
117.23324
20
486.826044
40
4.1962726
50
42.7295515
51
71.0380311
0
ARC
8
back_labelLayer
10
116.34913
20
484.4221322
40
6.7572418
50
70.5716287
51
83.9928693
0
ARC
8
back_labelLayer
10
115.9267602
20
480.9912613
40
10.2136576
50
83.6506621
51
90.1753176
0
ARC
8
back_labelLayer
10
116.0008496
20
477.7465674
40
13.458716
50
90.4484604
51
103.7665494
0
ARC
8
back_labelLayer
10
117.5835283
20
471.0723486
40
20.3178955
50
103.6226562
51
112.4319983
0
ARC
8
back_labelLayer
10
120.2963732
20
464.2226157
40
27.6847192
50
112.21222
51
115.9641073
0
ARC
8
back_labelLayer
10
115.9519303
20
475.499663
40
19.0595814
50
106.356856
51
118.3349872
0
ARC
8
back_labelLayer
10
116.7636772
20
472.9922173
40
21.6942668
50
104.5162016
51
106.5489882
0
ARC
8
back_labelLayer
10
116.1684019
20
475.4724585
40
19.1440486
50
90.0714419
51
104.6521068
0
ARC
8
back_labelLayer
10
116.2435349
20
477.157934
40
17.458839
50
81.5679736
51
90.3249083
0
ARC
8
back_labelLayer
10
117.2529818
20
483.7341805
40
10.8057113
50
68.2273443
51
81.749426
0
ARC
8
back_labelLayer
10
118.6589697
20
487.2324019
40
7.0355317
50
47.8683298
51
68.2934085
0
ARC
8
back_labelLayer
10
118.8871681
20
487.6880418
40
6.5459647
50
19.2330961
51
46.6741207
0
ARC
8
back_labelLayer
10
115.0858057
20
486.2739272
40
10.6013099
50
6.3379049
51
19.6815353
0
ARC
8
back_labelLayer
10
109.4664366
20
485.5582499
40
16.2655936
50
359.8026844
51
6.6583517
0
ARC
8
back_labelLayer
10
113.4141559
20
481.1700557
40
11.3815071
50
269.5791972
51
282.0413699
0
ARC
8
back_labelLayer
10
114.2443578
20
477.4876414
40
7.6070468
50
281.7120904
51
306.4593961
0
ARC
8
back_labelLayer
10
114.6124617
20
476.8822646
40
6.9017024
50
306.9881293
51
313.8559171
0
ARC
8
back_labelLayer
10
114.5686885
20
476.8696997
40
6.9230873
50
314.1891931
51
347.4269901
0
ARC
8
back_labelLayer
10
111.1007361
20
477.7387532
40
10.4974694
50
346.9177627
51
0.2824659
0
ARC
8
back_labelLayer
10
108.4525227
20
477.832287
40
13.1456218
50
359.8178913
51
0.0001112
0
ARC
8
back_labelLayer
10
118.4476597
20
449.7865287
40
30.3527311
50
91.8564735
51
96.4478348
0
ARC
8
back_labelLayer
10
117.0788372
20
461.6313354
40
18.4291562
50
96.354537
51
102.9953312
0
ARC
8
back_labelLayer
10
115.2207727
20
469.5256864
40
10.3192265
50
102.7995516
51
113.2432988
0
ARC
8
back_labelLayer
10
113.6890288
20
473.1890402
40
6.3488335
50
113.5886662
51
121.6804899
0
ARC
8
back_labelLayer
10
112.6248083
20
474.8098252
40
4.4109882
50
120.9734096
51
172.4179842
0
ARC
8
back_labelLayer
10
114.7048832
20
474.3943411
40
6.5291441
50
171.2121956
51
180.205821
0
ARC
8
back_labelLayer
10
114.0832366
20
474.3220742
40
5.907657
50
179.5265827
51
192.7787243
0
ARC
8
back_labelLayer
10
112.084782
20
473.8376405
40
3.8516708
50
192.3264418
51
222.0579857
0
ARC
8
back_labelLayer
10
111.9361644
20
473.7487788
40
3.6819532
50
222.5805298
51
229.254631
0
ARC
8
back_labelLayer
10
112.4384459
20
474.3954607
40
4.4999212
50
229.7836912
51
254.272435
0
ARC
8
back_labelLayer
10
113.1074637
20
476.6248961
40
6.8273512
50
253.9396697
51
266.4533765
0
ARC
8
back_labelLayer
10
113.3209869
20
479.0861316
40
9.2972809
50
266.0783126
51
270.0590347
0
LINE
8
back_labelLayer
10
152.4521484
20
493.2468633
11
151.1821289
21
489.7356329
0
LINE
8
back_labelLayer
10
152.0537109
20
471.4573126
11
152.0537109
21
467.796668
0
ARC
8
back_labelLayer
10
145.0239116
20
481.826306
40
15.4496342
50
256.4243769
51
270.488979
0
ARC
8
back_labelLayer
10
143.7893405
20
477.0078755
40
10.4762646
50
221.7976317
51
256.8020491
0
ARC
8
back_labelLayer
10
144.9848795
20
477.8912128
40
11.9570888
50
196.0166622
51
221.1349247
0
ARC
8
back_labelLayer
10
150.9935548
20
479.7277746
40
18.2395706
50
183.5913719
51
196.3539578
0
ARC
8
back_labelLayer
10
157.7246044
20
480.3207709
40
24.9951265
50
179.9388458
51
183.9815144
0
ARC
8
back_labelLayer
10
155.5376448
20
480.4942984
40
22.8086253
50
169.8978405
51
180.3688909
0
ARC
8
back_labelLayer
10
147.5974453
20
481.9631186
40
14.7339861
50
153.087518
51
170.1051347
0
ARC
8
back_labelLayer
10
144.5847546
20
483.4026646
40
11.3962733
50
138.655004
51
152.6853608
0
ARC
8
back_labelLayer
10
144.0224728
20
483.8124173
40
10.7036539
50
101.4912926
51
138.3133865
0
ARC
8
back_labelLayer
10
145.3133427
20
478.4399547
40
16.2267595
50
89.5891894
51
102.1787757
0
ARC
8
back_labelLayer
10
145.4126056
20
476.0116839
40
18.6546209
50
77.7702456
51
89.9475347
0
ARC
8
back_labelLayer
10
145.0595359
20
474.0638425
40
20.6331601
50
74.6796836
51
77.9578482
0
ARC
8
back_labelLayer
10
146.9667714
20
480.9734099
40
13.4652195
50
70.0945599
51
74.7386074
0
ARC
8
back_labelLayer
10
148.7809504
20
485.9451678
40
8.1728345
50
63.5034042
51
70.1861438
0
ARC
8
back_labelLayer
10
149.6423141
20
487.7492823
40
6.1740234
50
62.9282538
51
63.1877926
0
ARC
8
back_labelLayer
10
144.3913681
20
472.6456463
40
18.3897274
50
68.3294429
51
74.8831228
0
ARC
8
back_labelLayer
10
143.4211981
20
469.2055608
40
21.9638165
50
74.7801806
51
77.4497363
0
ARC
8
back_labelLayer
10
144.4397971
20
473.9866854
40
17.075654
50
77.2998872
51
81.7345273
0
ARC
8
back_labelLayer
10
145.182721
20
479.1634199
40
11.8458932
50
81.690997
51
87.5079103
0
ARC
8
back_labelLayer
10
145.3260589
20
481.8423346
40
9.1633185
50
87.674979
51
89.9748691
0
ARC
8
back_labelLayer
10
145.1251546
20
481.8385888
40
9.1693538
50
88.7194048
51
112.5667624
0
ARC
8
back_labelLayer
10
144.4736095
20
483.992766
40
6.9337312
50
114.4265732
51
161.6632815
0
ARC
8
back_labelLayer
10
150.9460576
20
481.4593812
40
13.8794328
50
160.141845
51
175.1368161
0
ARC
8
back_labelLayer
10
159.8545507
20
480.4590249
40
22.841939
50
174.5309798
51
180.1549438
0
ARC
8
back_labelLayer
10
157.0322333
20
480.2938758
40
20.0198049
50
179.7041349
51
188.0743646
0
ARC
8
back_labelLayer
10
149.8213395
20
479.2388453
40
12.7322474
50
187.9315241
51
200.3885376
0
ARC
8
back_labelLayer
10
145.9223506
20
477.7944705
40
8.5743269
50
200.4183418
51
216.6392651
0
ARC
8
back_labelLayer
10
144.2877986
20
476.6259706
40
6.5655257
50
216.9695331
51
261.3103025
0
ARC
8
back_labelLayer
10
145.0091587
20
479.9890698
40
10.0011058
50
260.1359452
51
270.2692249
0
ARC
8
back_labelLayer
10
144.9758613
20
487.2924351
40
17.3045471
50
270.2658465
51
286.289139
0
ARC
8
back_labelLayer
10
143.9238692
20
491.2156537
40
21.3655417
50
286.046071
51
292.3653911
0
ARC
8
back_labelLayer
10
146.725467
20
478.2785933
40
11.7584412
50
282.0344228
51
296.9454528
0
ARC
8
back_labelLayer
10
145.5161808
20
483.7283887
40
17.3406613
50
272.5980536
51
282.1878353
0
ARC
8
back_labelLayer
10
145.1694121
20
489.0466823
40
22.6694519
50
269.9654994
51
272.8642932
0
LINE
8
back_labelLayer
10
162.4130859
20
480.8454962
11
162.6123047
21
480.8454962
0
LINE
8
back_labelLayer
10
165.8745117
20
484.8298712
11
174.6899414
21
494.1682501
0
LINE
8
back_labelLayer
10
174.6899414
20
494.1682501
11
179.5957031
21
494.1682501
0
LINE
8
back_labelLayer
10
179.5957031
20
494.1682501
11
168.5390625
21
482.5388555
0
LINE
8
back_labelLayer
10
168.5390625
20
482.5388555
11
180.3676758
21
466.8752813
0
LINE
8
back_labelLayer
10
180.3676758
20
466.8752813
11
175.3623047
21
466.8752813
0
LINE
8
back_labelLayer
10
175.3623047
20
466.8752813
11
165.7250977
21
479.7746954
0
LINE
8
back_labelLayer
10
165.7250977
20
479.7746954
11
162.6123047
21
477.0852423
0
LINE
8
back_labelLayer
10
162.6123047
20
477.0852423
11
162.6123047
21
466.8752813
0
LINE
8
back_labelLayer
10
162.6123047
20
466.8752813
11
158.5283203
21
466.8752813
0
LINE
8
back_labelLayer
10
158.5283203
20
466.8752813
11
158.5283203
21
505.6233282
0
LINE
8
back_labelLayer
10
158.5283203
20
505.6233282
11
162.6123047
21
505.6233282
0
LINE
8
back_labelLayer
10
162.6123047
20
505.6233282
11
162.6123047
21
485.0788946
0
ARC
8
back_labelLayer
10
182.5859961
20
466.7072859
40
24.4711532
50
142.323365
51
144.707551
0
ARC
8
back_labelLayer
10
195.6181773
20
456.6552625
40
40.929612
50
140.4331157
51
142.3365545
0
ARC
8
back_labelLayer
10
212.6008171
20
442.6755432
40
62.9260101
50
139.2798993
51
140.4703287
0
ARC
8
back_labelLayer
10
232.2364414
20
425.790253
40
88.8233201
50
138.3417587
51
139.2877214
0
ARC
8
back_labelLayer
10
135.0654487
20
485.1304466
40
27.5469042
50
358.2739121
51
359.8927751
0
ARC
8
back_labelLayer
10
113.6324936
20
485.727757
40
48.9881499
50
357.5041648
51
358.3306958
0
ARC
8
back_labelLayer
10
81.5609945
20
487.1443006
40
81.0909138
50
356.6325038
51
357.49103
0
ARC
8
back_labelLayer
10
28.24211
20
490.2540014
40
134.5004001
50
356.0329247
51
356.6442711
0
ARC
8
back_labelLayer
10
-7.3169303
20
492.6533157
40
170.1402452
50
356.0204448
51
356.0553268
0
LINE
8
right_outsideCutPath
10
261
20
646
11
261
21
618
0
LINE
8
right_outsideCutPath
10
261
20
618
11
258
21
618
0
LINE
8
right_outsideCutPath
10
258
20
618
11
258
21
594
0
LINE
8
right_outsideCutPath
10
258
20
594
11
261
21
594
0
LINE
8
right_outsideCutPath
10
261
20
594
11
261
21
570
0
LINE
8
right_outsideCutPath
10
261
20
570
11
258
21
570
0
LINE
8
right_outsideCutPath
10
258
20
570
11
258
21
546
0
LINE
8
right_outsideCutPath
10
258
20
546
11
261
21
546
0
LINE
8
right_outsideCutPath
10
261
20
546
11
261
21
522
0
LINE
8
right_outsideCutPath
10
261
20
522
11
258
21
522
0
LINE
8
right_outsideCutPath
10
258
20
522
11
258
21
498
0
LINE
8
right_outsideCutPath
10
258
20
498
11
261
21
498
0
LINE
8
right_outsideCutPath
10
261
20
498
11
261
21
474
0
LINE
8
right_outsideCutPath
10
261
20
474
11
258
21
474
0
LINE
8
right_outsideCutPath
10
258
20
474
11
258
21
450
0
LINE
8
right_outsideCutPath
10
258
20
450
11
261
21
450
0
LINE
8
right_outsideCutPath
10
261
20
450
11
261
21
426
0
LINE
8
right_outsideCutPath
10
261
20
426
11
258
21
426
0
LINE
8
right_outsideCutPath
10
258
20
426
11
258
21
402
0
LINE
8
right_outsideCutPath
10
258
20
402
11
261
21
402
0
LINE
8
right_outsideCutPath
10
261
20
402
11
261
21
378
0
LINE
8
right_outsideCutPath
10
261
20
378
11
258
21
378
0
LINE
8
right_outsideCutPath
10
258
20
378
11
258
21
354
0
LINE
8
right_outsideCutPath
10
258
20
354
11
261
21
354
0
LINE
8
right_outsideCutPath
10
261
20
354
11
261
21
326
0
LINE
8
right_outsideCutPath
10
261
20
326
11
286.5
21
326
0
LINE
8
right_outsideCutPath
10
286.5
20
326
11
286.5
21
329
0
LINE
8
right_outsideCutPath
10
286.5
20
329
11
310.5
21
329
0
LINE
8
right_outsideCutPath
10
310.5
20
329
11
310.5
21
326
0
LINE
8
right_outsideCutPath
10
310.5
20
326
11
334.5
21
326
0
LINE
8
right_outsideCutPath
10
334.5
20
326
11
334.5
21
329
0
LINE
8
right_outsideCutPath
10
334.5
20
329
11
358.5
21
329
0
LINE
8
right_outsideCutPath
10
358.5
20
329
11
358.5
21
326
0
LINE
8
right_outsideCutPath
10
358.5
20
326
11
382.5
21
326
0
LINE
8
right_outsideCutPath
10
382.5
20
326
11
384
21
326
0
LINE
8
right_outsideCutPath
10
384
20
326
11
384
21
354
0
LINE
8
right_outsideCutPath
10
384
20
354
11
387
21
354
0
LINE
8
right_outsideCutPath
10
387
20
354
11
387
21
378
0
LINE
8
right_outsideCutPath
10
387
20
378
11
384
21
378
0
LINE
8
right_outsideCutPath
10
384
20
378
11
384
21
402
0
LINE
8
right_outsideCutPath
10
384
20
402
11
387
21
402
0
LINE
8
right_outsideCutPath
10
387
20
402
11
387
21
426
0
LINE
8
right_outsideCutPath
10
387
20
426
11
384
21
426
0
LINE
8
right_outsideCutPath
10
384
20
426
11
384
21
450
0
LINE
8
right_outsideCutPath
10
384
20
450
11
387
21
450
0
LINE
8
right_outsideCutPath
10
387
20
450
11
387
21
474
0
LINE
8
right_outsideCutPath
10
387
20
474
11
384
21
474
0
LINE
8
right_outsideCutPath
10
384
20
474
11
384
21
498
0
LINE
8
right_outsideCutPath
10
384
20
498
11
387
21
498
0
LINE
8
right_outsideCutPath
10
387
20
498
11
387
21
522
0
LINE
8
right_outsideCutPath
10
387
20
522
11
384
21
522
0
LINE
8
right_outsideCutPath
10
384
20
522
11
384
21
546
0
LINE
8
right_outsideCutPath
10
384
20
546
11
387
21
546
0
LINE
8
right_outsideCutPath
10
387
20
546
11
387
21
570
0
LINE
8
right_outsideCutPath
10
387
20
570
11
384
21
570
0
LINE
8
right_outsideCutPath
10
384
20
570
11
384
21
594
0
LINE
8
right_outsideCutPath
10
384
20
594
11
387
21
594
0
LINE
8
right_outsideCutPath
10
387
20
594
11
387
21
618
0
LINE
8
right_outsideCutPath
10
387
20
618
11
384
21
618
0
LINE
8
right_outsideCutPath
10
384
20
618
11
384
21
646
0
LINE
8
right_outsideCutPath
10
384
20
646
11
358.5
21
646
0
LINE
8
right_outsideCutPath
10
358.5
20
646
11
358.5
21
643
0
LINE
8
right_outsideCutPath
10
358.5
20
643
11
334.5
21
643
0
LINE
8
right_outsideCutPath
10
334.5
20
643
11
334.5
21
646
0
LINE
8
right_outsideCutPath
10
334.5
20
646
11
310.5
21
646
0
LINE
8
right_outsideCutPath
10
310.5
20
646
11
310.5
21
643
0
LINE
8
right_outsideCutPath
10
310.5
20
643
11
286.5
21
643
0
LINE
8
right_outsideCutPath
10
286.5
20
643
11
286.5
21
646
0
LINE
8
right_outsideCutPath
10
286.5
20
646
11
262.5
21
646
0
LINE
8
right_outsideCutPath
10
262.5
20
646
11
261
21
646
0
LINE
8
right_labelLayer
10
303.7609863
20
493.2059355
11
303.4712402
21
491.2658965
0
LINE
8
right_labelLayer
10
297.9030762
20
486.7055449
11
297.9030762
21
479.298123
0
LINE
8
right_labelLayer
10
297.9030762
20
479.298123
11
295.8118652
21
479.298123
0
LINE
8
right_labelLayer
10
295.8118652
20
479.298123
11
295.8118652
21
493.1051543
0
LINE
8
right_labelLayer
10
295.8118652
20
493.1051543
11
297.5377441
21
493.1051543
0
LINE
8
right_labelLayer
10
297.5377441
20
493.1051543
11
297.7770996
21
490.54783
0
LINE
8
right_labelLayer
10
297.7770996
20
490.54783
11
297.8778809
21
490.54783
0
ARC
8
right_labelLayer
10
302.1321601
20
483.7567128
40
9.6004186
50
84.9923022
51
90.1281146
0
ARC
8
right_labelLayer
10
302.3627133
20
486.3398378
40
7.0070296
50
78.4891859
51
85.0265906
0
ARC
8
right_labelLayer
10
301.4678539
20
482.2698123
40
9.2164574
50
77.4453609
51
81.6360469
0
ARC
8
right_labelLayer
10
301.8693986
20
485.0376364
40
6.419665
50
81.5884273
51
87.1916857
0
ARC
8
right_labelLayer
10
301.9566093
20
486.5500137
40
4.9048485
50
87.3436329
51
89.9659818
0
ARC
8
right_labelLayer
10
301.9363463
20
487.8314858
40
3.6234497
50
89.6335397
51
137.0880791
0
ARC
8
right_labelLayer
10
302.825574
20
486.8315147
40
4.9572
50
135.6208649
51
138.8377093
0
ARC
8
right_labelLayer
10
302.6953021
20
486.9586777
40
4.7754374
50
138.9575727
51
174.5422256
0
ARC
8
right_labelLayer
10
304.2505736
20
486.7153245
40
6.3475049
50
173.6907714
51
180.0882756
0
ARC
8
right_labelLayer
10
304.0306616
20
487.0813831
40
7.0620794
50
139.4139294
51
150.6032998
0
ARC
8
right_labelLayer
10
302.7644295
20
488.1664119
40
5.3945568
50
124.2321411
51
139.4161103
0
ARC
8
right_labelLayer
10
302.0873861
20
489.1884069
40
4.1687657
50
89.6796615
51
124.4405652
0
LINE
8
right_labelLayer
10
308.4347168
20
493.1051543
11
308.4347168
21
479.298123
0
LINE
8
right_labelLayer
10
308.4347168
20
479.298123
11
306.3435059
21
479.298123
0
LINE
8
right_labelLayer
10
306.3435059
20
479.298123
11
306.3435059
21
493.1051543
0
LINE
8
right_labelLayer
10
306.3435059
20
493.1051543
11
308.4347168
21
493.1051543
0
ARC
8
right_labelLayer
10
308.484393
20
496.8609949
40
2.3172987
50
170.8451364
51
180.3544825
0
ARC
8
right_labelLayer
10
307.6169024
20
497.0060435
40
1.43779
50
155.9678587
51
171.0515642
0
ARC
8
right_labelLayer
10
307.196723
20
497.1924547
40
0.9781177
50
133.7880327
51
155.917183
0
ARC
8
right_labelLayer
10
307.3518523
20
497.0209513
40
1.2092936
50
92.6446177
51
133.4710412
0
ARC
8
right_labelLayer
10
307.4008493
20
496.6361477
40
1.5962528
50
89.9691437
51
93.7642072
0
ARC
8
right_labelLayer
10
307.4208022
20
497.0004328
40
1.2321155
50
46.3708379
51
90.8879086
0
ARC
8
right_labelLayer
10
307.5434274
20
497.1270272
40
1.0558749
50
17.7252051
51
46.4473499
0
ARC
8
right_labelLayer
10
306.9716088
20
496.9301137
40
1.6605532
50
4.9427356
51
18.1901252
0
ARC
8
right_labelLayer
10
306.2441358
20
496.8514709
40
2.3921482
50
359.8847275
51
5.3180891
0
ARC
8
right_labelLayer
10
306.4726676
20
496.8319644
40
2.1636616
50
349.834462
51
0.3891085
0
ARC
8
right_labelLayer
10
307.2603554
20
496.6850229
40
1.3624164
50
332.6322211
51
350.0705384
0
ARC
8
right_labelLayer
10
307.5669511
20
496.5336269
40
1.0205606
50
313.6153242
51
332.2677902
0
ARC
8
right_labelLayer
10
307.4191933
20
496.6681657
40
1.2199725
50
269.1788231
51
314.2807425
0
ARC
8
right_labelLayer
10
307.3878481
20
496.7766181
40
1.328372
50
250.5000166
51
270.5978619
0
ARC
8
right_labelLayer
10
307.3476463
20
496.6262937
40
1.1733146
50
225.1300582
51
249.9001806
0
ARC
8
right_labelLayer
10
307.2847068
20
496.5567685
40
1.0796467
50
197.7933891
51
224.8942096
0
ARC
8
right_labelLayer
10
307.8737915
20
496.7586427
40
1.7022858
50
184.9925157
51
198.2040826
0
ARC
8
right_labelLayer
10
308.6361255
20
496.8415108
40
2.4689923
50
179.8805485
51
185.368715
0
LINE
8
right_labelLayer
10
319.3946777
20
493.1051543
11
324.1691895
21
493.1051543
0
LINE
8
right_labelLayer
10
324.1691895
20
493.1051543
11
324.1691895
21
491.7824004
0
LINE
8
right_labelLayer
10
324.1691895
20
491.7824004
11
321.6118652
21
491.4800566
0
LINE
8
right_labelLayer
10
316.9003418
20
481.4901152
11
319.3442871
21
481.4901152
0
LINE
8
right_labelLayer
10
318.6766113
20
479.6130644
11
316.1696777
21
479.6130644
0
ARC
8
right_labelLayer
10
318.9469354
20
489.3710625
40
3.398486
50
29.4584402
51
38.3576781
0
ARC
8
right_labelLayer
10
317.5581942
20
488.5782865
40
4.9975669
50
23.1845631
51
29.5422252
0
ARC
8
right_labelLayer
10
316.2337633
20
487.9909284
40
6.4463047
50
21.2505394
51
23.3490212
0
ARC
8
right_labelLayer
10
318.4854352
20
488.8864229
40
4.0232099
50
6.8504979
51
20.9871664
0
ARC
8
right_labelLayer
10
317.3523583
20
488.7327972
40
5.1665511
50
359.8710557
51
7.0432
0
ARC
8
right_labelLayer
10
317.7251532
20
488.6713218
40
4.7940024
50
342.5649834
51
0.5957728
0
ARC
8
right_labelLayer
10
318.6093116
20
488.4271736
40
3.8774437
50
310.6097744
51
342.0923663
0
ARC
8
right_labelLayer
10
318.1135083
20
489.0038829
40
4.637979
50
284.9315774
51
310.6222753
0
ARC
8
right_labelLayer
10
317.4930681
20
491.1779838
40
6.8986476
50
272.5334881
51
285.2579804
0
ARC
8
right_labelLayer
10
317.333542
20
493.357068
40
9.0828722
50
269.9692174
51
272.9312021
0
ARC
8
right_labelLayer
10
317.31375
20
490.9950116
40
6.7208309
50
263.4836728
51
270.1271274
0
ARC
8
right_labelLayer
10
317.2042686
20
489.9551455
40
5.6752659
50
259.4963465
51
263.3904239
0
ARC
8
right_labelLayer
10
317.8818171
20
481.0710141
40
3.7212366
50
117.3935326
51
128.4095275
0
ARC
8
right_labelLayer
10
316.9238223
20
482.2594769
40
2.1948223
50
128.0881895
51
147.1400112
0
ARC
8
right_labelLayer
10
316.4077146
20
482.605827
40
1.5734045
50
147.5369359
51
180.259205
0
ARC
8
right_labelLayer
10
315.918091
20
482.5853137
40
1.0838476
50
179.2918653
51
198.3580783
0
ARC
8
right_labelLayer
10
315.7151632
20
482.5319821
40
0.8745514
50
199.2291705
51
239.5690774
0
ARC
8
right_labelLayer
10
315.8830857
20
482.7639075
40
1.1599012
50
238.2194437
51
239.8461207
0
ARC
8
right_labelLayer
10
316.0176613
20
483.040625
40
1.4669483
50
240.7303125
51
254.5025868
0
ARC
8
right_labelLayer
10
316.4180257
20
484.4202811
40
2.9034696
50
254.1637376
51
262.2123065
0
ARC
8
right_labelLayer
10
316.7351549
20
486.6352894
40
5.14104
50
262.0555601
51
267.2083328
0
ARC
8
right_labelLayer
10
316.8883531
20
489.4451486
40
7.9550424
50
267.0919153
51
270.086348
0
ARC
8
right_labelLayer
10
319.3900002
20
472.9300211
40
8.5602161
50
81.5744308
51
90.3059715
0
ARC
8
right_labelLayer
10
319.8595486
20
475.9923239
40
5.4621871
50
68.3671463
51
81.7399363
0
ARC
8
right_labelLayer
10
320.4728231
20
477.5596286
40
3.7791946
50
52.1879501
51
68.2501022
0
ARC
8
right_labelLayer
10
320.9019425
20
478.1378373
40
3.0593522
50
8.620142
51
51.8982498
0
ARC
8
right_labelLayer
10
319.3979458
20
477.8196063
40
4.5949227
50
359.743075
51
9.7326377
0
ARC
8
right_labelLayer
10
319.4653089
20
477.7420922
40
4.5278711
50
340.5268822
51
0.7201556
0
ARC
8
right_labelLayer
10
320.1305628
20
477.5764524
40
3.8460121
50
302.9903676
51
339.5494545
0
ARC
8
right_labelLayer
10
319.4314742
20
478.4649742
40
4.9729807
50
303.1871809
51
304.172211
0
ARC
8
right_labelLayer
10
318.7813848
20
479.590707
40
6.2713499
50
286.2542209
51
302.5280149
0
ARC
8
right_labelLayer
10
317.5969776
20
483.49743
40
10.3535251
50
276.4939818
51
286.4953618
0
ARC
8
right_labelLayer
10
316.857979
20
489.675025
40
16.5751011
50
269.7545152
51
276.6169662
0
ARC
8
right_labelLayer
10
316.7317722
20
484.8164526
40
11.7165064
50
262.5634761
51
270.2698931
0
ARC
8
right_labelLayer
10
316.1579181
20
480.5630619
40
7.4246421
50
251.2101805
51
262.7063997
0
ARC
8
right_labelLayer
10
315.3308036
20
478.1353641
40
4.8599135
50
235.9667958
51
251.2229057
0
ARC
8
right_labelLayer
10
314.4541391
20
476.8847089
40
3.3329391
50
208.9036313
51
236.4231348
0
ARC
8
right_labelLayer
10
314.5346173
20
476.8509701
40
3.3877765
50
182.2079812
51
207.7461591
0
ARC
8
right_labelLayer
10
315.5589293
20
476.9532975
40
4.4157168
50
179.9784416
51
183.0227052
0
ARC
8
right_labelLayer
10
314.3402831
20
477.0110577
40
3.1975623
50
138.3916075
51
181.0052607
0
ARC
8
right_labelLayer
10
314.677951
20
476.7075948
40
3.6515483
50
113.8121414
51
138.3496204
0
ARC
8
right_labelLayer
10
315.318464
20
475.3244611
40
5.1756152
50
102.2870801
51
114.1172806
0
ARC
8
right_labelLayer
10
315.1172016
20
482.3564572
40
2.1704056
50
216.5861642
51
245.4968644
0
ARC
8
right_labelLayer
10
315.4273004
20
482.6196101
40
2.5763861
50
215.4648202
51
217.174905
0
ARC
8
right_labelLayer
10
314.9103818
20
482.2462534
40
1.9387523
50
182.1767434
51
215.3415616
0
ARC
8
right_labelLayer
10
315.3711205
20
482.2956776
40
2.4012474
50
179.9835939
51
182.9376556
0
ARC
8
right_labelLayer
10
315.3612045
20
482.3165808
40
2.3914169
50
161.722593
51
180.4843488
0
ARC
8
right_labelLayer
10
315.0982755
20
482.3883248
40
2.119301
50
144.4963478
51
161.3350441
0
ARC
8
right_labelLayer
10
315.799159
20
481.8659665
40
2.9932927
50
132.7258879
51
144.1479881
0
ARC
8
right_labelLayer
10
316.922491
20
480.6663877
40
4.6366981
50
125.2212686
51
132.8655802
0
ARC
8
right_labelLayer
10
318.0518457
20
479.0981405
40
6.5692115
50
121.2352401
51
125.3794899
0
ARC
8
right_labelLayer
10
316.0497933
20
488.1014973
40
3.6660623
50
215.1640821
51
247.4747806
0
ARC
8
right_labelLayer
10
316.7341335
20
488.6537877
40
4.5439519
50
212.471417
51
215.8875644
0
ARC
8
right_labelLayer
10
316.5541696
20
488.5250352
40
4.3230157
50
183.0160894
51
212.3123132
0
ARC
8
right_labelLayer
10
317.5028669
20
488.6307741
40
5.2762562
50
179.9759775
51
183.6206902
0
ARC
8
right_labelLayer
10
318.2682607
20
488.6840159
40
6.0418649
50
166.8195738
51
180.4839258
0
ARC
8
right_labelLayer
10
316.2639328
20
489.1900654
40
3.9751092
50
132.3287752
51
167.3340787
0
ARC
8
right_labelLayer
10
316.5320831
20
488.8046213
40
4.4410568
50
106.2188914
51
131.5377643
0
ARC
8
right_labelLayer
10
317.2105597
20
486.6077636
40
6.7400933
50
93.6329815
51
106.5408586
0
ARC
8
right_labelLayer
10
317.4320511
20
484.1211166
40
9.2359962
50
89.9380272
51
94.026784
0
ARC
8
right_labelLayer
10
317.4679174
20
485.3414519
40
8.0156973
50
82.5852007
51
90.1849635
0
ARC
8
right_labelLayer
10
317.712842
20
487.2364606
40
6.1049272
50
74.0088871
51
82.5694554
0
ARC
8
right_labelLayer
10
315.2589176
20
476.9515908
40
2.1002739
50
179.2207617
51
200.9355614
0
ARC
8
right_labelLayer
10
315.0091555
20
476.8937583
40
1.846672
50
202.0286848
51
236.1457357
0
ARC
8
right_labelLayer
10
315.385529
20
477.3716316
40
2.4536341
50
235.0633973
51
238.504201
0
ARC
8
right_labelLayer
10
315.8231877
20
478.1533411
40
3.3490147
50
239.1066111
51
254.4862983
0
ARC
8
right_labelLayer
10
316.4066516
20
480.1650992
40
5.4435894
50
254.2323862
51
263.4937396
0
ARC
8
right_labelLayer
10
316.7731575
20
483.2693241
40
8.5693597
50
263.4108307
51
270.1457367
0
ARC
8
right_labelLayer
10
316.8120258
20
485.2585348
40
10.5585563
50
269.9073621
51
270.0007184
0
ARC
8
right_labelLayer
10
316.8622759
20
488.7580802
40
14.058191
50
269.795739
51
275.3991075
0
ARC
8
right_labelLayer
10
317.3884293
20
483.3565994
40
8.631181
50
275.2956933
51
283.3515998
0
ARC
8
right_labelLayer
10
318.245649
20
479.8258833
40
4.9979762
50
283.1370457
51
295.8573055
0
ARC
8
right_labelLayer
10
318.880827
20
478.4392118
40
3.4732714
50
296.404741
51
301.800881
0
ARC
8
right_labelLayer
10
319.1298453
20
478.0959751
40
3.0504899
50
301.2230877
51
318.6238012
0
ARC
8
right_labelLayer
10
319.6915296
20
477.5771238
40
2.2861207
50
319.076564
51
1.140691
0
ARC
8
right_labelLayer
10
319.1479198
20
477.6450476
40
2.8293662
50
359.5461251
51
10.9904373
0
ARC
8
right_labelLayer
10
320.2408163
20
477.8673392
40
1.714164
50
10.6608976
51
30.9362015
0
ARC
8
right_labelLayer
10
320.5873321
20
478.0596446
40
1.3181486
50
31.5095324
51
58.077785
0
ARC
8
right_labelLayer
10
320.2625632
20
477.4781326
40
1.9836993
50
58.9972255
51
73.8586395
0
ARC
8
right_labelLayer
10
319.60613
20
475.3291703
40
4.2305703
50
73.409991
51
81.5907129
0
ARC
8
right_labelLayer
10
319.0499347
20
471.7298193
40
7.8725993
50
81.41725
51
86.5756536
0
ARC
8
right_labelLayer
10
318.7091026
20
466.3068863
40
13.3062179
50
86.505429
51
90.1399057
0
ARC
8
right_labelLayer
10
316.1397688
20
474.8060778
40
4.8070797
50
89.6435124
51
100.0209198
0
ARC
8
right_labelLayer
10
315.837636
20
476.4496532
40
3.136026
50
99.8102867
51
116.8229439
0
ARC
8
right_labelLayer
10
315.5433306
20
477.0703081
40
2.4494113
50
117.230465
51
130.5023062
0
ARC
8
right_labelLayer
10
315.3922155
20
477.2645281
40
2.203613
50
130.7944759
51
169.0413433
0
ARC
8
right_labelLayer
10
316.5049885
20
477.0024667
40
3.3462248
50
168.2580713
51
180.3820477
0
ARC
8
right_labelLayer
10
318.3744908
20
488.6521543
40
4.0819833
50
179.5617462
51
191.6529135
0
ARC
8
right_labelLayer
10
316.9552381
20
488.3455188
40
2.630083
50
191.355524
51
213.3660415
0
ARC
8
right_labelLayer
10
316.6144018
20
488.1487157
40
2.2373057
50
213.957378
51
227.7971317
0
ARC
8
right_labelLayer
10
316.9109371
20
488.5083683
40
2.7030145
50
228.2620849
51
254.7341248
0
ARC
8
right_labelLayer
10
317.2897763
20
489.8070349
40
4.0556731
50
254.4016411
51
267.4348877
0
ARC
8
right_labelLayer
10
317.3886111
20
491.132339
40
5.3842169
50
267.0153757
51
270.0323425
0
ARC
8
right_labelLayer
10
317.4532183
20
490.3035055
40
4.5557986
50
269.2256708
51
284.3773399
0
ARC
8
right_labelLayer
10
318.0741667
20
488.1401207
40
2.306879
50
282.7796713
51
346.482847
0
ARC
8
right_labelLayer
10
316.2176883
20
488.6659806
40
4.2355522
50
345.43622
51
0.7465859
0
ARC
8
right_labelLayer
10
315.9567284
20
488.7854717
40
4.4966122
50
359.1806395
51
15.0431666
0
ARC
8
right_labelLayer
10
317.994226
20
489.379831
40
2.3751041
50
13.9535591
51
77.6673928
0
ARC
8
right_labelLayer
10
317.4096483
20
487.2849523
40
4.5481808
50
76.1095117
51
90.702844
0
ARC
8
right_labelLayer
10
317.3221477
20
487.4449448
40
4.3879608
50
89.5859463
51
101.3333936
0
ARC
8
right_labelLayer
10
317.0085709
20
488.9405797
40
2.859899
50
101.0620597
51
121.9738983
0
ARC
8
right_labelLayer
10
316.7881861
20
489.3370341
40
2.4069997
50
122.5210509
51
134.9966718
0
ARC
8
right_labelLayer
10
316.8789288
20
489.2826655
40
2.5097391
50
135.5839989
51
163.0015894
0
ARC
8
right_labelLayer
10
318.2042572
20
488.84827
40
3.9042613
50
162.5911985
51
175.7343224
0
ARC
8
right_labelLayer
10
319.7938452
20
488.6916746
40
5.5012245
50
175.3393183
51
180.0864215
0
LINE
8
right_labelLayer
10
338.5431152
20
479.298123
11
336.4519043
21
479.298123
0
LINE
8
right_labelLayer
10
336.4519043
20
479.298123
11
336.4519043
21
488.2298613
0
LINE
8
right_labelLayer
10
329.094873
20
486.51658
11
329.094873
21
479.298123
0
LINE
8
right_labelLayer
10
329.094873
20
479.298123
11
327.0036621
21
479.298123
0
LINE
8
right_labelLayer
10
327.0036621
20
479.298123
11
327.0036621
21
498.9000761
0
LINE
8
right_labelLayer
10
327.0036621
20
498.9000761
11
329.094873
21
498.9000761
0
LINE
8
right_labelLayer
10
329.094873
20
498.9000761
11
329.094873
21
492.96658
0
LINE
8
right_labelLayer
10
328.9940918
20
491.1903105
11
329.1200684
21
491.1903105
0
LINE
8
right_labelLayer
10
338.5431152
20
488.3054472
11
338.5431152
21
479.298123
0
ARC
8
right_labelLayer
10
330.5406647
20
488.2637612
40
5.9113368
50
359.6714224
51
8.6877203
0
ARC
8
right_labelLayer
10
332.7315729
20
488.6112229
40
3.693104
50
8.4931613
51
22.6579826
0
ARC
8
right_labelLayer
10
333.8447115
20
489.0738081
40
2.487676
50
22.7024459
51
42.3419687
0
ARC
8
right_labelLayer
10
333.9698337
20
489.1300932
40
2.3576687
50
43.3790865
51
71.5386234
0
ARC
8
right_labelLayer
10
333.5019436
20
487.82269
40
3.7460727
50
71.0827997
51
84.3691288
0
ARC
8
right_labelLayer
10
333.2919118
20
486.0369575
40
5.5438997
50
84.0197665
51
90.1510643
0
ARC
8
right_labelLayer
10
333.2322251
20
485.2526952
40
6.3283032
50
89.5919396
51
100.3595167
0
ARC
8
right_labelLayer
10
332.784124
20
487.6075265
40
3.9313173
50
100.1067845
51
118.0847316
0
ARC
8
right_labelLayer
10
332.3283686
20
488.5018309
40
2.9278172
50
118.4551145
51
139.6706121
0
ARC
8
right_labelLayer
10
332.7859228
20
488.1890856
40
3.4795088
50
140.6208334
51
160.5048822
0
ARC
8
right_labelLayer
10
335.1977179
20
487.2962487
40
6.0511104
50
160.1567138
51
171.5312714
0
ARC
8
right_labelLayer
10
339.1000602
20
486.6779714
40
10.0020244
50
171.3202388
51
178.3406629
0
ARC
8
right_labelLayer
10
342.5913988
20
486.5219943
40
13.4965268
50
178.1079667
51
180.0229848
0
ARC
8
right_labelLayer
10
310.2830165
20
492.9441559
40
18.81187
50
357.8674054
51
0.0682978
0
ARC
8
right_labelLayer
10
316.6736107
20
492.7003384
40
12.4166304
50
354.9828569
51
357.8943563
0
ARC
8
right_labelLayer
10
320.894205
20
492.3328174
40
8.1800664
50
351.9712705
51
354.9618851
0
ARC
8
right_labelLayer
10
332.6622257
20
488.9745677
40
4.178085
50
119.8315926
51
147.972586
0
ARC
8
right_labelLayer
10
333.168107
20
488.197452
40
5.1041456
50
116.665777
51
120.4183467
0
ARC
8
right_labelLayer
10
333.2626125
20
487.9492377
40
5.3684401
50
96.6652523
51
116.3782423
0
ARC
8
right_labelLayer
10
333.4661522
20
486.5449118
40
6.7870121
50
89.892743
51
96.9958939
0
ARC
8
right_labelLayer
10
333.5312347
20
484.8477276
40
8.4843461
50
80.6863025
51
90.3537119
0
ARC
8
right_labelLayer
10
334.0595273
20
487.9550627
40
5.3325081
50
65.6022763
51
80.884411
0
ARC
8
right_labelLayer
10
334.6939062
20
489.3838237
40
3.7693141
50
46.7400923
51
65.4130765
0
ARC
8
right_labelLayer
10
334.7370222
20
489.5199596
40
3.641151
50
19.2204382
51
45.7660743
0
ARC
8
right_labelLayer
10
332.637519
20
488.7416555
40
5.8800089
50
6.4733717
51
19.6468165
0
ARC
8
right_labelLayer
10
329.500322
20
488.3378789
40
9.0428513
50
359.7945118
51
6.7743994
0
LINE
8
right_labelLayer
10
349.1881348
20
481.0240019
11
349.1881348
21
479.4240996
0
LINE
8
right_labelLayer
10
342.9900879
20
483.2663847
11
342.9900879
21
491.4800566
0
LINE
8
right_labelLayer
10
342.9900879
20
491.4800566
11
341.0122559
21
491.4800566
0
LINE
8
right_labelLayer
10
341.0122559
20
491.4800566
11
341.0122559
21
492.4878691
0
LINE
8
right_labelLayer
10
341.0122559
20
492.4878691
11
342.9900879
21
493.3571074
0
LINE
8
right_labelLayer
10
342.9900879
20
493.3571074
11
343.8719238
21
496.304959
0
LINE
8
right_labelLayer
10
343.8719238
20
496.304959
11
345.0812988
21
496.304959
0
LINE
8
right_labelLayer
10
345.0812988
20
496.304959
11
345.0812988
21
493.1051543
0
LINE
8
right_labelLayer
10
345.0812988
20
493.1051543
11
349.0873535
21
493.1051543
0
LINE
8
right_labelLayer
10
349.0873535
20
493.1051543
11
349.0873535
21
491.4800566
0
LINE
8
right_labelLayer
10
349.0873535
20
491.4800566
11
345.0812988
21
491.4800566
0
LINE
8
right_labelLayer
10
345.0812988
20
491.4800566
11
345.0812988
21
483.3545683
0
ARC
8
right_labelLayer
10
347.3128289
20
487.6398474
40
6.8678136
50
269.8803449
51
278.3028339
0
ARC
8
right_labelLayer
10
347.3774256
20
487.1107217
40
6.334918
50
278.4157883
51
279.0078934
0
ARC
8
right_labelLayer
10
346.607639
20
492.0283092
40
11.3123859
50
278.9589836
51
280.5104587
0
ARC
8
right_labelLayer
10
347.3419397
20
488.0883257
40
7.3045622
50
280.4848235
51
282.6267929
0
ARC
8
right_labelLayer
10
347.986051
20
485.22669
40
4.3713348
50
282.5877218
51
285.5794818
0
ARC
8
right_labelLayer
10
348.307083
20
484.0456189
40
3.1474468
50
285.7245512
51
286.2557796
0
ARC
8
right_labelLayer
10
348.3089246
20
481.283681
40
2.0569525
50
287.988881
51
295.3047861
0
ARC
8
right_labelLayer
10
347.81283
20
482.7845955
40
3.6377165
50
283.3069135
51
288.1198095
0
ARC
8
right_labelLayer
10
347.2887215
20
484.9708246
40
5.8858843
50
280.0069914
51
283.3734838
0
ARC
8
right_labelLayer
10
346.9376395
20
486.876275
40
7.8233669
50
279.1864412
51
280.1141654
0
ARC
8
right_labelLayer
10
346.7228145
20
488.0980914
40
9.0638247
50
275.5260448
51
279.2939655
0
ARC
8
right_labelLayer
10
346.965376
20
485.5645389
40
6.518689
50
270.8932318
51
275.5483907
0
ARC
8
right_labelLayer
10
346.9958631
20
484.4042955
40
5.3581256
50
270.002989
51
270.7606774
0
ARC
8
right_labelLayer
10
346.9117563
20
484.507455
40
5.461937
50
253.78479
51
270.8852479
0
ARC
8
right_labelLayer
10
346.2646616
20
482.3006173
40
3.1621938
50
190.3817654
51
253.8772399
0
ARC
8
right_labelLayer
10
349.5628955
20
483.1924009
40
6.573224
50
179.3551029
51
192.8477582
0
ARC
8
right_labelLayer
10
349.2922275
20
483.3282327
40
4.211011
50
179.64167
51
189.7505899
0
ARC
8
right_labelLayer
10
347.8056589
20
483.0630858
40
2.7010287
50
189.5479693
51
205.7873584
0
ARC
8
right_labelLayer
10
347.194736
20
482.7813704
40
2.0284256
50
206.1294397
51
221.4084273
0
ARC
8
right_labelLayer
10
347.1262399
20
482.7293964
40
1.9426863
50
221.5949306
51
262.3505107
0
ARC
8
right_labelLayer
10
347.2891545
20
483.5671674
40
2.7951343
50
261.3266211
51
270.1912871
0
LINE
8
bottom_outsideCutPath
10
393
20
261
11
393
21
235.5
0
LINE
8
bottom_outsideCutPath
10
393
20
235.5
11
390
21
235.5
0
LINE
8
bottom_outsideCutPath
10
390
20
235.5
11
390
21
211.5
0
LINE
8
bottom_outsideCutPath
10
390
20
211.5
11
393
21
211.5
0
LINE
8
bottom_outsideCutPath
10
393
20
211.5
11
393
21
187.5
0
LINE
8
bottom_outsideCutPath
10
393
20
187.5
11
390
21
187.5
0
LINE
8
bottom_outsideCutPath
10
390
20
187.5
11
390
21
163.5
0
LINE
8
bottom_outsideCutPath
10
390
20
163.5
11
393
21
163.5
0
LINE
8
bottom_outsideCutPath
10
393
20
163.5
11
393
21
139.5
0
LINE
8
bottom_outsideCutPath
10
393
20
139.5
11
393
21
138
0
LINE
8
bottom_outsideCutPath
10
393
20
138
11
409.5
21
138
0
LINE
8
bottom_outsideCutPath
10
409.5
20
138
11
409.5
21
135
0
LINE
8
bottom_outsideCutPath
10
409.5
20
135
11
433.5
21
135
0
LINE
8
bottom_outsideCutPath
10
433.5
20
135
11
433.5
21
138
0
LINE
8
bottom_outsideCutPath
10
433.5
20
138
11
457.5
21
138
0
LINE
8
bottom_outsideCutPath
10
457.5
20
138
11
457.5
21
135
0
LINE
8
bottom_outsideCutPath
10
457.5
20
135
11
481.5
21
135
0
LINE
8
bottom_outsideCutPath
10
481.5
20
135
11
481.5
21
138
0
LINE
8
bottom_outsideCutPath
10
481.5
20
138
11
505.5
21
138
0
LINE
8
bottom_outsideCutPath
10
505.5
20
138
11
505.5
21
135
0
LINE
8
bottom_outsideCutPath
10
505.5
20
135
11
529.5
21
135
0
LINE
8
bottom_outsideCutPath
10
529.5
20
135
11
529.5
21
138
0
LINE
8
bottom_outsideCutPath
10
529.5
20
138
11
553.5
21
138
0
LINE
8
bottom_outsideCutPath
10
553.5
20
138
11
553.5
21
135
0
LINE
8
bottom_outsideCutPath
10
553.5
20
135
11
577.5
21
135
0
LINE
8
bottom_outsideCutPath
10
577.5
20
135
11
577.5
21
138
0
LINE
8
bottom_outsideCutPath
10
577.5
20
138
11
601.5
21
138
0
LINE
8
bottom_outsideCutPath
10
601.5
20
138
11
601.5
21
135
0
LINE
8
bottom_outsideCutPath
10
601.5
20
135
11
625.5
21
135
0
LINE
8
bottom_outsideCutPath
10
625.5
20
135
11
625.5
21
138
0
LINE
8
bottom_outsideCutPath
10
625.5
20
138
11
642
21
138
0
LINE
8
bottom_outsideCutPath
10
642
20
138
11
642
21
163.5
0
LINE
8
bottom_outsideCutPath
10
642
20
163.5
11
645
21
163.5
0
LINE
8
bottom_outsideCutPath
10
645
20
163.5
11
645
21
187.5
0
LINE
8
bottom_outsideCutPath
10
645
20
187.5
11
642
21
187.5
0
LINE
8
bottom_outsideCutPath
10
642
20
187.5
11
642
21
211.5
0
LINE
8
bottom_outsideCutPath
10
642
20
211.5
11
645
21
211.5
0
LINE
8
bottom_outsideCutPath
10
645
20
211.5
11
645
21
235.5
0
LINE
8
bottom_outsideCutPath
10
645
20
235.5
11
642
21
235.5
0
LINE
8
bottom_outsideCutPath
10
642
20
235.5
11
642
21
259.5
0
LINE
8
bottom_outsideCutPath
10
642
20
259.5
11
642
21
261
0
LINE
8
bottom_outsideCutPath
10
642
20
261
11
625.5
21
261
0
LINE
8
bottom_outsideCutPath
10
625.5
20
261
11
625.5
21
264
0
LINE
8
bottom_outsideCutPath
10
625.5
20
264
11
601.5
21
264
0
LINE
8
bottom_outsideCutPath
10
601.5
20
264
11
601.5
21
261
0
LINE
8
bottom_outsideCutPath
10
601.5
20
261
11
577.5
21
261
0
LINE
8
bottom_outsideCutPath
10
577.5
20
261
11
577.5
21
264
0
LINE
8
bottom_outsideCutPath
10
577.5
20
264
11
553.5
21
264
0
LINE
8
bottom_outsideCutPath
10
553.5
20
264
11
553.5
21
261
0
LINE
8
bottom_outsideCutPath
10
553.5
20
261
11
529.5
21
261
0
LINE
8
bottom_outsideCutPath
10
529.5
20
261
11
529.5
21
264
0
LINE
8
bottom_outsideCutPath
10
529.5
20
264
11
505.5
21
264
0
LINE
8
bottom_outsideCutPath
10
505.5
20
264
11
505.5
21
261
0
LINE
8
bottom_outsideCutPath
10
505.5
20
261
11
481.5
21
261
0
LINE
8
bottom_outsideCutPath
10
481.5
20
261
11
481.5
21
264
0
LINE
8
bottom_outsideCutPath
10
481.5
20
264
11
457.5
21
264
0
LINE
8
bottom_outsideCutPath
10
457.5
20
264
11
457.5
21
261
0
LINE
8
bottom_outsideCutPath
10
457.5
20
261
11
433.5
21
261
0
LINE
8
bottom_outsideCutPath
10
433.5
20
261
11
433.5
21
264
0
LINE
8
bottom_outsideCutPath
10
433.5
20
264
11
409.5
21
264
0
LINE
8
bottom_outsideCutPath
10
409.5
20
264
11
409.5
21
261
0
LINE
8
bottom_outsideCutPath
10
409.5
20
261
11
393
21
261
0
LINE
8
bottom_labelLayer
10
477.149646
20
191.6015955
11
476.9984741
21
191.6015955
0
LINE
8
bottom_labelLayer
10
476.9984741
20
191.6015955
11
476.5575561
21
189.825326
0
LINE
8
bottom_labelLayer
10
476.5575561
20
189.825326
11
475.058435
21
189.825326
0
LINE
8
bottom_labelLayer
10
475.058435
20
189.825326
11
475.058435
21
209.4272791
0
LINE
8
bottom_labelLayer
10
475.058435
20
209.4272791
11
477.149646
21
209.4272791
0
LINE
8
bottom_labelLayer
10
477.149646
20
209.4272791
11
477.149646
21
204.665365
0
LINE
8
bottom_labelLayer
10
477.0488647
20
201.7930994
11
477.149646
21
201.7930994
0
ARC
8
bottom_labelLayer
10
481.5459724
20
197.4679514
40
6.3914715
50
74.2393374
51
90.5623709
0
ARC
8
bottom_labelLayer
10
481.9685992
20
199.0183764
40
4.7845631
50
38.5631276
51
74.0670416
0
ARC
8
bottom_labelLayer
10
480.8809939
20
198.1726999
40
6.1621829
50
16.4709276
51
38.4075289
0
ARC
8
bottom_labelLayer
10
477.7477536
20
197.1902088
40
9.4455646
50
5.133853
51
16.7973318
0
ARC
8
bottom_labelLayer
10
473.7923114
20
196.7700371
40
13.4228923
50
359.8779296
51
5.4093531
0
ARC
8
bottom_labelLayer
10
474.9541361
20
196.6690999
40
12.2612506
50
350.6562816
51
0.3380376
0
ARC
8
bottom_labelLayer
10
479.2286044
20
195.9420599
40
7.92549
50
335.8305939
51
350.8254827
0
ARC
8
bottom_labelLayer
10
481.1088695
20
195.1305103
40
5.8778473
50
321.3161476
51
335.5436206
0
ARC
8
bottom_labelLayer
10
481.8277064
20
194.5447674
40
4.9506221
50
274.0640034
51
321.4081023
0
ARC
8
bottom_labelLayer
10
481.4928241
20
196.6660181
40
7.0926518
50
269.9225753
51
275.5481777
0
ARC
8
bottom_labelLayer
10
481.4479736
20
195.9163684
40
6.3430936
50
255.7755402
51
270.3185524
0
ARC
8
bottom_labelLayer
10
481.2669612
20
195.1121463
40
5.5190943
50
245.9801638
51
255.5455737
0
ARC
8
bottom_labelLayer
10
480.9163531
20
194.2968031
40
4.6316546
50
215.5850143
51
245.8361619
0
ARC
8
bottom_labelLayer
10
433.5495283
20
204.6285112
40
43.6001333
50
358.1123142
51
0.0484303
0
ARC
8
bottom_labelLayer
10
445.6841343
20
204.2211131
40
31.4586936
50
355.7238658
51
358.1258985
0
ARC
8
bottom_labelLayer
10
450.9715326
20
203.8583741
40
26.1589872
50
355.4717358
51
355.6526442
0
ARC
8
bottom_labelLayer
10
481.0496638
20
199.0735115
40
4.754608
50
95.1835196
51
145.1108938
0
ARC
8
bottom_labelLayer
10
481.4675766
20
196.7168435
40
7.1422887
50
89.8743495
51
96.8145247
0
ARC
8
bottom_labelLayer
10
481.1371163
20
196.2317252
40
5.8764786
50
89.5731437
51
100.7324341
0
ARC
8
bottom_labelLayer
10
480.7020907
20
198.4296165
40
3.6360675
50
100.4469294
51
119.6700772
0
ARC
8
bottom_labelLayer
10
480.2986958
20
199.183812
40
2.7811656
50
120.140302
51
142.4248905
0
ARC
8
bottom_labelLayer
10
480.9660882
20
198.7423116
40
3.5797927
50
143.3382472
51
161.2559739
0
ARC
8
bottom_labelLayer
10
483.7569867
20
197.7514513
40
6.5412073
50
160.8926453
51
171.2334202
0
ARC
8
bottom_labelLayer
10
488.4160841
20
196.9998321
40
11.260476
50
171.0667899
51
177.845675
0
ARC
8
bottom_labelLayer
10
493.2612202
20
196.7534048
40
16.1115787
50
177.6176566
51
180.0425517
0
ARC
8
bottom_labelLayer
10
490.9764815
20
196.6874494
40
13.826941
50
179.7762773
51
185.7075245
0
ARC
8
bottom_labelLayer
10
485.5250167
20
196.1257572
40
8.346658
50
185.5924949
51
194.2050589
0
ARC
8
bottom_labelLayer
10
482.0328493
20
195.2194204
40
4.7389092
50
193.9430455
51
208.0218349
0
ARC
8
bottom_labelLayer
10
480.6199205
20
194.5006261
40
3.1540605
50
208.5536654
51
217.5605163
0
ARC
8
bottom_labelLayer
10
480.5047963
20
194.452742
40
3.0337814
50
218.1690587
51
253.8047126
0
ARC
8
bottom_labelLayer
10
481.0675027
20
196.187621
40
4.857089
50
253.1382348
51
266.8483151
0
ARC
8
bottom_labelLayer
10
481.2252923
20
198.0484311
40
6.7239867
50
266.3775666
51
270.0510781
0
ARC
8
bottom_labelLayer
10
481.2758953
20
195.4930135
40
4.1688052
50
269.3868893
51
285.8630774
0
ARC
8
bottom_labelLayer
10
481.5856104
20
194.3736614
40
3.0074341
50
286.0162993
51
326.8497252
0
ARC
8
bottom_labelLayer
10
480.0907609
20
195.3639445
40
4.8005181
50
326.7104988
51
343.6661758
0
ARC
8
bottom_labelLayer
10
477.2924812
20
196.2190072
40
7.7264028
50
343.4171408
51
353.6369102
0
ARC
8
bottom_labelLayer
10
473.065969
20
196.7205128
40
11.9824963
50
353.4934752
51
0.2205376
0
ARC
8
bottom_labelLayer
10
472.6934457
20
196.8166464
40
12.3550319
50
359.7680721
51
6.3095283
0
ARC
8
bottom_labelLayer
10
477.3473067
20
197.3507054
40
7.6706923
50
6.1648708
51
16.0396318
0
ARC
8
bottom_labelLayer
10
480.3452824
20
198.2342061
40
4.5453596
50
15.7779505
51
32.0151216
0
ARC
8
bottom_labelLayer
10
481.2802495
20
198.7696396
40
3.4689872
50
32.703349
51
35.524271
0
ARC
8
bottom_labelLayer
10
481.6220788
20
199.0125993
40
3.0496118
50
35.5408366
51
79.8011216
0
ARC
8
bottom_labelLayer
10
481.2125462
20
197.2715912
40
4.8365532
50
78.6781391
51
90.3749447
0
ARC
8
bottom_labelLayer
10
491.9841734
20
196.6686167
40
10.8019485
50
349.1761839
51
0.3862689
0
ARC
8
bottom_labelLayer
10
495.6209235
20
195.9436221
40
7.0938123
50
330.2507121
51
349.411646
0
ARC
8
bottom_labelLayer
10
496.7401256
20
195.3619088
40
5.8336828
50
318.1439873
51
329.7566028
0
ARC
8
bottom_labelLayer
10
496.9421408
20
195.2000141
40
5.5752092
50
278.8959138
51
317.9979137
0
ARC
8
bottom_labelLayer
10
496.4216582
20
197.6936824
40
8.1203868
50
269.7502863
51
279.8033333
0
ARC
8
bottom_labelLayer
10
496.3372455
20
196.2886568
40
6.7154629
50
253.5436937
51
270.4182512
0
ARC
8
bottom_labelLayer
10
496.1137029
20
195.4239349
40
5.8229176
50
238.8115539
51
253.2428285
0
ARC
8
bottom_labelLayer
10
496.0415573
20
195.2788496
40
5.6614566
50
207.7947066
51
238.6757922
0
ARC
8
bottom_labelLayer
10
497.0768143
20
195.9128924
40
6.8733714
50
205.6560234
51
208.4461228
0
ARC
8
bottom_labelLayer
10
497.8741785
20
196.2451254
40
7.7361045
50
188.9102454
51
205.3171489
0
ARC
8
bottom_labelLayer
10
500.5614206
20
196.7002592
40
10.4614651
50
179.7744627
51
189.0932945
0
ARC
8
bottom_labelLayer
10
500.9578499
20
196.8149827
40
10.8580624
50
169.2442989
51
180.3880768
0
ARC
8
bottom_labelLayer
10
497.2705339
20
197.5438309
40
7.0995616
50
150.7111455
51
169.4695438
0
ARC
8
bottom_labelLayer
10
496.0934365
20
198.1483122
40
5.777424
50
138.1759463
51
150.2287277
0
ARC
8
bottom_labelLayer
10
495.8976278
20
198.2985732
40
5.5313387
50
99.1759316
51
137.9832774
0
ARC
8
bottom_labelLayer
10
496.4365489
20
195.7623497
40
8.1220489
50
89.7326271
51
100.0759772
0
ARC
8
bottom_labelLayer
10
496.5442622
20
196.8576582
40
7.0269989
50
73.5222776
51
90.5692296
0
ARC
8
bottom_labelLayer
10
496.9563539
20
198.3548977
40
5.4744437
50
41.1445628
51
73.2133841
0
ARC
8
bottom_labelLayer
10
496.1697053
20
197.6787826
40
6.5116938
50
13.5014342
51
41.0703487
0
ARC
8
bottom_labelLayer
10
493.130497
20
196.8834613
40
9.6528047
50
1.1277144
51
13.8800064
0
ARC
8
bottom_labelLayer
10
490.5129726
20
196.7431816
40
12.2729039
50
359.9918656
51
1.5419839
0
ARC
8
bottom_labelLayer
10
502.8565423
20
196.6870932
40
10.5898483
50
179.7059627
51
187.9160805
0
ARC
8
bottom_labelLayer
10
498.9725093
20
196.1291548
40
6.6660097
50
187.7639201
51
200.097697
0
ARC
8
bottom_labelLayer
10
496.832823
20
195.3451697
40
4.3872187
50
200.0845911
51
216.9131583
0
ARC
8
bottom_labelLayer
10
496.0514809
20
194.7872551
40
3.427492
50
217.3009554
51
261.7099058
0
ARC
8
bottom_labelLayer
10
496.4142073
20
196.5181526
40
5.1937542
50
260.5033218
51
270.2476658
0
ARC
8
bottom_labelLayer
10
496.4834405
20
196.1815651
40
4.8573433
50
269.4481555
51
284.7255699
0
ARC
8
bottom_labelLayer
10
496.8679668
20
194.7554806
40
3.3803698
50
284.566235
51
322.6333781
0
ARC
8
bottom_labelLayer
10
495.9689247
20
195.4049983
40
4.489197
50
323.0089226
51
342.6390574
0
ARC
8
bottom_labelLayer
10
493.3974682
20
196.2454261
40
7.1943681
50
342.3615615
51
353.7537609
0
ARC
8
bottom_labelLayer
10
489.6037001
20
196.7027154
40
11.0154476
50
353.5363083
51
0.2014187
0
ARC
8
bottom_labelLayer
10
490.1849498
20
196.7946951
40
10.4342656
50
359.7075646
51
7.8972639
0
ARC
8
bottom_labelLayer
10
494.0062748
20
197.3425159
40
6.5739364
50
7.7439934
51
20.069021
0
ARC
8
bottom_labelLayer
10
496.1356594
20
198.1239193
40
4.3057094
50
20.0257181
51
37.4350489
0
ARC
8
bottom_labelLayer
10
496.842177
20
198.6252537
40
3.4401053
50
37.9577632
51
80.4006252
0
ARC
8
bottom_labelLayer
10
496.4406874
20
196.8338403
40
5.2742813
50
79.3453601
51
90.3174803
0
ARC
8
bottom_labelLayer
10
496.3663457
20
197.1314075
40
4.9768378
50
89.4805879
51
103.8805004
0
ARC
8
bottom_labelLayer
10
495.9481631
20
198.7238464
40
3.330666
50
103.4685228
51
142.3118958
0
ARC
8
bottom_labelLayer
10
496.7611437
20
198.1521005
40
4.3237926
50
142.9025771
51
162.3749686
0
ARC
8
bottom_labelLayer
10
499.3228509
20
197.2984167
40
7.0238358
50
162.0653088
51
173.1674776
0
ARC
8
bottom_labelLayer
10
503.3172368
20
196.7889588
40
11.0505054
50
173.0086254
51
180.2463849
0
LINE
8
bottom_labelLayer
10
512.8010131
20
191.5512049
11
512.8010131
21
189.9513025
0
LINE
8
bottom_labelLayer
10
506.6029663
20
193.7935877
11
506.6029663
21
202.0072596
0
LINE
8
bottom_labelLayer
10
506.6029663
20
202.0072596
11
504.6251342
21
202.0072596
0
LINE
8
bottom_labelLayer
10
504.6251342
20
202.0072596
11
504.6251342
21
203.0150721
0
LINE
8
bottom_labelLayer
10
504.6251342
20
203.0150721
11
506.6029663
21
203.8843103
0
LINE
8
bottom_labelLayer
10
506.6029663
20
203.8843103
11
507.4848022
21
206.8321619
0
LINE
8
bottom_labelLayer
10
507.4848022
20
206.8321619
11
508.6941772
21
206.8321619
0
LINE
8
bottom_labelLayer
10
508.6941772
20
206.8321619
11
508.6941772
21
203.6323572
0
LINE
8
bottom_labelLayer
10
508.6941772
20
203.6323572
11
512.7002319
21
203.6323572
0
LINE
8
bottom_labelLayer
10
512.7002319
20
203.6323572
11
512.7002319
21
202.0072596
0
LINE
8
bottom_labelLayer
10
512.7002319
20
202.0072596
11
508.6941772
21
202.0072596
0
LINE
8
bottom_labelLayer
10
508.6941772
20
202.0072596
11
508.6941772
21
193.8817713
0
ARC
8
bottom_labelLayer
10
510.9257073
20
198.1670504
40
6.8678136
50
269.8803449
51
278.3028339
0
ARC
8
bottom_labelLayer
10
510.990304
20
197.6379247
40
6.334918
50
278.4157883
51
279.0078934
0
ARC
8
bottom_labelLayer
10
510.2205174
20
202.5555121
40
11.3123859
50
278.9589836
51
280.5104587
0
ARC
8
bottom_labelLayer
10
510.9548181
20
198.6155286
40
7.3045622
50
280.4848235
51
282.6267929
0
ARC
8
bottom_labelLayer
10
511.5989294
20
195.7538929
40
4.3713348
50
282.5877218
51
285.5794818
0
ARC
8
bottom_labelLayer
10
511.9199614
20
194.5728219
40
3.1474468
50
285.7245512
51
286.2557796
0
ARC
8
bottom_labelLayer
10
511.921803
20
191.8108839
40
2.0569525
50
287.988881
51
295.3047861
0
ARC
8
bottom_labelLayer
10
511.4257084
20
193.3117984
40
3.6377165
50
283.3069135
51
288.1198095
0
ARC
8
bottom_labelLayer
10
510.9015999
20
195.4980276
40
5.8858843
50
280.0069914
51
283.3734838
0
ARC
8
bottom_labelLayer
10
510.5505179
20
197.4034779
40
7.8233669
50
279.1864412
51
280.1141654
0
ARC
8
bottom_labelLayer
10
510.3356929
20
198.6252943
40
9.0638247
50
275.5260448
51
279.2939655
0
ARC
8
bottom_labelLayer
10
510.5782544
20
196.0917419
40
6.518689
50
270.8932318
51
275.5483907
0
ARC
8
bottom_labelLayer
10
510.6087414
20
194.9314984
40
5.3581256
50
270.002989
51
270.7606774
0
ARC
8
bottom_labelLayer
10
510.5246347
20
195.034658
40
5.461937
50
253.78479
51
270.8852479
0
ARC
8
bottom_labelLayer
10
509.87754
20
192.8278202
40
3.1621938
50
190.3817654
51
253.8772399
0
ARC
8
bottom_labelLayer
10
513.1757739
20
193.7196038
40
6.573224
50
179.3551029
51
192.8477582
0
ARC
8
bottom_labelLayer
10
512.9051058
20
193.8554356
40
4.211011
50
179.64167
51
189.7505899
0
ARC
8
bottom_labelLayer
10
511.4185372
20
193.5902888
40
2.7010287
50
189.5479693
51
205.7873584
0
ARC
8
bottom_labelLayer
10
510.8076143
20
193.3085733
40
2.0284256
50
206.1294397
51
221.4084273
0
ARC
8
bottom_labelLayer
10
510.7391182
20
193.2565993
40
1.9426863
50
221.5949306
51
262.3505107
0
ARC
8
bottom_labelLayer
10
510.9020329
20
194.0943704
40
2.7951343
50
261.3266211
51
270.1912871
0
LINE
8
bottom_labelLayer
10
521.9091186
20
191.5512049
11
521.9091186
21
189.9513025
0
LINE
8
bottom_labelLayer
10
515.7110717
20
193.7935877
11
515.7110717
21
202.0072596
0
LINE
8
bottom_labelLayer
10
515.7110717
20
202.0072596
11
513.7332397
21
202.0072596
0
LINE
8
bottom_labelLayer
10
513.7332397
20
202.0072596
11
513.7332397
21
203.0150721
0
LINE
8
bottom_labelLayer
10
513.7332397
20
203.0150721
11
515.7110717
21
203.8843103
0
LINE
8
bottom_labelLayer
10
515.7110717
20
203.8843103
11
516.5929077
21
206.8321619
0
LINE
8
bottom_labelLayer
10
516.5929077
20
206.8321619
11
517.8022827
21
206.8321619
0
LINE
8
bottom_labelLayer
10
517.8022827
20
206.8321619
11
517.8022827
21
203.6323572
0
LINE
8
bottom_labelLayer
10
517.8022827
20
203.6323572
11
521.8083374
21
203.6323572
0
LINE
8
bottom_labelLayer
10
521.8083374
20
203.6323572
11
521.8083374
21
202.0072596
0
LINE
8
bottom_labelLayer
10
521.8083374
20
202.0072596
11
517.8022827
21
202.0072596
0
LINE
8
bottom_labelLayer
10
517.8022827
20
202.0072596
11
517.8022827
21
193.8817713
0
ARC
8
bottom_labelLayer
10
520.0338127
20
198.1670504
40
6.8678136
50
269.8803449
51
278.3028339
0
ARC
8
bottom_labelLayer
10
520.0984095
20
197.6379247
40
6.334918
50
278.4157883
51
279.0078934
0
ARC
8
bottom_labelLayer
10
519.3286229
20
202.5555121
40
11.3123859
50
278.9589836
51
280.5104587
0
ARC
8
bottom_labelLayer
10
520.0629236
20
198.6155286
40
7.3045622
50
280.4848235
51
282.6267929
0
ARC
8
bottom_labelLayer
10
520.7070349
20
195.7538929
40
4.3713348
50
282.5877218
51
285.5794818
0
ARC
8
bottom_labelLayer
10
521.0280669
20
194.5728219
40
3.1474468
50
285.7245512
51
286.2557796
0
ARC
8
bottom_labelLayer
10
521.0299085
20
191.8108839
40
2.0569525
50
287.988881
51
295.3047861
0
ARC
8
bottom_labelLayer
10
520.5338139
20
193.3117984
40
3.6377165
50
283.3069135
51
288.1198095
0
ARC
8
bottom_labelLayer
10
520.0097054
20
195.4980276
40
5.8858843
50
280.0069914
51
283.3734838
0
ARC
8
bottom_labelLayer
10
519.6586233
20
197.4034779
40
7.8233669
50
279.1864412
51
280.1141654
0
ARC
8
bottom_labelLayer
10
519.4437983
20
198.6252943
40
9.0638247
50
275.5260448
51
279.2939655
0
ARC
8
bottom_labelLayer
10
519.6863599
20
196.0917419
40
6.518689
50
270.8932318
51
275.5483907
0
ARC
8
bottom_labelLayer
10
519.7168469
20
194.9314984
40
5.3581256
50
270.002989
51
270.7606774
0
ARC
8
bottom_labelLayer
10
519.6327402
20
195.034658
40
5.461937
50
253.78479
51
270.8852479
0
ARC
8
bottom_labelLayer
10
518.9856454
20
192.8278202
40
3.1621938
50
190.3817654
51
253.8772399
0
ARC
8
bottom_labelLayer
10
522.2838794
20
193.7196038
40
6.573224
50
179.3551029
51
192.8477582
0
ARC
8
bottom_labelLayer
10
522.0132113
20
193.8554356
40
4.211011
50
179.64167
51
189.7505899
0
ARC
8
bottom_labelLayer
10
520.5266427
20
193.5902888
40
2.7010287
50
189.5479693
51
205.7873584
0
ARC
8
bottom_labelLayer
10
519.9157198
20
193.3085733
40
2.0284256
50
206.1294397
51
221.4084273
0
ARC
8
bottom_labelLayer
10
519.8472237
20
193.2565993
40
1.9426863
50
221.5949306
51
262.3505107
0
ARC
8
bottom_labelLayer
10
520.0101384
20
194.0943704
40
2.7951343
50
261.3266211
51
270.1912871
0
ARC
8
bottom_labelLayer
10
525.7836851
20
196.6686167
40
10.8019485
50
349.1761839
51
0.3862689
0
ARC
8
bottom_labelLayer
10
529.4204352
20
195.9436221
40
7.0938123
50
330.2507121
51
349.411646
0
ARC
8
bottom_labelLayer
10
530.5396373
20
195.3619088
40
5.8336828
50
318.1439873
51
329.7566028
0
ARC
8
bottom_labelLayer
10
530.7416525
20
195.2000141
40
5.5752092
50
278.8959138
51
317.9979137
0
ARC
8
bottom_labelLayer
10
530.2211699
20
197.6936824
40
8.1203868
50
269.7502863
51
279.8033333
0
ARC
8
bottom_labelLayer
10
530.1367573
20
196.2886568
40
6.7154629
50
253.5436937
51
270.4182512
0
ARC
8
bottom_labelLayer
10
529.9132146
20
195.4239349
40
5.8229176
50
238.8115539
51
253.2428285
0
ARC
8
bottom_labelLayer
10
529.841069
20
195.2788496
40
5.6614566
50
207.7947066
51
238.6757922
0
ARC
8
bottom_labelLayer
10
530.876326
20
195.9128924
40
6.8733714
50
205.6560234
51
208.4461228
0
ARC
8
bottom_labelLayer
10
531.6736903
20
196.2451254
40
7.7361045
50
188.9102454
51
205.3171489
0
ARC
8
bottom_labelLayer
10
534.3609324
20
196.7002592
40
10.4614651
50
179.7744627
51
189.0932945
0
ARC
8
bottom_labelLayer
10
534.7573616
20
196.8149827
40
10.8580624
50
169.2442989
51
180.3880768
0
ARC
8
bottom_labelLayer
10
531.0700456
20
197.5438309
40
7.0995616
50
150.7111455
51
169.4695438
0
ARC
8
bottom_labelLayer
10
529.8929482
20
198.1483122
40
5.777424
50
138.1759463
51
150.2287277
0
ARC
8
bottom_labelLayer
10
529.6971395
20
198.2985732
40
5.5313387
50
99.1759316
51
137.9832774
0
ARC
8
bottom_labelLayer
10
530.2360606
20
195.7623497
40
8.1220489
50
89.7326271
51
100.0759772
0
ARC
8
bottom_labelLayer
10
530.343774
20
196.8576582
40
7.0269989
50
73.5222776
51
90.5692296
0
ARC
8
bottom_labelLayer
10
530.7558656
20
198.3548977
40
5.4744437
50
41.1445628
51
73.2133841
0
ARC
8
bottom_labelLayer
10
529.969217
20
197.6787826
40
6.5116938
50
13.5014342
51
41.0703487
0
ARC
8
bottom_labelLayer
10
526.9300088
20
196.8834613
40
9.6528047
50
1.1277144
51
13.8800064
0
ARC
8
bottom_labelLayer
10
524.3124843
20
196.7431816
40
12.2729039
50
359.9918656
51
1.5419839
0
ARC
8
bottom_labelLayer
10
536.656054
20
196.6870932
40
10.5898483
50
179.7059627
51
187.9160805
0
ARC
8
bottom_labelLayer
10
532.772021
20
196.1291548
40
6.6660097
50
187.7639201
51
200.097697
0
ARC
8
bottom_labelLayer
10
530.6323347
20
195.3451697
40
4.3872187
50
200.0845911
51
216.9131583
0
ARC
8
bottom_labelLayer
10
529.8509926
20
194.7872551
40
3.427492
50
217.3009554
51
261.7099058
0
ARC
8
bottom_labelLayer
10
530.213719
20
196.5181526
40
5.1937542
50
260.5033218
51
270.2476658
0
ARC
8
bottom_labelLayer
10
530.2829522
20
196.1815651
40
4.8573433
50
269.4481555
51
284.7255699
0
ARC
8
bottom_labelLayer
10
530.6674785
20
194.7554806
40
3.3803698
50
284.566235
51
322.6333781
0
ARC
8
bottom_labelLayer
10
529.7684365
20
195.4049983
40
4.489197
50
323.0089226
51
342.6390574
0
ARC
8
bottom_labelLayer
10
527.19698
20
196.2454261
40
7.1943681
50
342.3615615
51
353.7537609
0
ARC
8
bottom_labelLayer
10
523.4032118
20
196.7027154
40
11.0154476
50
353.5363083
51
0.2014187
0
ARC
8
bottom_labelLayer
10
523.9844615
20
196.7946951
40
10.4342656
50
359.7075646
51
7.8972639
0
ARC
8
bottom_labelLayer
10
527.8057865
20
197.3425159
40
6.5739364
50
7.7439934
51
20.069021
0
ARC
8
bottom_labelLayer
10
529.9351712
20
198.1239193
40
4.3057094
50
20.0257181
51
37.4350489
0
ARC
8
bottom_labelLayer
10
530.6416888
20
198.6252537
40
3.4401053
50
37.9577632
51
80.4006252
0
ARC
8
bottom_labelLayer
10
530.2401991
20
196.8338403
40
5.2742813
50
79.3453601
51
90.3174803
0
ARC
8
bottom_labelLayer
10
530.1658574
20
197.1314075
40
4.9768378
50
89.4805879
51
103.8805004
0
ARC
8
bottom_labelLayer
10
529.7476749
20
198.7238464
40
3.330666
50
103.4685228
51
142.3118958
0
ARC
8
bottom_labelLayer
10
530.5606554
20
198.1521005
40
4.3237926
50
142.9025771
51
162.3749686
0
ARC
8
bottom_labelLayer
10
533.1223626
20
197.2984167
40
7.0238358
50
162.0653088
51
173.1674776
0
ARC
8
bottom_labelLayer
10
537.1167485
20
196.7889588
40
11.0505054
50
173.0086254
51
180.2463849
0
LINE
8
bottom_labelLayer
10
559.9414428
20
189.825326
11
557.8502319
21
189.825326
0
LINE
8
bottom_labelLayer
10
557.8502319
20
189.825326
11
557.8502319
21
198.8074549
0
LINE
8
bottom_labelLayer
10
551.1356811
20
197.5350916
11
551.1356811
21
189.825326
0
LINE
8
bottom_labelLayer
10
551.1356811
20
189.825326
11
549.0444702
21
189.825326
0
LINE
8
bottom_labelLayer
10
549.0444702
20
189.825326
11
549.0444702
21
198.8074549
0
LINE
8
bottom_labelLayer
10
542.342517
20
197.0689783
11
542.342517
21
189.825326
0
LINE
8
bottom_labelLayer
10
542.342517
20
189.825326
11
540.2513061
21
189.825326
0
LINE
8
bottom_labelLayer
10
540.2513061
20
189.825326
11
540.2513061
21
203.6323572
0
LINE
8
bottom_labelLayer
10
540.2513061
20
203.6323572
11
541.9519897
21
203.6323572
0
LINE
8
bottom_labelLayer
10
541.9519897
20
203.6323572
11
542.2921264
21
201.7427088
0
LINE
8
bottom_labelLayer
10
542.2921264
20
201.7427088
11
542.3929077
21
201.7427088
0
LINE
8
bottom_labelLayer
10
550.7073608
20
201.5411463
11
550.808142
21
201.5411463
0
LINE
8
bottom_labelLayer
10
559.9414428
20
198.8326502
11
559.9414428
21
189.825326
0
ARC
8
bottom_labelLayer
10
551.6810927
20
198.8403147
40
6.1692267
50
359.6948177
51
8.1471503
0
ARC
8
bottom_labelLayer
10
553.9534148
20
199.176594
40
3.8721973
50
7.9864406
51
20.7949703
0
ARC
8
bottom_labelLayer
10
555.2094851
20
199.6577492
40
2.5271322
50
20.7071138
51
40.0217788
0
ARC
8
bottom_labelLayer
10
555.4850373
20
199.8380404
40
2.200521
50
41.0407985
51
73.1792609
0
ARC
8
bottom_labelLayer
10
555.0863114
20
198.6320909
40
3.4704102
50
72.6395365
51
86.2568022
0
ARC
8
bottom_labelLayer
10
554.9585769
20
197.2536902
40
4.854354
50
85.8144981
51
90.0685272
0
ARC
8
bottom_labelLayer
10
554.9116497
20
196.7271824
40
5.3810155
50
89.5621458
51
101.2961799
0
ARC
8
bottom_labelLayer
10
554.5063663
20
198.6674065
40
3.3990354
50
101.0032215
51
121.7840623
0
ARC
8
bottom_labelLayer
10
554.1982535
20
199.2174736
40
2.7693077
50
122.3597178
51
140.2884015
0
ARC
8
bottom_labelLayer
10
554.7525843
20
198.8110196
40
3.45568
50
140.9765295
51
161.1699434
0
ARC
8
bottom_labelLayer
10
556.8408635
20
198.0678483
40
5.6721383
50
160.8731758
51
172.5272605
0
ARC
8
bottom_labelLayer
10
560.3303605
20
197.5859237
40
9.1947063
50
172.3776642
51
180.1829594
0
ARC
8
bottom_labelLayer
10
562.8821092
20
197.5349951
40
11.7464281
50
179.8947984
51
179.9995294
0
ARC
8
bottom_labelLayer
10
542.8753309
20
198.8403147
40
6.1692267
50
359.6948177
51
8.1471503
0
ARC
8
bottom_labelLayer
10
545.1476531
20
199.176594
40
3.8721973
50
7.9864406
51
20.7949703
0
ARC
8
bottom_labelLayer
10
546.4037234
20
199.6577492
40
2.5271322
50
20.7071138
51
40.0217788
0
ARC
8
bottom_labelLayer
10
546.6850052
20
199.8419996
40
2.1936
50
41.0610644
51
72.8993575
0
ARC
8
bottom_labelLayer
10
546.2787259
20
198.6324643
40
3.4692818
50
72.3600885
51
85.9561793
0
ARC
8
bottom_labelLayer
10
546.1411935
20
197.211117
40
4.8969286
50
85.5237598
51
90.0793507
0
ARC
8
bottom_labelLayer
10
546.0942818
20
196.914232
40
5.1939638
50
89.5573146
51
101.4832152
0
ARC
8
bottom_labelLayer
10
545.6956285
20
198.7820134
40
3.2842594
50
101.154645
51
123.0655663
0
ARC
8
bottom_labelLayer
10
545.4246478
20
199.2540529
40
2.7409908
50
123.702074
51
142.3021925
0
ARC
8
bottom_labelLayer
10
546.0594079
20
198.8234243
40
3.5068915
50
143.0769704
51
161.3913744
0
ARC
8
bottom_labelLayer
10
548.6180899
20
197.9197553
40
6.2202973
50
161.0234346
51
171.4469155
0
ARC
8
bottom_labelLayer
10
552.8539759
20
197.2562186
40
10.5077913
50
171.3042059
51
178.3501626
0
ARC
8
bottom_labelLayer
10
556.9019424
20
197.0754181
40
14.5594268
50
178.0975938
51
180.0253426
0
ARC
8
bottom_labelLayer
10
545.9357009
20
199.659372
40
4.1099484
50
117.1209501
51
149.5423761
0
ARC
8
bottom_labelLayer
10
546.3551576
20
198.913842
40
4.9648352
50
93.8343328
51
117.5072177
0
ARC
8
bottom_labelLayer
10
546.4710079
20
197.8877373
40
5.996574
50
89.9661725
51
94.2831575
0
ARC
8
bottom_labelLayer
10
546.5404248
20
197.0379807
40
6.8466465
50
77.5572334
51
90.5512922
0
ARC
8
bottom_labelLayer
10
547.1757181
20
199.770501
40
4.0415491
50
52.7027104
51
78.0053756
0
ARC
8
bottom_labelLayer
10
547.4020618
20
200.1916201
40
3.5701851
50
22.2097858
51
51.4970559
0
ARC
8
bottom_labelLayer
10
554.5964632
20
199.3700507
40
4.3663524
50
119.4041836
51
150.1828788
0
ARC
8
bottom_labelLayer
10
555.0806511
20
198.6337644
40
5.245856
50
118.2583709
51
120.0630337
0
ARC
8
bottom_labelLayer
10
555.0793318
20
198.5798202
40
5.2928139
50
95.8635111
51
117.969316
0
ARC
8
bottom_labelLayer
10
555.2584635
20
197.2845694
40
6.5997475
50
89.9197062
51
96.261761
0
ARC
8
bottom_labelLayer
10
555.315969
20
196.6152991
40
7.2691714
50
79.9361041
51
90.3803631
0
ARC
8
bottom_labelLayer
10
555.8003256
20
199.238522
40
4.6017085
50
62.9723162
51
80.1665156
0
ARC
8
bottom_labelLayer
10
556.3066545
20
200.2773123
40
3.4463452
50
44.2289983
51
62.6229068
0
ARC
8
bottom_labelLayer
10
556.1560609
20
200.210786
40
3.6011153
50
19.5611938
51
43.3161185
0
ARC
8
bottom_labelLayer
10
553.9689362
20
199.3893
40
5.9372007
50
7.5041962
51
19.964529
0
ARC
8
bottom_labelLayer
10
550.3498744
20
198.8810759
40
9.5916906
50
359.7107287
51
7.6907254
0
ENDSEC
0
EOF