<svg width="645mm" height="643mm" viewBox="0 0 645 643" xmlns="http://www.w3.org/2000/svg" version="1.1" preserveAspectRatio="xMidYMid meet"><g id="svgGroup" stroke-linecap="round" fill-rule="evenodd" font-size="9pt" stroke="#000" stroke-width="0.25mm" fill="none" style="stroke:#000;stroke-width:0.25mm;fill:none"><path d="M 0 323 L 0 351 L 3 351 L 3 375 L 0 375 L 0 399 L 3 399 L 3 423 L 0 423 L 0 447 L 3 447 L 3 471 L 0 471 L 0 495 L 3 495 L 3 519 L 0 519 L 0 543 L 3 543 L 3 567 L 0 567 L 0 591 L 3 591 L 3 615 L 0 615 L 0 643 L 19.5 643 L 19.5 640 L 43.5 640 L 43.5 643 L 67.5 643 L 67.5 640 L 91.5 640 L 91.5 643 L 115.5 643 L 115.5 640 L 139.5 640 L 139.5 643 L 163.5 643 L 163.5 640 L 187.5 640 L 187.5 643 L 211.5 643 L 211.5 640 L 235.5 640 L 235.5 643 L 255 643 L 255 615 L 252 615 L 252 591 L 255 591 L 255 567 L 252 567 L 252 543 L 255 543 L 255 519 L 252 519 L 252 495 L 255 495 L 255 471 L 252 471 L 252 447 L 255 447 L 255 423 L 252 423 L 252 399 L 255 399 L 255 375 L 252 375 L 252 351 L 255 351 L 255 323 L 235.5 323 L 235.5 326 L 211.5 326 L 211.5 323 L 187.5 323 L 187.5 326 L 163.5 326 L 163.5 323 L 139.5 323 L 139.5 326 L 115.5 326 L 115.5 323 L 91.5 323 L 91.5 326 L 67.5 326 L 67.5 323 L 43.5 323 L 43.5 326 L 19.5 326 L 19.5 323 L 0 323 Z" id="front_outsideCutPath" stroke="#FF0000" stroke-width="0.1" style="stroke:#FF0000;stroke-width:0.1" vector-effect="non-scaling-stroke"/><path d="M 164.667 502.261 L 160.533 502.261 L 160.533 484.606 A 11.685 11.685 0 0 0 160.399 482.774 Q 160.082 480.781 159.014 479.625 A 4.661 4.661 0 0 0 157.102 478.405 Q 155.902 477.982 154.258 477.982 A 12.511 12.511 0 0 0 151.916 478.186 Q 149.383 478.669 147.982 480.298 Q 145.99 482.613 145.99 487.943 L 145.99 502.261 L 141.856 502.261 L 141.856 474.968 L 145.218 474.968 L 145.89 478.704 L 146.09 478.704 A 8.37 8.37 0 0 1 149.368 475.721 A 10.065 10.065 0 0 1 149.651 475.579 A 11.194 11.194 0 0 1 153.634 474.516 A 13.536 13.536 0 0 1 154.756 474.47 A 16.321 16.321 0 0 1 157.534 474.691 Q 159.035 474.951 160.222 475.516 A 7.428 7.428 0 0 1 162.177 476.849 A 7.164 7.164 0 0 1 163.922 479.589 Q 164.341 480.718 164.524 482.117 A 18.04 18.04 0 0 1 164.667 484.456 L 164.667 502.261 Z M 85.253 474.968 L 85.253 478.181 L 78.305 478.181 L 78.305 502.261 L 74.172 502.261 L 74.172 478.181 L 69.291 478.181 L 69.291 476.313 L 74.172 474.819 L 74.172 473.3 Q 74.172 464.615 80.723 463.428 A 12.565 12.565 0 0 1 82.962 463.239 Q 85.129 463.239 88.042 464.111 L 86.971 467.423 Q 85.273 466.875 83.927 466.716 A 8.89 8.89 0 0 0 82.887 466.651 A 5.575 5.575 0 0 0 81.544 466.803 A 3.58 3.58 0 0 0 79.426 468.207 A 4.783 4.783 0 0 0 78.794 469.482 Q 78.374 470.728 78.315 472.579 A 19.517 19.517 0 0 0 78.305 473.2 L 78.305 474.968 L 85.253 474.968 Z M 185.709 498.85 L 185.709 502.012 A 4.066 4.066 0 0 1 185.227 502.204 Q 184.628 502.402 183.729 502.548 Q 182.422 502.759 181.376 502.759 Q 175.06 502.759 173.782 497.453 A 12.994 12.994 0 0 1 173.457 494.417 L 173.457 478.181 L 169.548 478.181 L 169.548 476.189 L 173.457 474.47 L 175.2 468.643 L 177.591 468.643 L 177.591 474.968 L 185.51 474.968 L 185.51 478.181 L 177.591 478.181 L 177.591 494.243 Q 177.591 496.708 178.761 498.028 A 3.84 3.84 0 0 0 181.122 499.285 A 5.525 5.525 0 0 0 181.974 499.348 A 13.576 13.576 0 0 0 183.963 499.206 A 12.51 12.51 0 0 0 184.091 499.186 A 22.362 22.362 0 0 0 184.687 499.084 Q 185.258 498.977 185.654 498.866 A 6.206 6.206 0 0 0 185.709 498.85 Z M 105.947 474.769 L 105.374 478.604 Q 103.681 478.231 102.386 478.231 A 7.163 7.163 0 0 0 97.094 480.516 A 9.799 9.799 0 0 0 96.721 480.92 A 9.44 9.44 0 0 0 94.443 486.221 A 12.547 12.547 0 0 0 94.367 487.619 L 94.367 502.261 L 90.234 502.261 L 90.234 474.968 L 93.645 474.968 L 94.118 480.024 L 94.318 480.024 A 13.96 13.96 0 0 1 95.879 477.794 A 10.664 10.664 0 0 1 97.978 475.915 Q 100.12 474.47 102.685 474.47 A 18.978 18.978 0 0 1 104.384 474.543 A 13.851 13.851 0 0 1 105.947 474.769 Z M 134.61 488.59 Q 134.61 495.264 131.248 499.012 A 11.021 11.021 0 0 1 124.762 502.525 A 16.052 16.052 0 0 1 121.959 502.759 A 13.275 13.275 0 0 1 118.102 502.216 A 11.51 11.51 0 0 1 115.46 501.041 A 11.191 11.191 0 0 1 111.378 496.7 A 13.587 13.587 0 0 1 111.077 496.111 A 15.292 15.292 0 0 1 109.793 491.94 A 20.68 20.68 0 0 1 109.533 488.59 A 21.464 21.464 0 0 1 109.91 484.439 Q 110.654 480.666 112.87 478.193 A 10.934 10.934 0 0 1 119.25 474.718 A 16.055 16.055 0 0 1 122.134 474.47 A 13.891 13.891 0 0 1 126.212 475.04 A 10.822 10.822 0 0 1 131.235 478.28 A 12.872 12.872 0 0 1 134.047 483.732 Q 134.539 485.661 134.601 487.934 A 24.261 24.261 0 0 1 134.61 488.59 Z M 113.816 488.59 A 20.933 20.933 0 0 0 114.015 491.58 Q 114.235 493.099 114.697 494.328 A 8.672 8.672 0 0 0 115.908 496.559 A 6.775 6.775 0 0 0 120.321 499.157 A 10.267 10.267 0 0 0 122.059 499.298 A 9.602 9.602 0 0 0 124.592 498.983 A 6.682 6.682 0 0 0 128.222 496.571 Q 129.787 494.543 130.188 491.118 A 21.775 21.775 0 0 0 130.326 488.59 A 20.626 20.626 0 0 0 130.131 485.651 Q 129.915 484.155 129.461 482.943 A 8.511 8.511 0 0 0 128.222 480.684 A 6.8 6.8 0 0 0 123.994 478.161 A 10.426 10.426 0 0 0 122.009 477.982 A 9.838 9.838 0 0 0 119.56 478.269 A 6.584 6.584 0 0 0 115.883 480.646 Q 113.816 483.311 113.816 488.59 Z" id="front_labelLayer" stroke="#777777" fill="#777777" style="stroke:#777777;fill:#777777" vector-effect="non-scaling-stroke"/><path d="M 261 323 L 261 351 L 258 351 L 258 375 L 261 375 L 261 399 L 258 399 L 258 423 L 261 423 L 261 447 L 258 447 L 258 471 L 261 471 L 261 495 L 258 495 L 258 519 L 261 519 L 261 543 L 258 543 L 258 567 L 261 567 L 261 591 L 258 591 L 258 615 L 261 615 L 261 643 L 286.5 643 L 286.5 640 L 310.5 640 L 310.5 643 L 334.5 643 L 334.5 640 L 358.5 640 L 358.5 643 L 382.5 643 L 384 643 L 384 615 L 387 615 L 387 591 L 384 591 L 384 567 L 387 567 L 387 543 L 384 543 L 384 519 L 387 519 L 387 495 L 384 495 L 384 471 L 387 471 L 387 447 L 384 447 L 384 423 L 387 423 L 387 399 L 384 399 L 384 375 L 387 375 L 387 351 L 384 351 L 384 323 L 358.5 323 L 358.5 326 L 334.5 326 L 334.5 323 L 310.5 323 L 310.5 326 L 286.5 326 L 286.5 323 L 262.5 323 L 261 323 Z" id="left_outsideCutPath" stroke="#FF0000" stroke-width="0.1" style="stroke:#FF0000;stroke-width:0.1" vector-effect="non-scaling-stroke"/><path d="M 331.677 478.937 L 331.677 480.562 L 328.163 480.562 L 328.163 492.744 L 326.071 492.744 L 326.071 480.562 L 323.602 480.562 L 323.602 479.617 L 326.071 478.861 L 326.071 478.093 Q 326.071 473.003 330.518 473.003 A 6.734 6.734 0 0 1 331.471 473.076 Q 332.213 473.183 333.088 473.444 L 332.547 475.12 A 10.155 10.155 0 0 0 331.757 474.898 Q 331.358 474.804 331.007 474.762 A 4.497 4.497 0 0 0 330.481 474.729 A 2.82 2.82 0 0 0 329.801 474.806 A 1.811 1.811 0 0 0 328.73 475.517 Q 328.215 476.231 328.168 477.728 A 9.873 9.873 0 0 0 328.163 478.043 L 328.163 478.937 L 331.677 478.937 Z M 321.889 484.896 L 321.889 486.218 L 312.378 486.218 A 8.393 8.393 0 0 0 312.525 487.624 Q 312.676 488.389 312.978 488.993 A 3.926 3.926 0 0 0 313.606 489.91 A 3.8 3.8 0 0 0 315.601 491.034 A 5.757 5.757 0 0 0 316.888 491.169 Q 319.118 491.169 321.297 490.237 L 321.297 492.102 Q 320.188 492.58 319.199 492.788 A 8.779 8.779 0 0 1 318.328 492.923 Q 317.9 492.968 317.415 492.986 A 17.038 17.038 0 0 1 316.812 492.996 A 8.126 8.126 0 0 1 314.779 492.755 A 5.754 5.754 0 0 1 311.981 491.132 A 6.154 6.154 0 0 1 310.509 488.428 Q 310.253 487.47 310.217 486.331 A 11.945 11.945 0 0 1 310.211 485.954 Q 310.211 482.615 311.855 480.65 Q 313.499 478.685 316.27 478.685 A 6.371 6.371 0 0 1 318.064 478.925 A 4.848 4.848 0 0 1 320.377 480.392 A 5.847 5.847 0 0 1 321.702 483.064 A 8.511 8.511 0 0 1 321.889 484.896 Z M 340.546 491.018 L 340.546 492.618 A 2.057 2.057 0 0 1 340.302 492.715 Q 339.999 492.815 339.545 492.889 A 9.064 9.064 0 0 1 338.954 492.966 Q 338.635 492.996 338.354 492.996 A 5.462 5.462 0 0 1 336.745 492.779 Q 334.975 492.233 334.512 490.311 A 6.573 6.573 0 0 1 334.348 488.776 L 334.348 480.562 L 332.37 480.562 L 332.37 479.554 L 334.348 478.685 L 335.23 475.737 L 336.439 475.737 L 336.439 478.937 L 340.445 478.937 L 340.445 480.562 L 336.439 480.562 L 336.439 488.688 A 4.211 4.211 0 0 0 336.5 489.427 Q 336.573 489.833 336.732 490.154 A 2.028 2.028 0 0 0 337.031 490.602 A 1.943 1.943 0 0 0 338.226 491.238 A 2.795 2.795 0 0 0 338.656 491.27 A 6.868 6.868 0 0 0 339.663 491.198 A 6.335 6.335 0 0 0 339.727 491.188 A 11.312 11.312 0 0 0 340.029 491.136 Q 340.338 491.079 340.546 491.018 Z M 306.545 473.142 L 306.545 492.744 L 304.454 492.744 L 304.454 473.142 L 306.545 473.142 Z M 312.428 484.518 L 319.647 484.518 Q 319.647 483.18 319.243 482.266 A 3.235 3.235 0 0 0 318.765 481.488 A 2.865 2.865 0 0 0 317.039 480.506 A 4.298 4.298 0 0 0 316.245 480.436 A 4.122 4.122 0 0 0 315.054 480.6 A 3.185 3.185 0 0 0 313.593 481.52 A 4.131 4.131 0 0 0 312.772 482.905 Q 312.511 483.62 312.428 484.518 Z" id="left_labelLayer" stroke="#777777" fill="#777777" style="stroke:#777777;fill:#777777" vector-effect="non-scaling-stroke"/><path d="M 393 517 L 393 542.5 L 390 542.5 L 390 566.5 L 393 566.5 L 393 590.5 L 390 590.5 L 390 614.5 L 393 614.5 L 393 638.5 L 393 640 L 409.5 640 L 409.5 643 L 433.5 643 L 433.5 640 L 457.5 640 L 457.5 643 L 481.5 643 L 481.5 640 L 505.5 640 L 505.5 643 L 529.5 643 L 529.5 640 L 553.5 640 L 553.5 643 L 577.5 643 L 577.5 640 L 601.5 640 L 601.5 643 L 625.5 643 L 625.5 640 L 642 640 L 642 614.5 L 645 614.5 L 645 590.5 L 642 590.5 L 642 566.5 L 645 566.5 L 645 542.5 L 642 542.5 L 642 518.5 L 642 517 L 625.5 517 L 625.5 514 L 601.5 514 L 601.5 517 L 577.5 517 L 577.5 514 L 553.5 514 L 553.5 517 L 529.5 517 L 529.5 514 L 505.5 514 L 505.5 517 L 481.5 517 L 481.5 514 L 457.5 514 L 457.5 517 L 433.5 517 L 433.5 514 L 409.5 514 L 409.5 517 L 393 517 Z" id="top_outsideCutPath" stroke="#FF0000" stroke-width="0.1" style="stroke:#FF0000;stroke-width:0.1" vector-effect="non-scaling-stroke"/><path d="M 526.772 582.128 L 526.621 582.128 A 19.791 19.791 0 0 1 526.751 583.591 A 16.583 16.583 0 0 1 526.772 584.421 L 526.772 590.102 L 524.681 590.102 L 524.681 570.097 L 526.381 570.097 L 526.671 571.987 L 526.772 571.987 A 5.629 5.629 0 0 1 527.586 571.062 A 4.353 4.353 0 0 1 528.649 570.349 A 5.237 5.237 0 0 1 530.15 569.91 A 6.778 6.778 0 0 1 531.105 569.845 Q 533.852 569.845 535.344 571.722 A 6.279 6.279 0 0 1 536.416 573.814 Q 536.837 575.188 536.837 576.988 A 12.261 12.261 0 0 1 536.675 579.051 Q 536.487 580.151 536.081 581.033 A 5.878 5.878 0 0 1 535.319 582.273 A 4.951 4.951 0 0 1 531.801 584.123 A 7.093 7.093 0 0 1 531.105 584.156 A 6.343 6.343 0 0 1 529.511 583.962 A 5.519 5.519 0 0 1 528.643 583.659 A 4.632 4.632 0 0 1 526.772 582.128 Z M 506.338 582.179 L 506.338 583.778 A 2.057 2.057 0 0 1 506.094 583.875 Q 505.792 583.976 505.337 584.049 A 9.064 9.064 0 0 1 504.746 584.126 Q 504.427 584.156 504.146 584.156 A 5.462 5.462 0 0 1 502.537 583.94 Q 500.768 583.394 500.304 581.472 A 6.573 6.573 0 0 1 500.14 579.936 L 500.14 571.722 L 498.162 571.722 L 498.162 570.715 L 500.14 569.845 L 501.022 566.898 L 502.232 566.898 L 502.232 570.097 L 506.238 570.097 L 506.238 571.722 L 502.232 571.722 L 502.232 579.848 A 4.211 4.211 0 0 0 502.292 580.587 Q 502.365 580.993 502.524 581.314 A 2.028 2.028 0 0 0 502.824 581.763 A 1.943 1.943 0 0 0 504.018 582.399 A 2.795 2.795 0 0 0 504.449 582.43 A 6.868 6.868 0 0 0 505.455 582.358 A 6.335 6.335 0 0 0 505.52 582.349 A 11.312 11.312 0 0 0 505.821 582.297 Q 506.131 582.239 506.338 582.179 Z M 520.823 579.09 A 10.802 10.802 0 0 0 521.015 576.988 A 12.273 12.273 0 0 0 521.01 576.656 Q 520.979 575.507 520.73 574.531 A 6.512 6.512 0 0 0 519.308 571.773 A 5.474 5.474 0 0 0 516.766 570.134 A 7.027 7.027 0 0 0 514.703 569.845 A 8.122 8.122 0 0 0 513.244 569.971 A 5.531 5.531 0 0 0 510.017 571.729 A 5.777 5.777 0 0 0 509.307 572.713 Q 508.329 574.418 508.329 576.988 A 10.461 10.461 0 0 0 508.46 578.683 A 7.736 7.736 0 0 0 509.11 580.793 Q 509.891 582.418 511.327 583.287 A 5.823 5.823 0 0 0 512.664 583.881 A 6.715 6.715 0 0 0 514.615 584.156 A 8.12 8.12 0 0 0 516.033 584.038 A 5.575 5.575 0 0 0 519.314 582.26 A 5.834 5.834 0 0 0 520.009 581.306 Q 520.575 580.337 520.823 579.09 Z M 510.496 576.988 Q 510.496 579.634 511.554 581.02 A 3.427 3.427 0 0 0 513.786 582.334 A 5.194 5.194 0 0 0 514.665 582.405 A 4.857 4.857 0 0 0 515.947 582.246 A 3.38 3.38 0 0 0 517.783 581.026 A 4.489 4.489 0 0 0 518.482 579.664 Q 518.848 578.546 518.848 576.988 Q 518.848 575.299 518.41 574.131 A 4.306 4.306 0 0 0 517.783 572.989 A 3.44 3.44 0 0 0 515.645 571.713 A 5.274 5.274 0 0 0 514.64 571.622 A 4.977 4.977 0 0 0 513.401 571.767 A 3.331 3.331 0 0 0 511.541 572.97 A 4.324 4.324 0 0 0 510.869 574.268 Q 510.671 574.865 510.578 575.596 A 11.051 11.051 0 0 0 510.496 576.988 Z M 526.772 576.522 L 526.772 576.988 A 13.827 13.827 0 0 0 526.84 578.417 Q 527.029 580.231 527.742 581.152 A 3.034 3.034 0 0 0 529.281 582.19 Q 529.795 582.352 530.423 582.392 A 6.724 6.724 0 0 0 530.853 582.405 Q 532.574 582.405 533.577 581.066 A 4.168 4.168 0 0 0 533.656 580.957 A 5.056 5.056 0 0 0 534.35 579.479 Q 534.55 578.801 534.625 577.988 A 11.141 11.141 0 0 0 534.67 576.963 A 10.553 10.553 0 0 0 534.571 575.466 Q 534.463 574.708 534.234 574.092 A 4.433 4.433 0 0 0 533.656 573.001 Q 532.642 571.622 530.803 571.622 A 6.026 6.026 0 0 0 529.677 571.72 Q 529.05 571.839 528.569 572.104 A 2.763 2.763 0 0 0 527.742 572.793 Q 526.857 573.89 526.779 576.201 A 13.309 13.309 0 0 0 526.772 576.522 Z" id="top_labelLayer" stroke="#777777" fill="#777777" style="stroke:#777777;fill:#777777" vector-effect="non-scaling-stroke"/><path d="M 0 0 L 0 28 L 3 28 L 3 52 L 0 52 L 0 76 L 3 76 L 3 100 L 0 100 L 0 124 L 3 124 L 3 148 L 0 148 L 0 172 L 3 172 L 3 196 L 0 196 L 0 220 L 3 220 L 3 244 L 0 244 L 0 268 L 3 268 L 3 292 L 0 292 L 0 320 L 19.5 320 L 19.5 317 L 43.5 317 L 43.5 320 L 67.5 320 L 67.5 317 L 91.5 317 L 91.5 320 L 115.5 320 L 115.5 317 L 139.5 317 L 139.5 320 L 163.5 320 L 163.5 317 L 187.5 317 L 187.5 320 L 211.5 320 L 211.5 317 L 235.5 317 L 235.5 320 L 255 320 L 255 292 L 252 292 L 252 268 L 255 268 L 255 244 L 252 244 L 252 220 L 255 220 L 255 196 L 252 196 L 252 172 L 255 172 L 255 148 L 252 148 L 252 124 L 255 124 L 255 100 L 252 100 L 252 76 L 255 76 L 255 52 L 252 52 L 252 28 L 255 28 L 255 0 L 235.5 0 L 235.5 3 L 211.5 3 L 211.5 0 L 187.5 0 L 187.5 3 L 163.5 3 L 163.5 0 L 139.5 0 L 139.5 3 L 115.5 3 L 115.5 0 L 91.5 0 L 91.5 3 L 67.5 3 L 67.5 0 L 43.5 0 L 43.5 3 L 19.5 3 L 19.5 0 L 0 0 Z" id="back_outsideCutPath" stroke="#FF0000" stroke-width="0.1" style="stroke:#FF0000;stroke-width:0.1" vector-effect="non-scaling-stroke"/><path d="M 162.413 165.155 L 162.612 165.155 Q 163.432 163.991 164.909 162.274 A 88.823 88.823 0 0 1 165.875 161.17 L 174.69 151.832 L 179.596 151.832 L 168.539 163.461 L 180.368 179.125 L 175.362 179.125 L 165.725 166.225 L 162.612 168.915 L 162.612 179.125 L 158.528 179.125 L 158.528 140.377 L 162.612 140.377 L 162.612 160.921 Q 162.612 162.291 162.413 165.155 Z M 78.766 175.613 L 78.467 175.613 L 77.596 179.125 L 74.632 179.125 L 74.632 140.377 L 78.766 140.377 L 78.766 149.79 Q 78.766 152.952 78.567 155.467 L 78.766 155.467 A 9.399 9.399 0 0 1 85.626 151.483 A 14.118 14.118 0 0 1 87.333 151.384 A 12.634 12.634 0 0 1 90.888 151.858 A 9.458 9.458 0 0 1 95.687 155.057 Q 98.07 157.998 98.545 162.895 A 26.534 26.534 0 0 1 98.663 165.453 A 24.237 24.237 0 0 1 98.342 169.531 Q 97.97 171.705 97.169 173.448 A 11.619 11.619 0 0 1 95.662 175.9 A 9.786 9.786 0 0 1 88.707 179.557 A 14.02 14.02 0 0 1 87.333 179.623 Q 84.668 179.623 82.464 178.639 Q 80.26 177.655 78.766 175.613 Z M 125.732 179.125 L 122.669 179.125 L 121.847 175.24 L 121.648 175.24 A 17.137 17.137 0 0 1 120.261 176.792 Q 119.515 177.525 118.771 178.036 A 7.616 7.616 0 0 1 117.576 178.714 A 9.533 9.533 0 0 1 115.608 179.335 Q 114.652 179.533 113.546 179.595 A 18.603 18.603 0 0 1 112.509 179.623 Q 108.45 179.623 106.146 177.531 A 6.795 6.795 0 0 1 104.097 173.948 A 10.401 10.401 0 0 1 103.843 171.579 Q 103.843 163.579 116.226 162.947 A 40.38 40.38 0 0 1 117.066 162.913 L 121.698 162.764 L 121.698 161.071 A 11.873 11.873 0 0 0 121.582 159.354 Q 121.454 158.475 121.181 157.772 A 4.613 4.613 0 0 0 120.316 156.327 Q 119.213 155.105 117.056 154.858 A 10.214 10.214 0 0 0 115.896 154.795 A 13.459 13.459 0 0 0 112.798 155.181 Q 111.377 155.518 109.83 156.147 A 27.685 27.685 0 0 0 108.176 156.887 L 106.906 153.724 A 19.06 19.06 0 0 1 110.584 152.212 A 21.694 21.694 0 0 1 111.326 152.006 A 19.144 19.144 0 0 1 116.145 151.384 Q 119.197 151.384 121.261 152.231 A 7.036 7.036 0 0 1 123.379 153.55 A 6.546 6.546 0 0 1 125.068 156.156 Q 125.462 157.226 125.622 158.556 A 16.266 16.266 0 0 1 125.732 160.498 L 125.732 179.125 Z M 152.452 152.753 L 151.182 156.264 A 18.39 18.39 0 0 0 149.187 155.601 A 21.964 21.964 0 0 0 148.194 155.355 Q 146.809 155.047 145.698 155.002 A 9.163 9.163 0 0 0 145.33 154.994 A 9.169 9.169 0 0 0 141.606 155.694 Q 137.013 157.719 137.013 165.603 Q 137.013 168.904 137.887 171.197 A 8.574 8.574 0 0 0 139.042 173.322 A 6.566 6.566 0 0 0 143.296 175.864 A 10.001 10.001 0 0 0 145.056 176.012 A 17.305 17.305 0 0 0 149.83 175.317 A 21.366 21.366 0 0 0 152.054 174.543 L 152.054 178.203 Q 149.701 179.422 146.302 179.594 A 22.669 22.669 0 0 1 145.156 179.623 A 15.45 15.45 0 0 1 141.397 179.192 A 10.476 10.476 0 0 1 135.979 175.975 A 11.957 11.957 0 0 1 133.492 171.408 Q 132.729 168.885 132.729 165.653 A 22.809 22.809 0 0 1 133.083 161.505 Q 133.809 157.582 136.029 155.069 A 10.704 10.704 0 0 1 141.89 151.698 A 16.227 16.227 0 0 1 145.43 151.334 A 18.655 18.655 0 0 1 149.364 151.757 A 20.633 20.633 0 0 1 150.511 152.036 Q 151.663 152.354 152.427 152.74 A 6.174 6.174 0 0 1 152.452 152.753 Z M 86.735 154.845 A 11.616 11.616 0 0 0 84.485 155.048 Q 81.962 155.547 80.634 157.273 Q 78.993 159.406 78.794 164.106 A 31.849 31.849 0 0 0 78.766 165.453 Q 78.766 170.339 80.15 172.863 A 6.235 6.235 0 0 0 80.684 173.684 A 5.997 5.997 0 0 0 83.726 175.737 Q 85.082 176.161 86.834 176.161 Q 90.645 176.161 92.512 173.385 A 9.489 9.489 0 0 0 93.686 170.845 Q 94.055 169.639 94.227 168.179 A 23.686 23.686 0 0 0 94.38 165.404 A 24.423 24.423 0 0 0 94.232 162.621 Q 93.882 159.577 92.702 157.739 A 6.858 6.858 0 0 0 92.512 157.46 A 6.028 6.028 0 0 0 88.674 155.031 A 9.561 9.561 0 0 0 86.735 154.845 Z M 121.598 168.168 L 121.598 165.702 L 117.464 165.877 A 30.353 30.353 0 0 0 115.039 166.053 Q 111.955 166.411 110.355 167.408 A 4.411 4.411 0 0 0 108.252 170.608 A 6.529 6.529 0 0 0 108.176 171.629 A 5.908 5.908 0 0 0 108.322 172.985 Q 108.621 174.254 109.533 175.041 Q 110.705 176.052 112.685 176.189 A 9.297 9.297 0 0 0 113.331 176.211 Q 116.666 176.211 118.765 174.631 A 6.902 6.902 0 0 0 119.394 174.094 A 6.923 6.923 0 0 0 121.326 170.637 Q 121.594 169.525 121.598 168.209 A 13.146 13.146 0 0 0 121.598 168.168 Z" id="back_labelLayer" stroke="#777777" fill="#777777" style="stroke:#777777;fill:#777777" vector-effect="non-scaling-stroke"/><path d="M 261 0 L 261 28 L 258 28 L 258 52 L 261 52 L 261 76 L 258 76 L 258 100 L 261 100 L 261 124 L 258 124 L 258 148 L 261 148 L 261 172 L 258 172 L 258 196 L 261 196 L 261 220 L 258 220 L 258 244 L 261 244 L 261 268 L 258 268 L 258 292 L 261 292 L 261 320 L 286.5 320 L 286.5 317 L 310.5 317 L 310.5 320 L 334.5 320 L 334.5 317 L 358.5 317 L 358.5 320 L 382.5 320 L 384 320 L 384 292 L 387 292 L 387 268 L 384 268 L 384 244 L 387 244 L 387 220 L 384 220 L 384 196 L 387 196 L 387 172 L 384 172 L 384 148 L 387 148 L 387 124 L 384 124 L 384 100 L 387 100 L 387 76 L 384 76 L 384 52 L 387 52 L 387 28 L 384 28 L 384 0 L 358.5 0 L 358.5 3 L 334.5 3 L 334.5 0 L 310.5 0 L 310.5 3 L 286.5 3 L 286.5 0 L 262.5 0 L 261 0 Z" id="right_outsideCutPath" stroke="#FF0000" stroke-width="0.1" style="stroke:#FF0000;stroke-width:0.1" vector-effect="non-scaling-stroke"/><path d="M 338.543 166.702 L 336.452 166.702 L 336.452 157.77 Q 336.452 156.694 336.14 155.966 A 2.488 2.488 0 0 0 335.683 155.251 A 2.358 2.358 0 0 0 334.716 154.634 Q 334.337 154.5 333.87 154.449 A 5.544 5.544 0 0 0 333.277 154.419 A 6.328 6.328 0 0 0 332.094 154.522 Q 330.803 154.768 330.096 155.603 A 3.48 3.48 0 0 0 329.506 156.65 Q 329.15 157.608 329.102 159.032 A 13.497 13.497 0 0 0 329.095 159.483 L 329.095 166.702 L 327.004 166.702 L 327.004 147.1 L 329.095 147.1 L 329.095 153.033 A 18.812 18.812 0 0 1 329.082 153.756 Q 329.069 154.094 329.043 154.386 A 8.18 8.18 0 0 1 328.994 154.81 L 329.12 154.81 A 4.178 4.178 0 0 1 330.584 153.401 A 5.104 5.104 0 0 1 330.877 153.241 A 5.368 5.368 0 0 1 332.64 152.719 A 6.787 6.787 0 0 1 333.479 152.668 A 8.484 8.484 0 0 1 334.904 152.78 Q 336.397 153.035 337.277 153.871 A 3.641 3.641 0 0 1 338.175 155.281 Q 338.391 155.868 338.48 156.595 A 9.043 9.043 0 0 1 338.543 157.695 L 338.543 166.702 Z M 319.395 152.895 L 324.169 152.895 L 324.169 154.218 L 321.612 154.52 Q 321.909 154.891 322.152 155.454 A 6.446 6.446 0 0 1 322.242 155.673 A 4.023 4.023 0 0 1 322.48 156.634 A 5.167 5.167 0 0 1 322.519 157.279 A 4.794 4.794 0 0 1 322.299 158.765 A 3.877 3.877 0 0 1 321.133 160.516 A 4.638 4.638 0 0 1 319.309 161.477 Q 318.618 161.671 317.798 161.714 A 9.083 9.083 0 0 1 317.329 161.726 A 6.721 6.721 0 0 1 316.551 161.682 A 5.675 5.675 0 0 1 316.17 161.625 A 3.721 3.721 0 0 0 315.57 162.013 Q 315.26 162.263 315.08 162.55 A 1.573 1.573 0 0 0 314.834 163.401 A 1.084 1.084 0 0 0 314.889 163.756 Q 314.995 164.061 315.3 164.239 A 1.467 1.467 0 0 0 315.626 164.373 Q 316.094 164.51 316.9 164.51 L 319.344 164.51 Q 321.587 164.51 322.79 165.455 A 3.059 3.059 0 0 1 323.927 167.404 A 4.595 4.595 0 0 1 323.993 168.201 Q 323.993 170.449 322.225 171.649 A 4.973 4.973 0 0 1 322.154 171.697 A 6.271 6.271 0 0 1 320.537 172.43 Q 319.74 172.672 318.768 172.79 A 16.575 16.575 0 0 1 316.787 172.9 Q 315.01 172.9 313.766 172.466 A 4.86 4.86 0 0 1 312.611 171.892 Q 311.238 170.95 311.149 169.28 A 4.416 4.416 0 0 1 311.143 169.045 A 3.198 3.198 0 0 1 311.949 166.866 A 3.652 3.652 0 0 1 313.204 165.952 A 5.176 5.176 0 0 1 314.217 165.618 A 2.17 2.17 0 0 1 313.374 164.937 A 2.576 2.576 0 0 1 313.329 164.875 A 1.939 1.939 0 0 1 312.973 163.827 A 2.401 2.401 0 0 1 312.97 163.704 A 2.391 2.391 0 0 1 313.09 162.933 A 2.119 2.119 0 0 1 313.373 162.381 A 2.993 2.993 0 0 1 313.768 161.935 Q 314.122 161.603 314.645 161.285 A 3.666 3.666 0 0 1 313.053 160.01 A 4.544 4.544 0 0 1 312.901 159.786 A 4.323 4.323 0 0 1 312.237 157.702 A 5.276 5.276 0 0 1 312.227 157.367 A 6.042 6.042 0 0 1 312.386 155.938 A 3.975 3.975 0 0 1 313.587 153.871 A 4.441 4.441 0 0 1 315.292 152.931 Q 316.234 152.643 317.442 152.643 A 8.016 8.016 0 0 1 318.502 152.71 A 6.105 6.105 0 0 1 319.395 152.895 Z M 349.188 164.976 L 349.188 166.576 A 2.057 2.057 0 0 1 348.944 166.673 Q 348.641 166.773 348.187 166.847 A 9.064 9.064 0 0 1 347.596 166.924 Q 347.277 166.954 346.996 166.954 A 5.462 5.462 0 0 1 345.387 166.737 Q 343.617 166.191 343.154 164.269 A 6.573 6.573 0 0 1 342.99 162.734 L 342.99 154.52 L 341.012 154.52 L 341.012 153.512 L 342.99 152.643 L 343.872 149.695 L 345.081 149.695 L 345.081 152.895 L 349.087 152.895 L 349.087 154.52 L 345.081 154.52 L 345.081 162.645 A 4.211 4.211 0 0 0 345.142 163.385 Q 345.215 163.791 345.374 164.112 A 2.028 2.028 0 0 0 345.673 164.56 A 1.943 1.943 0 0 0 346.868 165.196 A 2.795 2.795 0 0 0 347.298 165.228 A 6.868 6.868 0 0 0 348.305 165.156 A 6.335 6.335 0 0 0 348.369 165.146 A 11.312 11.312 0 0 0 348.671 165.094 Q 348.98 165.037 349.188 164.976 Z M 303.761 152.794 L 303.471 154.734 A 9.216 9.216 0 0 0 302.808 154.612 Q 302.478 154.564 302.184 154.55 A 4.905 4.905 0 0 0 301.96 154.545 A 3.623 3.623 0 0 0 299.283 155.701 A 4.957 4.957 0 0 0 299.094 155.906 Q 297.903 157.266 297.903 159.294 L 297.903 166.702 L 295.812 166.702 L 295.812 152.895 L 297.538 152.895 L 297.777 155.452 L 297.878 155.452 A 7.062 7.062 0 0 1 298.668 154.324 A 5.395 5.395 0 0 1 299.73 153.374 Q 300.813 152.643 302.111 152.643 A 9.6 9.6 0 0 1 302.97 152.68 A 7.007 7.007 0 0 1 303.761 152.794 Z M 308.435 152.895 L 308.435 166.702 L 306.344 166.702 L 306.344 152.895 L 308.435 152.895 Z M 318.677 166.387 L 316.17 166.387 Q 314.746 166.387 313.952 167.067 A 2.204 2.204 0 0 0 313.229 168.317 A 3.346 3.346 0 0 0 313.159 169.02 A 2.1 2.1 0 0 0 313.297 169.799 Q 313.496 170.301 313.98 170.64 A 2.454 2.454 0 0 0 314.104 170.721 Q 315.048 171.3 316.812 171.3 A 14.058 14.058 0 0 0 318.185 171.238 Q 319.561 171.102 320.425 170.672 A 3.473 3.473 0 0 0 320.711 170.513 A 3.05 3.05 0 0 0 321.419 169.92 A 2.286 2.286 0 0 0 321.977 168.377 A 2.829 2.829 0 0 0 321.925 167.816 Q 321.788 167.137 321.284 166.822 A 1.984 1.984 0 0 0 320.814 166.616 Q 320.313 166.462 319.52 166.412 A 13.306 13.306 0 0 0 318.677 166.387 Z M 314.293 157.317 A 4.082 4.082 0 0 0 314.377 158.172 Q 314.49 158.703 314.759 159.101 A 2.237 2.237 0 0 0 315.111 159.509 Q 315.849 160.178 317.108 160.245 A 5.384 5.384 0 0 0 317.392 160.252 A 4.556 4.556 0 0 0 318.584 160.11 Q 320.453 159.602 320.453 157.279 Q 320.453 154.81 318.502 154.3 A 4.548 4.548 0 0 0 317.354 154.167 Q 316.224 154.167 315.494 154.633 A 2.407 2.407 0 0 0 315.086 154.961 Q 314.293 155.755 314.293 157.317 Z M 306.197 148.77 A 2.317 2.317 0 0 0 306.167 149.153 A 2.469 2.469 0 0 0 306.178 149.389 Q 306.198 149.601 306.257 149.773 A 1.08 1.08 0 0 0 306.52 150.205 A 1.173 1.173 0 0 0 306.944 150.476 A 1.328 1.328 0 0 0 307.402 150.552 A 1.22 1.22 0 0 0 308.271 150.205 Q 308.636 149.859 308.636 149.153 A 2.392 2.392 0 0 0 308.626 148.927 Q 308.606 148.72 308.549 148.552 A 1.056 1.056 0 0 0 308.271 148.108 A 1.232 1.232 0 0 0 307.402 147.768 A 1.596 1.596 0 0 0 307.296 147.771 A 1.209 1.209 0 0 0 306.52 148.101 A 0.978 0.978 0 0 0 306.304 148.408 Q 306.231 148.568 306.197 148.77 Z" id="right_labelLayer" stroke="#777777" fill="#777777" style="stroke:#777777;fill:#777777" vector-effect="non-scaling-stroke"/><path d="M 393 385 L 393 410.5 L 390 410.5 L 390 434.5 L 393 434.5 L 393 458.5 L 390 458.5 L 390 482.5 L 393 482.5 L 393 506.5 L 393 508 L 409.5 508 L 409.5 511 L 433.5 511 L 433.5 508 L 457.5 508 L 457.5 511 L 481.5 511 L 481.5 508 L 505.5 508 L 505.5 511 L 529.5 511 L 529.5 508 L 553.5 508 L 553.5 511 L 577.5 511 L 577.5 508 L 601.5 508 L 601.5 511 L 625.5 511 L 625.5 508 L 642 508 L 642 482.5 L 645 482.5 L 645 458.5 L 642 458.5 L 642 434.5 L 645 434.5 L 645 410.5 L 642 410.5 L 642 386.5 L 642 385 L 625.5 385 L 625.5 382 L 601.5 382 L 601.5 385 L 577.5 385 L 577.5 382 L 553.5 382 L 553.5 385 L 529.5 385 L 529.5 382 L 505.5 382 L 505.5 385 L 481.5 385 L 481.5 382 L 457.5 382 L 457.5 385 L 433.5 385 L 433.5 382 L 409.5 382 L 409.5 385 L 393 385 Z" id="bottom_outsideCutPath" stroke="#FF0000" stroke-width="0.1" style="stroke:#FF0000;stroke-width:0.1" vector-effect="non-scaling-stroke"/><path d="M 559.941 456.175 L 557.85 456.175 L 557.85 447.193 A 6.169 6.169 0 0 0 557.788 446.285 Q 557.719 445.822 557.573 445.449 A 2.527 2.527 0 0 0 557.145 444.717 A 2.201 2.201 0 0 0 556.122 444.056 Q 555.757 443.938 555.313 443.905 A 4.854 4.854 0 0 0 554.953 443.892 A 5.381 5.381 0 0 0 553.858 443.996 Q 553.207 444.132 552.716 444.443 A 2.769 2.769 0 0 0 552.068 445.013 Q 551.136 446.134 551.136 448.465 L 551.136 456.175 L 549.044 456.175 L 549.044 447.193 A 6.169 6.169 0 0 0 548.982 446.285 Q 548.913 445.822 548.768 445.449 A 2.527 2.527 0 0 0 548.339 444.717 A 2.194 2.194 0 0 0 547.33 444.061 Q 546.967 443.942 546.523 443.907 A 4.897 4.897 0 0 0 546.134 443.892 A 5.194 5.194 0 0 0 545.06 443.996 Q 544.397 444.136 543.904 444.466 A 2.741 2.741 0 0 0 543.256 445.07 A 3.507 3.507 0 0 0 542.736 446.058 Q 542.343 447.17 542.343 448.931 L 542.343 456.175 L 540.251 456.175 L 540.251 442.368 L 541.952 442.368 L 542.292 444.257 L 542.393 444.257 Q 542.985 443.249 544.062 442.683 A 4.965 4.965 0 0 1 546.023 442.132 A 5.997 5.997 0 0 1 546.475 442.116 Q 548.48 442.116 549.625 443.014 A 3.57 3.57 0 0 1 550.707 444.459 L 550.808 444.459 A 4.366 4.366 0 0 1 552.453 442.826 A 5.246 5.246 0 0 1 552.597 442.746 A 5.293 5.293 0 0 1 554.539 442.155 A 6.6 6.6 0 0 1 555.268 442.116 A 7.269 7.269 0 0 1 556.586 442.227 Q 557.966 442.482 558.776 443.319 A 3.601 3.601 0 0 1 559.549 444.584 Q 559.758 445.141 559.855 445.835 A 9.592 9.592 0 0 1 559.941 447.167 L 559.941 456.175 Z M 477.15 454.398 L 476.998 454.398 L 476.558 456.175 L 475.058 456.175 L 475.058 436.573 L 477.15 436.573 L 477.15 441.335 A 43.6 43.6 0 0 1 477.126 442.808 Q 477.101 443.551 477.049 444.207 L 477.15 444.207 Q 478.611 442.141 481.483 442.141 Q 484.204 442.141 485.71 443.999 Q 486.915 445.487 487.155 447.965 A 13.423 13.423 0 0 1 487.215 449.259 A 12.261 12.261 0 0 1 487.053 451.322 Q 486.865 452.421 486.459 453.303 A 5.878 5.878 0 0 1 485.697 454.543 A 4.951 4.951 0 0 1 482.179 456.393 A 7.093 7.093 0 0 1 481.483 456.427 A 6.343 6.343 0 0 1 479.889 456.232 A 5.519 5.519 0 0 1 479.02 455.929 A 4.632 4.632 0 0 1 477.15 454.398 Z M 512.801 454.449 L 512.801 456.049 A 2.057 2.057 0 0 1 512.557 456.146 Q 512.254 456.246 511.799 456.32 A 9.064 9.064 0 0 1 511.209 456.396 Q 510.89 456.427 510.609 456.427 A 5.462 5.462 0 0 1 508.999 456.21 Q 507.23 455.664 506.767 453.742 A 6.573 6.573 0 0 1 506.603 452.206 L 506.603 443.993 L 504.625 443.993 L 504.625 442.985 L 506.603 442.116 L 507.485 439.168 L 508.694 439.168 L 508.694 442.368 L 512.7 442.368 L 512.7 443.993 L 508.694 443.993 L 508.694 452.118 A 4.211 4.211 0 0 0 508.755 452.858 Q 508.827 453.264 508.986 453.585 A 2.028 2.028 0 0 0 509.286 454.033 A 1.943 1.943 0 0 0 510.481 454.669 A 2.795 2.795 0 0 0 510.911 454.701 A 6.868 6.868 0 0 0 511.917 454.629 A 6.335 6.335 0 0 0 511.982 454.619 A 11.312 11.312 0 0 0 512.284 454.567 Q 512.593 454.509 512.801 454.449 Z M 521.909 454.449 L 521.909 456.049 A 2.057 2.057 0 0 1 521.665 456.146 Q 521.362 456.246 520.908 456.32 A 9.064 9.064 0 0 1 520.317 456.396 Q 519.998 456.427 519.717 456.427 A 5.462 5.462 0 0 1 518.108 456.21 Q 516.338 455.664 515.875 453.742 A 6.573 6.573 0 0 1 515.711 452.206 L 515.711 443.993 L 513.733 443.993 L 513.733 442.985 L 515.711 442.116 L 516.593 439.168 L 517.802 439.168 L 517.802 442.368 L 521.808 442.368 L 521.808 443.993 L 517.802 443.993 L 517.802 452.118 A 4.211 4.211 0 0 0 517.863 452.858 Q 517.936 453.264 518.095 453.585 A 2.028 2.028 0 0 0 518.394 454.033 A 1.943 1.943 0 0 0 519.589 454.669 A 2.795 2.795 0 0 0 520.019 454.701 A 6.868 6.868 0 0 0 521.026 454.629 A 6.335 6.335 0 0 0 521.09 454.619 A 11.312 11.312 0 0 0 521.392 454.567 Q 521.701 454.509 521.909 454.449 Z M 502.594 451.36 A 10.802 10.802 0 0 0 502.786 449.259 A 12.273 12.273 0 0 0 502.781 448.927 Q 502.75 447.777 502.501 446.801 A 6.512 6.512 0 0 0 501.079 444.043 A 5.474 5.474 0 0 0 498.537 442.404 A 7.027 7.027 0 0 0 496.474 442.116 A 8.122 8.122 0 0 0 495.016 442.241 A 5.531 5.531 0 0 0 491.788 443.999 A 5.777 5.777 0 0 0 491.079 444.983 Q 490.1 446.688 490.1 449.259 A 10.461 10.461 0 0 0 490.231 450.953 A 7.736 7.736 0 0 0 490.881 453.063 Q 491.662 454.688 493.098 455.557 A 5.823 5.823 0 0 0 494.435 456.152 A 6.715 6.715 0 0 0 496.386 456.427 A 8.12 8.12 0 0 0 497.804 456.308 A 5.575 5.575 0 0 0 501.085 454.531 A 5.834 5.834 0 0 0 501.78 453.576 Q 502.346 452.607 502.594 451.36 Z M 536.393 451.36 A 10.802 10.802 0 0 0 536.585 449.259 A 12.273 12.273 0 0 0 536.581 448.927 Q 536.55 447.777 536.301 446.801 A 6.512 6.512 0 0 0 534.878 444.043 A 5.474 5.474 0 0 0 532.337 442.404 A 7.027 7.027 0 0 0 530.274 442.116 A 8.122 8.122 0 0 0 528.815 442.241 A 5.531 5.531 0 0 0 525.588 443.999 A 5.777 5.777 0 0 0 524.878 444.983 Q 523.9 446.688 523.9 449.259 A 10.461 10.461 0 0 0 524.031 450.953 A 7.736 7.736 0 0 0 524.681 453.063 Q 525.462 454.688 526.898 455.557 A 5.823 5.823 0 0 0 528.234 456.152 A 6.715 6.715 0 0 0 530.186 456.427 A 8.12 8.12 0 0 0 531.604 456.308 A 5.575 5.575 0 0 0 534.885 454.531 A 5.834 5.834 0 0 0 535.579 453.576 Q 536.146 452.607 536.393 451.36 Z M 492.267 449.259 Q 492.267 451.904 493.325 453.29 A 3.427 3.427 0 0 0 495.557 454.604 A 5.194 5.194 0 0 0 496.437 454.676 A 4.857 4.857 0 0 0 497.718 454.516 A 3.38 3.38 0 0 0 499.555 453.296 A 4.489 4.489 0 0 0 500.254 451.935 Q 500.619 450.816 500.619 449.259 Q 500.619 447.57 500.181 446.402 A 4.306 4.306 0 0 0 499.555 445.259 A 3.44 3.44 0 0 0 497.416 443.983 A 5.274 5.274 0 0 0 496.411 443.892 A 4.977 4.977 0 0 0 495.172 444.037 A 3.331 3.331 0 0 0 493.312 445.24 A 4.324 4.324 0 0 0 492.64 446.539 Q 492.442 447.136 492.349 447.866 A 11.051 11.051 0 0 0 492.267 449.259 Z M 526.066 449.259 Q 526.066 451.904 527.125 453.29 A 3.427 3.427 0 0 0 529.357 454.604 A 5.194 5.194 0 0 0 530.236 454.676 A 4.857 4.857 0 0 0 531.518 454.516 A 3.38 3.38 0 0 0 533.354 453.296 A 4.489 4.489 0 0 0 534.053 451.935 Q 534.419 450.816 534.419 449.259 Q 534.419 447.57 533.981 446.402 A 4.306 4.306 0 0 0 533.354 445.259 A 3.44 3.44 0 0 0 531.215 443.983 A 5.274 5.274 0 0 0 530.211 443.892 A 4.977 4.977 0 0 0 528.972 444.037 A 3.331 3.331 0 0 0 527.112 445.24 A 4.324 4.324 0 0 0 526.44 446.539 Q 526.241 447.136 526.148 447.866 A 11.051 11.051 0 0 0 526.066 449.259 Z M 481.181 443.892 A 5.876 5.876 0 0 0 480.043 443.995 Q 478.766 444.247 478.094 445.12 Q 477.264 446.199 477.164 448.577 A 16.112 16.112 0 0 0 477.15 449.259 A 13.827 13.827 0 0 0 477.218 450.688 Q 477.407 452.502 478.12 453.422 A 3.034 3.034 0 0 0 479.659 454.461 Q 480.173 454.622 480.8 454.662 A 6.724 6.724 0 0 0 481.231 454.676 A 4.169 4.169 0 0 0 482.415 454.517 A 3.007 3.007 0 0 0 484.104 453.271 Q 484.778 452.268 484.971 450.637 A 11.982 11.982 0 0 0 485.048 449.233 A 12.355 12.355 0 0 0 484.974 447.826 Q 484.783 446.165 484.104 445.215 A 3.05 3.05 0 0 0 482.162 443.986 A 4.837 4.837 0 0 0 481.181 443.892 Z" id="bottom_labelLayer" stroke="#777777" fill="#777777" style="stroke:#777777;fill:#777777" vector-effect="non-scaling-stroke"/></g></svg>